M48
; DRILL file {KiCad (6.0.1-0)} date Wednesday, 09 March 2022 at 23:32:52
; FORMAT={-:-/ absolute / metric / decimal}
; #@! TF.CreationDate,2022-03-09T23:32:52+00:00
; #@! TF.GenerationSoftware,Kicad,Pcbnew,(6.0.1-0)
; #@! TF.FileFunction,Plated,1,2,PTH
FMAT,2
METRIC
; #@! TA.AperFunction,Plated,PTH,ViaDrill
T1C0.300
; #@! TA.AperFunction,Plated,PTH,ViaDrill
T2C0.500
; #@! TA.AperFunction,Plated,PTH,ComponentDrill
T3C0.800
; #@! TA.AperFunction,Plated,PTH,ComponentDrill
T4C0.900
; #@! TA.AperFunction,Plated,PTH,ComponentDrill
T5C2.000
%
G90
G05
T1
X61.63Y-92.66
X69.78Y-95.46
X69.8Y-90.42
X70.455Y-92.495
X70.86Y-91.09
X75.936Y-93.1
X76.75Y-95.1
X76.89Y-91.88
X81.36Y-96.33
X81.61Y-94.24
T2
X71.01Y-88.44
X71.99Y-88.44
X81.05Y-87.64
X81.27Y-91.78
T3
X55.32Y-91.44
X55.32Y-93.44
X55.32Y-95.44
X63.98Y-93.61
X63.98Y-95.61
X63.98Y-97.61
X63.98Y-99.61
X63.98Y-101.61
X63.98Y-103.61
X74.13Y-85.13
X76.13Y-85.13
T4
X80.77Y-103.69
X83.31Y-103.69
X86.52Y-103.68
X89.06Y-103.68
X90.0Y-90.125
X90.0Y-96.475
X92.54Y-90.125
X92.54Y-92.157
X92.54Y-94.316
X92.54Y-96.475
T5
G00X95.43Y-86.315
M15
G01X94.73Y-86.315
M16
G05
G00X95.43Y-100.285
M15
G01X94.73Y-100.285
M16
G05
G00X96.288Y-93.65
M15
G01X96.288Y-92.95
M16
G05
T0
M30
