G04 #@! TF.GenerationSoftware,KiCad,Pcbnew,(6.0.1-0)*
G04 #@! TF.CreationDate,2022-03-09T23:32:45+00:00*
G04 #@! TF.ProjectId,x1key,78316b65-792e-46b6-9963-61645f706362,1.2*
G04 #@! TF.SameCoordinates,Original*
G04 #@! TF.FileFunction,Legend,Bot*
G04 #@! TF.FilePolarity,Positive*
%FSLAX46Y46*%
G04 Gerber Fmt 4.6, Leading zero omitted, Abs format (unit mm)*
G04 Created by KiCad (PCBNEW (6.0.1-0)) date 2022-03-09 23:32:45*
%MOMM*%
%LPD*%
G01*
G04 APERTURE LIST*
%ADD10C,0.120000*%
%ADD11C,0.100000*%
%ADD12C,0.150000*%
%ADD13C,0.010000*%
%ADD14R,3.000000X2.500000*%
%ADD15R,2.500000X3.000000*%
G04 APERTURE END LIST*
D10*
X56775000Y-89945000D02*
X53785000Y-89945000D01*
X65490000Y-92120000D02*
X62510000Y-92120000D01*
X98175000Y-86280000D02*
X88700000Y-86290000D01*
X75000000Y-83630000D02*
X72630000Y-83630000D01*
X89814281Y-103680000D02*
G75*
G03*
X89814281Y-103680000I-2027141J0D01*
G01*
X79160000Y-90570000D02*
X71260000Y-90570000D01*
X83020000Y-84010000D02*
X83010000Y-81520000D01*
X72630000Y-83630000D02*
X72640000Y-86630000D01*
X83470000Y-81500000D02*
X83480000Y-84000000D01*
X72640000Y-86630000D02*
X77630000Y-86630000D01*
X84037141Y-103700000D02*
G75*
G03*
X84037141Y-103700000I-2027141J0D01*
G01*
X98225000Y-100340000D02*
X98175000Y-86280000D01*
X79720000Y-81520000D02*
X79750000Y-84020000D01*
X62510000Y-105120000D02*
X65510000Y-105120000D01*
X88730000Y-100330000D02*
X98225000Y-100340000D01*
X65510000Y-105120000D02*
X65490000Y-92120000D01*
X53795000Y-96945000D02*
X56785000Y-96935000D01*
X83010000Y-81520000D02*
X79730000Y-81520000D01*
X71270000Y-97670000D02*
X79160000Y-97660000D01*
X86770000Y-84000000D02*
X86770000Y-81500000D01*
X88700000Y-86290000D02*
X88730000Y-100330000D01*
X56785000Y-96935000D02*
X56775000Y-89945000D01*
X53785000Y-89945000D02*
X53795000Y-96945000D01*
X79160000Y-97660000D02*
X79160000Y-90570000D01*
X83480000Y-84000000D02*
X86770000Y-84000000D01*
X71260000Y-90570000D02*
X71270000Y-97670000D01*
X86770000Y-81500000D02*
X83480000Y-81500000D01*
X62510000Y-92120000D02*
X62510000Y-105120000D01*
X79750000Y-84020000D02*
X83020000Y-84010000D01*
X77630000Y-86630000D02*
X77620000Y-83630000D01*
D11*
X53423333Y-96733333D02*
X52723333Y-96266666D01*
X53423333Y-96266666D02*
X52723333Y-96733333D01*
X52723333Y-95633333D02*
X52723333Y-96033333D01*
X52723333Y-95833333D02*
X53423333Y-95833333D01*
X53323333Y-95900000D01*
X53256666Y-95966666D01*
X53223333Y-96033333D01*
X52723333Y-94800000D02*
X53423333Y-94800000D01*
X52723333Y-94400000D02*
X53123333Y-94700000D01*
X53423333Y-94400000D02*
X53023333Y-94800000D01*
X52756666Y-93833333D02*
X52723333Y-93900000D01*
X52723333Y-94033333D01*
X52756666Y-94100000D01*
X52823333Y-94133333D01*
X53090000Y-94133333D01*
X53156666Y-94100000D01*
X53190000Y-94033333D01*
X53190000Y-93900000D01*
X53156666Y-93833333D01*
X53090000Y-93800000D01*
X53023333Y-93800000D01*
X52956666Y-94133333D01*
X53190000Y-93566666D02*
X52723333Y-93400000D01*
X53190000Y-93233333D02*
X52723333Y-93400000D01*
X52556666Y-93466666D01*
X52523333Y-93500000D01*
X52490000Y-93566666D01*
X52723333Y-92966666D02*
X53423333Y-92966666D01*
X53156666Y-92966666D02*
X53190000Y-92900000D01*
X53190000Y-92766666D01*
X53156666Y-92700000D01*
X53123333Y-92666666D01*
X53056666Y-92633333D01*
X52856666Y-92633333D01*
X52790000Y-92666666D01*
X52756666Y-92700000D01*
X52723333Y-92766666D01*
X52723333Y-92900000D01*
X52756666Y-92966666D01*
X52723333Y-92233333D02*
X52756666Y-92300000D01*
X52790000Y-92333333D01*
X52856666Y-92366666D01*
X53056666Y-92366666D01*
X53123333Y-92333333D01*
X53156666Y-92300000D01*
X53190000Y-92233333D01*
X53190000Y-92133333D01*
X53156666Y-92066666D01*
X53123333Y-92033333D01*
X53056666Y-92000000D01*
X52856666Y-92000000D01*
X52790000Y-92033333D01*
X52756666Y-92066666D01*
X52723333Y-92133333D01*
X52723333Y-92233333D01*
X52723333Y-91400000D02*
X53090000Y-91400000D01*
X53156666Y-91433333D01*
X53190000Y-91500000D01*
X53190000Y-91633333D01*
X53156666Y-91700000D01*
X52756666Y-91400000D02*
X52723333Y-91466666D01*
X52723333Y-91633333D01*
X52756666Y-91700000D01*
X52823333Y-91733333D01*
X52890000Y-91733333D01*
X52956666Y-91700000D01*
X52990000Y-91633333D01*
X52990000Y-91466666D01*
X53023333Y-91400000D01*
X52723333Y-91066666D02*
X53190000Y-91066666D01*
X53056666Y-91066666D02*
X53123333Y-91033333D01*
X53156666Y-91000000D01*
X53190000Y-90933333D01*
X53190000Y-90866666D01*
X52723333Y-90333333D02*
X53423333Y-90333333D01*
X52756666Y-90333333D02*
X52723333Y-90400000D01*
X52723333Y-90533333D01*
X52756666Y-90600000D01*
X52790000Y-90633333D01*
X52856666Y-90666666D01*
X53056666Y-90666666D01*
X53123333Y-90633333D01*
X53156666Y-90600000D01*
X53190000Y-90533333D01*
X53190000Y-90400000D01*
X53156666Y-90333333D01*
D12*
X76973333Y-87506666D02*
X76973333Y-86806666D01*
X76706666Y-86806666D01*
X76640000Y-86840000D01*
X76606666Y-86873333D01*
X76573333Y-86940000D01*
X76573333Y-87040000D01*
X76606666Y-87106666D01*
X76640000Y-87140000D01*
X76706666Y-87173333D01*
X76973333Y-87173333D01*
X76273333Y-87506666D02*
X76273333Y-87040000D01*
X76273333Y-87173333D02*
X76240000Y-87106666D01*
X76206666Y-87073333D01*
X76140000Y-87040000D01*
X76073333Y-87040000D01*
X75740000Y-87506666D02*
X75806666Y-87473333D01*
X75840000Y-87440000D01*
X75873333Y-87373333D01*
X75873333Y-87173333D01*
X75840000Y-87106666D01*
X75806666Y-87073333D01*
X75740000Y-87040000D01*
X75640000Y-87040000D01*
X75573333Y-87073333D01*
X75540000Y-87106666D01*
X75506666Y-87173333D01*
X75506666Y-87373333D01*
X75540000Y-87440000D01*
X75573333Y-87473333D01*
X75640000Y-87506666D01*
X75740000Y-87506666D01*
X74906666Y-87040000D02*
X74906666Y-87606666D01*
X74940000Y-87673333D01*
X74973333Y-87706666D01*
X75040000Y-87740000D01*
X75140000Y-87740000D01*
X75206666Y-87706666D01*
X74906666Y-87473333D02*
X74973333Y-87506666D01*
X75106666Y-87506666D01*
X75173333Y-87473333D01*
X75206666Y-87440000D01*
X75240000Y-87373333D01*
X75240000Y-87173333D01*
X75206666Y-87106666D01*
X75173333Y-87073333D01*
X75106666Y-87040000D01*
X74973333Y-87040000D01*
X74906666Y-87073333D01*
X74573333Y-87506666D02*
X74573333Y-87040000D01*
X74573333Y-87173333D02*
X74540000Y-87106666D01*
X74506666Y-87073333D01*
X74440000Y-87040000D01*
X74373333Y-87040000D01*
X73840000Y-87506666D02*
X73840000Y-87140000D01*
X73873333Y-87073333D01*
X73940000Y-87040000D01*
X74073333Y-87040000D01*
X74140000Y-87073333D01*
X73840000Y-87473333D02*
X73906666Y-87506666D01*
X74073333Y-87506666D01*
X74140000Y-87473333D01*
X74173333Y-87406666D01*
X74173333Y-87340000D01*
X74140000Y-87273333D01*
X74073333Y-87240000D01*
X73906666Y-87240000D01*
X73840000Y-87206666D01*
X73506666Y-87506666D02*
X73506666Y-87040000D01*
X73506666Y-87106666D02*
X73473333Y-87073333D01*
X73406666Y-87040000D01*
X73306666Y-87040000D01*
X73240000Y-87073333D01*
X73206666Y-87140000D01*
X73206666Y-87506666D01*
X73206666Y-87140000D02*
X73173333Y-87073333D01*
X73106666Y-87040000D01*
X73006666Y-87040000D01*
X72940000Y-87073333D01*
X72906666Y-87140000D01*
X72906666Y-87506666D01*
D11*
X66803333Y-105426666D02*
X66803333Y-105993333D01*
X66770000Y-106060000D01*
X66736666Y-106093333D01*
X66670000Y-106126666D01*
X66536666Y-106126666D01*
X66470000Y-106093333D01*
X66436666Y-106060000D01*
X66403333Y-105993333D01*
X66403333Y-105426666D01*
X66103333Y-105926666D02*
X65770000Y-105926666D01*
X66170000Y-106126666D02*
X65936666Y-105426666D01*
X65703333Y-106126666D01*
X65070000Y-106126666D02*
X65303333Y-105793333D01*
X65470000Y-106126666D02*
X65470000Y-105426666D01*
X65203333Y-105426666D01*
X65136666Y-105460000D01*
X65103333Y-105493333D01*
X65070000Y-105560000D01*
X65070000Y-105660000D01*
X65103333Y-105726666D01*
X65136666Y-105760000D01*
X65203333Y-105793333D01*
X65470000Y-105793333D01*
X64870000Y-105426666D02*
X64470000Y-105426666D01*
X64670000Y-106126666D02*
X64670000Y-105426666D01*
X63736666Y-105393333D02*
X64336666Y-106293333D01*
X63503333Y-106126666D02*
X63503333Y-105426666D01*
X63236666Y-105426666D01*
X63170000Y-105460000D01*
X63136666Y-105493333D01*
X63103333Y-105560000D01*
X63103333Y-105660000D01*
X63136666Y-105726666D01*
X63170000Y-105760000D01*
X63236666Y-105793333D01*
X63503333Y-105793333D01*
X62436666Y-105460000D02*
X62503333Y-105426666D01*
X62603333Y-105426666D01*
X62703333Y-105460000D01*
X62770000Y-105526666D01*
X62803333Y-105593333D01*
X62836666Y-105726666D01*
X62836666Y-105826666D01*
X62803333Y-105960000D01*
X62770000Y-106026666D01*
X62703333Y-106093333D01*
X62603333Y-106126666D01*
X62536666Y-106126666D01*
X62436666Y-106093333D01*
X62403333Y-106060000D01*
X62403333Y-105826666D01*
X62536666Y-105826666D01*
X62103333Y-106126666D02*
X62103333Y-105426666D01*
X61870000Y-105926666D01*
X61636666Y-105426666D01*
X61636666Y-106126666D01*
X83383333Y-106296666D02*
X83383333Y-105596666D01*
X83116666Y-105596666D01*
X83050000Y-105630000D01*
X83016666Y-105663333D01*
X82983333Y-105730000D01*
X82983333Y-105830000D01*
X83016666Y-105896666D01*
X83050000Y-105930000D01*
X83116666Y-105963333D01*
X83383333Y-105963333D01*
X82583333Y-106296666D02*
X82650000Y-106263333D01*
X82683333Y-106230000D01*
X82716666Y-106163333D01*
X82716666Y-105963333D01*
X82683333Y-105896666D01*
X82650000Y-105863333D01*
X82583333Y-105830000D01*
X82483333Y-105830000D01*
X82416666Y-105863333D01*
X82383333Y-105896666D01*
X82350000Y-105963333D01*
X82350000Y-106163333D01*
X82383333Y-106230000D01*
X82416666Y-106263333D01*
X82483333Y-106296666D01*
X82583333Y-106296666D01*
X82116666Y-105830000D02*
X81983333Y-106296666D01*
X81850000Y-105963333D01*
X81716666Y-106296666D01*
X81583333Y-105830000D01*
X81050000Y-106263333D02*
X81116666Y-106296666D01*
X81250000Y-106296666D01*
X81316666Y-106263333D01*
X81350000Y-106196666D01*
X81350000Y-105930000D01*
X81316666Y-105863333D01*
X81250000Y-105830000D01*
X81116666Y-105830000D01*
X81050000Y-105863333D01*
X81016666Y-105930000D01*
X81016666Y-105996666D01*
X81350000Y-106063333D01*
X80716666Y-106296666D02*
X80716666Y-105830000D01*
X80716666Y-105963333D02*
X80683333Y-105896666D01*
X80650000Y-105863333D01*
X80583333Y-105830000D01*
X80516666Y-105830000D01*
D12*
X99176666Y-92153333D02*
X98476666Y-92153333D01*
X98476666Y-92420000D01*
X98510000Y-92486666D01*
X98543333Y-92520000D01*
X98610000Y-92553333D01*
X98710000Y-92553333D01*
X98776666Y-92520000D01*
X98810000Y-92486666D01*
X98843333Y-92420000D01*
X98843333Y-92153333D01*
X99143333Y-92820000D02*
X99176666Y-92920000D01*
X99176666Y-93086666D01*
X99143333Y-93153333D01*
X99110000Y-93186666D01*
X99043333Y-93220000D01*
X98976666Y-93220000D01*
X98910000Y-93186666D01*
X98876666Y-93153333D01*
X98843333Y-93086666D01*
X98810000Y-92953333D01*
X98776666Y-92886666D01*
X98743333Y-92853333D01*
X98676666Y-92820000D01*
X98610000Y-92820000D01*
X98543333Y-92853333D01*
X98510000Y-92886666D01*
X98476666Y-92953333D01*
X98476666Y-93120000D01*
X98510000Y-93220000D01*
X98443333Y-94020000D02*
X99343333Y-93420000D01*
X98543333Y-94220000D02*
X98510000Y-94253333D01*
X98476666Y-94320000D01*
X98476666Y-94486666D01*
X98510000Y-94553333D01*
X98543333Y-94586666D01*
X98610000Y-94620000D01*
X98676666Y-94620000D01*
X98776666Y-94586666D01*
X99176666Y-94186666D01*
X99176666Y-94620000D01*
D11*
X89503333Y-106056666D02*
X89170000Y-106056666D01*
X89570000Y-106256666D02*
X89336666Y-105556666D01*
X89103333Y-106256666D01*
X88570000Y-106223333D02*
X88636666Y-106256666D01*
X88770000Y-106256666D01*
X88836666Y-106223333D01*
X88870000Y-106190000D01*
X88903333Y-106123333D01*
X88903333Y-105923333D01*
X88870000Y-105856666D01*
X88836666Y-105823333D01*
X88770000Y-105790000D01*
X88636666Y-105790000D01*
X88570000Y-105823333D01*
X88370000Y-105790000D02*
X88103333Y-105790000D01*
X88270000Y-105556666D02*
X88270000Y-106156666D01*
X88236666Y-106223333D01*
X88170000Y-106256666D01*
X88103333Y-106256666D01*
X87870000Y-106256666D02*
X87870000Y-105790000D01*
X87870000Y-105556666D02*
X87903333Y-105590000D01*
X87870000Y-105623333D01*
X87836666Y-105590000D01*
X87870000Y-105556666D01*
X87870000Y-105623333D01*
X87603333Y-105790000D02*
X87436666Y-106256666D01*
X87270000Y-105790000D01*
X87003333Y-106256666D02*
X87003333Y-105790000D01*
X87003333Y-105556666D02*
X87036666Y-105590000D01*
X87003333Y-105623333D01*
X86970000Y-105590000D01*
X87003333Y-105556666D01*
X87003333Y-105623333D01*
X86770000Y-105790000D02*
X86503333Y-105790000D01*
X86670000Y-105556666D02*
X86670000Y-106156666D01*
X86636666Y-106223333D01*
X86570000Y-106256666D01*
X86503333Y-106256666D01*
X86336666Y-105790000D02*
X86170000Y-106256666D01*
X86003333Y-105790000D02*
X86170000Y-106256666D01*
X86236666Y-106423333D01*
X86270000Y-106456666D01*
X86336666Y-106490000D01*
D12*
X76853333Y-94063166D02*
X77086666Y-93729833D01*
X77253333Y-94063166D02*
X77253333Y-93363166D01*
X76986666Y-93363166D01*
X76920000Y-93396500D01*
X76886666Y-93429833D01*
X76853333Y-93496500D01*
X76853333Y-93596500D01*
X76886666Y-93663166D01*
X76920000Y-93696500D01*
X76986666Y-93729833D01*
X77253333Y-93729833D01*
X76286666Y-94029833D02*
X76353333Y-94063166D01*
X76486666Y-94063166D01*
X76553333Y-94029833D01*
X76586666Y-93963166D01*
X76586666Y-93696500D01*
X76553333Y-93629833D01*
X76486666Y-93596500D01*
X76353333Y-93596500D01*
X76286666Y-93629833D01*
X76253333Y-93696500D01*
X76253333Y-93763166D01*
X76586666Y-93829833D01*
X75953333Y-93596500D02*
X75953333Y-94063166D01*
X75953333Y-93663166D02*
X75920000Y-93629833D01*
X75853333Y-93596500D01*
X75753333Y-93596500D01*
X75686666Y-93629833D01*
X75653333Y-93696500D01*
X75653333Y-94063166D01*
X75053333Y-94029833D02*
X75120000Y-94063166D01*
X75253333Y-94063166D01*
X75320000Y-94029833D01*
X75353333Y-93963166D01*
X75353333Y-93696500D01*
X75320000Y-93629833D01*
X75253333Y-93596500D01*
X75120000Y-93596500D01*
X75053333Y-93629833D01*
X75020000Y-93696500D01*
X75020000Y-93763166D01*
X75353333Y-93829833D01*
X74753333Y-94029833D02*
X74686666Y-94063166D01*
X74553333Y-94063166D01*
X74486666Y-94029833D01*
X74453333Y-93963166D01*
X74453333Y-93929833D01*
X74486666Y-93863166D01*
X74553333Y-93829833D01*
X74653333Y-93829833D01*
X74720000Y-93796500D01*
X74753333Y-93729833D01*
X74753333Y-93696500D01*
X74720000Y-93629833D01*
X74653333Y-93596500D01*
X74553333Y-93596500D01*
X74486666Y-93629833D01*
X73853333Y-94063166D02*
X73853333Y-93696500D01*
X73886666Y-93629833D01*
X73953333Y-93596500D01*
X74086666Y-93596500D01*
X74153333Y-93629833D01*
X73853333Y-94029833D02*
X73920000Y-94063166D01*
X74086666Y-94063166D01*
X74153333Y-94029833D01*
X74186666Y-93963166D01*
X74186666Y-93896500D01*
X74153333Y-93829833D01*
X74086666Y-93796500D01*
X73920000Y-93796500D01*
X73853333Y-93763166D01*
X73553333Y-94029833D02*
X73486666Y-94063166D01*
X73353333Y-94063166D01*
X73286666Y-94029833D01*
X73253333Y-93963166D01*
X73253333Y-93929833D01*
X73286666Y-93863166D01*
X73353333Y-93829833D01*
X73453333Y-93829833D01*
X73520000Y-93796500D01*
X73553333Y-93729833D01*
X73553333Y-93696500D01*
X73520000Y-93629833D01*
X73453333Y-93596500D01*
X73353333Y-93596500D01*
X73286666Y-93629833D01*
X77070000Y-95190166D02*
X77303333Y-94856833D01*
X77470000Y-95190166D02*
X77470000Y-94490166D01*
X77203333Y-94490166D01*
X77136666Y-94523500D01*
X77103333Y-94556833D01*
X77070000Y-94623500D01*
X77070000Y-94723500D01*
X77103333Y-94790166D01*
X77136666Y-94823500D01*
X77203333Y-94856833D01*
X77470000Y-94856833D01*
X76670000Y-94790166D02*
X76736666Y-94756833D01*
X76770000Y-94723500D01*
X76803333Y-94656833D01*
X76803333Y-94623500D01*
X76770000Y-94556833D01*
X76736666Y-94523500D01*
X76670000Y-94490166D01*
X76536666Y-94490166D01*
X76470000Y-94523500D01*
X76436666Y-94556833D01*
X76403333Y-94623500D01*
X76403333Y-94656833D01*
X76436666Y-94723500D01*
X76470000Y-94756833D01*
X76536666Y-94790166D01*
X76670000Y-94790166D01*
X76736666Y-94823500D01*
X76770000Y-94856833D01*
X76803333Y-94923500D01*
X76803333Y-95056833D01*
X76770000Y-95123500D01*
X76736666Y-95156833D01*
X76670000Y-95190166D01*
X76536666Y-95190166D01*
X76470000Y-95156833D01*
X76436666Y-95123500D01*
X76403333Y-95056833D01*
X76403333Y-94923500D01*
X76436666Y-94856833D01*
X76470000Y-94823500D01*
X76536666Y-94790166D01*
X75703333Y-95123500D02*
X75736666Y-95156833D01*
X75836666Y-95190166D01*
X75903333Y-95190166D01*
X76003333Y-95156833D01*
X76070000Y-95090166D01*
X76103333Y-95023500D01*
X76136666Y-94890166D01*
X76136666Y-94790166D01*
X76103333Y-94656833D01*
X76070000Y-94590166D01*
X76003333Y-94523500D01*
X75903333Y-94490166D01*
X75836666Y-94490166D01*
X75736666Y-94523500D01*
X75703333Y-94556833D01*
X74470000Y-95123500D02*
X74503333Y-95156833D01*
X74603333Y-95190166D01*
X74670000Y-95190166D01*
X74770000Y-95156833D01*
X74836666Y-95090166D01*
X74870000Y-95023500D01*
X74903333Y-94890166D01*
X74903333Y-94790166D01*
X74870000Y-94656833D01*
X74836666Y-94590166D01*
X74770000Y-94523500D01*
X74670000Y-94490166D01*
X74603333Y-94490166D01*
X74503333Y-94523500D01*
X74470000Y-94556833D01*
X74170000Y-95190166D02*
X74170000Y-94490166D01*
X73903333Y-94490166D01*
X73836666Y-94523500D01*
X73803333Y-94556833D01*
X73770000Y-94623500D01*
X73770000Y-94723500D01*
X73803333Y-94790166D01*
X73836666Y-94823500D01*
X73903333Y-94856833D01*
X74170000Y-94856833D01*
X73470000Y-94490166D02*
X73470000Y-95056833D01*
X73436666Y-95123500D01*
X73403333Y-95156833D01*
X73336666Y-95190166D01*
X73203333Y-95190166D01*
X73136666Y-95156833D01*
X73103333Y-95123500D01*
X73070000Y-95056833D01*
X73070000Y-94490166D01*
X66360000Y-82066666D02*
X66360000Y-81366666D01*
X66060000Y-82066666D02*
X66060000Y-81700000D01*
X66093333Y-81633333D01*
X66160000Y-81600000D01*
X66260000Y-81600000D01*
X66326666Y-81633333D01*
X66360000Y-81666666D01*
X65826666Y-81600000D02*
X65560000Y-81600000D01*
X65726666Y-81366666D02*
X65726666Y-81966666D01*
X65693333Y-82033333D01*
X65626666Y-82066666D01*
X65560000Y-82066666D01*
X65426666Y-81600000D02*
X65160000Y-81600000D01*
X65326666Y-81366666D02*
X65326666Y-81966666D01*
X65293333Y-82033333D01*
X65226666Y-82066666D01*
X65160000Y-82066666D01*
X64926666Y-81600000D02*
X64926666Y-82300000D01*
X64926666Y-81633333D02*
X64860000Y-81600000D01*
X64726666Y-81600000D01*
X64660000Y-81633333D01*
X64626666Y-81666666D01*
X64593333Y-81733333D01*
X64593333Y-81933333D01*
X64626666Y-82000000D01*
X64660000Y-82033333D01*
X64726666Y-82066666D01*
X64860000Y-82066666D01*
X64926666Y-82033333D01*
X64326666Y-82033333D02*
X64260000Y-82066666D01*
X64126666Y-82066666D01*
X64060000Y-82033333D01*
X64026666Y-81966666D01*
X64026666Y-81933333D01*
X64060000Y-81866666D01*
X64126666Y-81833333D01*
X64226666Y-81833333D01*
X64293333Y-81800000D01*
X64326666Y-81733333D01*
X64326666Y-81700000D01*
X64293333Y-81633333D01*
X64226666Y-81600000D01*
X64126666Y-81600000D01*
X64060000Y-81633333D01*
X63726666Y-82000000D02*
X63693333Y-82033333D01*
X63726666Y-82066666D01*
X63760000Y-82033333D01*
X63726666Y-82000000D01*
X63726666Y-82066666D01*
X63726666Y-81633333D02*
X63693333Y-81666666D01*
X63726666Y-81700000D01*
X63760000Y-81666666D01*
X63726666Y-81633333D01*
X63726666Y-81700000D01*
X62893333Y-81333333D02*
X63493333Y-82233333D01*
X62160000Y-81333333D02*
X62760000Y-82233333D01*
X61660000Y-82033333D02*
X61726666Y-82066666D01*
X61860000Y-82066666D01*
X61926666Y-82033333D01*
X61960000Y-81966666D01*
X61960000Y-81700000D01*
X61926666Y-81633333D01*
X61860000Y-81600000D01*
X61726666Y-81600000D01*
X61660000Y-81633333D01*
X61626666Y-81700000D01*
X61626666Y-81766666D01*
X61960000Y-81833333D01*
X61026666Y-82066666D02*
X61026666Y-81700000D01*
X61060000Y-81633333D01*
X61126666Y-81600000D01*
X61260000Y-81600000D01*
X61326666Y-81633333D01*
X61026666Y-82033333D02*
X61093333Y-82066666D01*
X61260000Y-82066666D01*
X61326666Y-82033333D01*
X61360000Y-81966666D01*
X61360000Y-81900000D01*
X61326666Y-81833333D01*
X61260000Y-81800000D01*
X61093333Y-81800000D01*
X61026666Y-81766666D01*
X60760000Y-81600000D02*
X60626666Y-82066666D01*
X60493333Y-81733333D01*
X60360000Y-82066666D01*
X60226666Y-81600000D01*
X59960000Y-82000000D02*
X59926666Y-82033333D01*
X59960000Y-82066666D01*
X59993333Y-82033333D01*
X59960000Y-82000000D01*
X59960000Y-82066666D01*
X59326666Y-82066666D02*
X59326666Y-81700000D01*
X59360000Y-81633333D01*
X59426666Y-81600000D01*
X59560000Y-81600000D01*
X59626666Y-81633333D01*
X59326666Y-82033333D02*
X59393333Y-82066666D01*
X59560000Y-82066666D01*
X59626666Y-82033333D01*
X59660000Y-81966666D01*
X59660000Y-81900000D01*
X59626666Y-81833333D01*
X59560000Y-81800000D01*
X59393333Y-81800000D01*
X59326666Y-81766666D01*
X58993333Y-81600000D02*
X58993333Y-82300000D01*
X58993333Y-81633333D02*
X58926666Y-81600000D01*
X58793333Y-81600000D01*
X58726666Y-81633333D01*
X58693333Y-81666666D01*
X58660000Y-81733333D01*
X58660000Y-81933333D01*
X58693333Y-82000000D01*
X58726666Y-82033333D01*
X58793333Y-82066666D01*
X58926666Y-82066666D01*
X58993333Y-82033333D01*
X58360000Y-81600000D02*
X58360000Y-82300000D01*
X58360000Y-81633333D02*
X58293333Y-81600000D01*
X58160000Y-81600000D01*
X58093333Y-81633333D01*
X58060000Y-81666666D01*
X58026666Y-81733333D01*
X58026666Y-81933333D01*
X58060000Y-82000000D01*
X58093333Y-82033333D01*
X58160000Y-82066666D01*
X58293333Y-82066666D01*
X58360000Y-82033333D01*
D11*
X64160000Y-91371428D02*
X64160000Y-91800000D01*
X64188571Y-91885714D01*
X64245714Y-91942857D01*
X64331428Y-91971428D01*
X64388571Y-91971428D01*
X63617142Y-91571428D02*
X63617142Y-91971428D01*
X63760000Y-91342857D02*
X63902857Y-91771428D01*
X63531428Y-91771428D01*
D12*
X82023333Y-82426666D02*
X82023333Y-82926666D01*
X82056666Y-83026666D01*
X82123333Y-83093333D01*
X82223333Y-83126666D01*
X82290000Y-83126666D01*
X81690000Y-83126666D02*
X81690000Y-82426666D01*
X81423333Y-82426666D01*
X81356666Y-82460000D01*
X81323333Y-82493333D01*
X81290000Y-82560000D01*
X81290000Y-82660000D01*
X81323333Y-82726666D01*
X81356666Y-82760000D01*
X81423333Y-82793333D01*
X81690000Y-82793333D01*
X81023333Y-82493333D02*
X80990000Y-82460000D01*
X80923333Y-82426666D01*
X80756666Y-82426666D01*
X80690000Y-82460000D01*
X80656666Y-82493333D01*
X80623333Y-82560000D01*
X80623333Y-82626666D01*
X80656666Y-82726666D01*
X81056666Y-83126666D01*
X80623333Y-83126666D01*
X85773333Y-82376666D02*
X85773333Y-82876666D01*
X85806666Y-82976666D01*
X85873333Y-83043333D01*
X85973333Y-83076666D01*
X86040000Y-83076666D01*
X85440000Y-83076666D02*
X85440000Y-82376666D01*
X85173333Y-82376666D01*
X85106666Y-82410000D01*
X85073333Y-82443333D01*
X85040000Y-82510000D01*
X85040000Y-82610000D01*
X85073333Y-82676666D01*
X85106666Y-82710000D01*
X85173333Y-82743333D01*
X85440000Y-82743333D01*
X84806666Y-82376666D02*
X84373333Y-82376666D01*
X84606666Y-82643333D01*
X84506666Y-82643333D01*
X84440000Y-82676666D01*
X84406666Y-82710000D01*
X84373333Y-82776666D01*
X84373333Y-82943333D01*
X84406666Y-83010000D01*
X84440000Y-83043333D01*
X84506666Y-83076666D01*
X84706666Y-83076666D01*
X84773333Y-83043333D01*
X84806666Y-83010000D01*
D11*
X76820000Y-83201428D02*
X76820000Y-83630000D01*
X76848571Y-83715714D01*
X76905714Y-83772857D01*
X76991428Y-83801428D01*
X77048571Y-83801428D01*
X76534285Y-83801428D02*
X76534285Y-83201428D01*
X76305714Y-83201428D01*
X76248571Y-83230000D01*
X76220000Y-83258571D01*
X76191428Y-83315714D01*
X76191428Y-83401428D01*
X76220000Y-83458571D01*
X76248571Y-83487142D01*
X76305714Y-83515714D01*
X76534285Y-83515714D01*
X75620000Y-83801428D02*
X75962857Y-83801428D01*
X75791428Y-83801428D02*
X75791428Y-83201428D01*
X75848571Y-83287142D01*
X75905714Y-83344285D01*
X75962857Y-83372857D01*
X55550000Y-89201428D02*
X55550000Y-89630000D01*
X55578571Y-89715714D01*
X55635714Y-89772857D01*
X55721428Y-89801428D01*
X55778571Y-89801428D01*
X55292857Y-89258571D02*
X55264285Y-89230000D01*
X55207142Y-89201428D01*
X55064285Y-89201428D01*
X55007142Y-89230000D01*
X54978571Y-89258571D01*
X54950000Y-89315714D01*
X54950000Y-89372857D01*
X54978571Y-89458571D01*
X55321428Y-89801428D01*
X54950000Y-89801428D01*
D13*
X69536711Y-80782326D02*
X69459057Y-80970780D01*
X69459057Y-80970780D02*
X69463862Y-81105354D01*
X69463862Y-81105354D02*
X69469716Y-81243532D01*
X69469716Y-81243532D02*
X69437802Y-81474102D01*
X69437802Y-81474102D02*
X69380397Y-81746503D01*
X69380397Y-81746503D02*
X69309776Y-82010174D01*
X69309776Y-82010174D02*
X69238216Y-82214552D01*
X69238216Y-82214552D02*
X69177992Y-82309078D01*
X69177992Y-82309078D02*
X69171223Y-82310667D01*
X69171223Y-82310667D02*
X69042726Y-82240289D01*
X69042726Y-82240289D02*
X68921329Y-82077325D01*
X68921329Y-82077325D02*
X68866195Y-81929667D01*
X68866195Y-81929667D02*
X68493333Y-81929667D01*
X68493333Y-81929667D02*
X68451000Y-81972000D01*
X68451000Y-81972000D02*
X68408666Y-81929667D01*
X68408666Y-81929667D02*
X68451000Y-81887334D01*
X68451000Y-81887334D02*
X68493333Y-81929667D01*
X68493333Y-81929667D02*
X68866195Y-81929667D01*
X68866195Y-81929667D02*
X68852886Y-81894025D01*
X68852886Y-81894025D02*
X68854281Y-81811273D01*
X68854281Y-81811273D02*
X68844383Y-81718000D01*
X68844383Y-81718000D02*
X68662666Y-81718000D01*
X68662666Y-81718000D02*
X68633780Y-81800466D01*
X68633780Y-81800466D02*
X68625330Y-81802667D01*
X68625330Y-81802667D02*
X68553044Y-81743338D01*
X68553044Y-81743338D02*
X68535666Y-81718000D01*
X68535666Y-81718000D02*
X68540862Y-81657603D01*
X68540862Y-81657603D02*
X68310352Y-81657603D01*
X68310352Y-81657603D02*
X68289751Y-81704918D01*
X68289751Y-81704918D02*
X68204501Y-81795812D01*
X68204501Y-81795812D02*
X68155491Y-81777166D01*
X68155491Y-81777166D02*
X68154666Y-81765330D01*
X68154666Y-81765330D02*
X68214803Y-81693718D01*
X68214803Y-81693718D02*
X68252415Y-81667582D01*
X68252415Y-81667582D02*
X68310352Y-81657603D01*
X68310352Y-81657603D02*
X68540862Y-81657603D01*
X68540862Y-81657603D02*
X68542379Y-81639981D01*
X68542379Y-81639981D02*
X68573003Y-81633334D01*
X68573003Y-81633334D02*
X68659221Y-81694794D01*
X68659221Y-81694794D02*
X68662666Y-81718000D01*
X68662666Y-81718000D02*
X68844383Y-81718000D01*
X68844383Y-81718000D02*
X68834356Y-81623520D01*
X68834356Y-81623520D02*
X68715635Y-81451847D01*
X68715635Y-81451847D02*
X68548962Y-81351099D01*
X68548962Y-81351099D02*
X68429227Y-81352759D01*
X68429227Y-81352759D02*
X68169830Y-81498162D01*
X68169830Y-81498162D02*
X68054178Y-81684449D01*
X68054178Y-81684449D02*
X68091064Y-81885944D01*
X68091064Y-81885944D02*
X68202692Y-82014334D01*
X68202692Y-82014334D02*
X68272648Y-82143931D01*
X68272648Y-82143931D02*
X68334223Y-82375103D01*
X68334223Y-82375103D02*
X68354574Y-82501808D01*
X68354574Y-82501808D02*
X68419744Y-82802464D01*
X68419744Y-82802464D02*
X68524029Y-83070829D01*
X68524029Y-83070829D02*
X68645147Y-83260788D01*
X68645147Y-83260788D02*
X68753133Y-83326667D01*
X68753133Y-83326667D02*
X68764120Y-83389525D01*
X68764120Y-83389525D02*
X68698861Y-83543944D01*
X68698861Y-83543944D02*
X68681485Y-83575201D01*
X68681485Y-83575201D02*
X68613794Y-83746176D01*
X68613794Y-83746176D02*
X68606788Y-83878144D01*
X68606788Y-83878144D02*
X68649640Y-83930964D01*
X68649640Y-83930964D02*
X68731525Y-83864498D01*
X68731525Y-83864498D02*
X68751271Y-83833962D01*
X68751271Y-83833962D02*
X68889842Y-83612796D01*
X68889842Y-83612796D02*
X68976526Y-83513710D01*
X68976526Y-83513710D02*
X69042064Y-83510982D01*
X69042064Y-83510982D02*
X69089851Y-83550652D01*
X69089851Y-83550652D02*
X69139078Y-83655320D01*
X69139078Y-83655320D02*
X69093377Y-83703107D01*
X69093377Y-83703107D02*
X69022767Y-83810489D01*
X69022767Y-83810489D02*
X69003560Y-83960789D01*
X69003560Y-83960789D02*
X69039373Y-84072584D01*
X69039373Y-84072584D02*
X69076262Y-84088667D01*
X69076262Y-84088667D02*
X69171467Y-84024953D01*
X69171467Y-84024953D02*
X69289881Y-83877000D01*
X69289881Y-83877000D02*
X69422394Y-83732472D01*
X69422394Y-83732472D02*
X69554153Y-83665741D01*
X69554153Y-83665741D02*
X69641843Y-83684755D01*
X69641843Y-83684755D02*
X69642145Y-83797462D01*
X69642145Y-83797462D02*
X69635986Y-83813500D01*
X69635986Y-83813500D02*
X69567278Y-84067595D01*
X69567278Y-84067595D02*
X69611288Y-84211367D01*
X69611288Y-84211367D02*
X69645906Y-84230912D01*
X69645906Y-84230912D02*
X69739063Y-84185438D01*
X69739063Y-84185438D02*
X69837227Y-84029604D01*
X69837227Y-84029604D02*
X69843121Y-84015778D01*
X69843121Y-84015778D02*
X69951474Y-83850919D01*
X69951474Y-83850919D02*
X70092758Y-83741874D01*
X70092758Y-83741874D02*
X70225274Y-83702116D01*
X70225274Y-83702116D02*
X70307321Y-83745117D01*
X70307321Y-83745117D02*
X70303085Y-83867172D01*
X70303085Y-83867172D02*
X70243244Y-84130363D01*
X70243244Y-84130363D02*
X70276925Y-84275537D01*
X70276925Y-84275537D02*
X70365706Y-84322257D01*
X70365706Y-84322257D02*
X70466508Y-84293155D01*
X70466508Y-84293155D02*
X70532810Y-84135719D01*
X70532810Y-84135719D02*
X70556266Y-84013882D01*
X70556266Y-84013882D02*
X70615255Y-83782339D01*
X70615255Y-83782339D02*
X70714047Y-83674145D01*
X70714047Y-83674145D02*
X70800560Y-83650048D01*
X70800560Y-83650048D02*
X70923689Y-83604967D01*
X70923689Y-83604967D02*
X70987763Y-83483995D01*
X70987763Y-83483995D02*
X71017737Y-83248791D01*
X71017737Y-83248791D02*
X71023021Y-82965785D01*
X71023021Y-82965785D02*
X71003297Y-82721036D01*
X71003297Y-82721036D02*
X70993231Y-82670414D01*
X70993231Y-82670414D02*
X70962443Y-82592889D01*
X70962443Y-82592889D02*
X69650444Y-82592889D01*
X69650444Y-82592889D02*
X69638822Y-82643223D01*
X69638822Y-82643223D02*
X69594000Y-82649334D01*
X69594000Y-82649334D02*
X69524310Y-82618355D01*
X69524310Y-82618355D02*
X69537555Y-82592889D01*
X69537555Y-82592889D02*
X69638035Y-82582756D01*
X69638035Y-82582756D02*
X69650444Y-82592889D01*
X69650444Y-82592889D02*
X70962443Y-82592889D01*
X70962443Y-82592889D02*
X70941404Y-82539914D01*
X70941404Y-82539914D02*
X70839755Y-82496846D01*
X70839755Y-82496846D02*
X70632184Y-82518596D01*
X70632184Y-82518596D02*
X70621169Y-82520446D01*
X70621169Y-82520446D02*
X70349246Y-82533143D01*
X70349246Y-82533143D02*
X70300053Y-82508222D01*
X70300053Y-82508222D02*
X69396444Y-82508222D01*
X69396444Y-82508222D02*
X69384822Y-82558557D01*
X69384822Y-82558557D02*
X69340000Y-82564667D01*
X69340000Y-82564667D02*
X69270310Y-82533689D01*
X69270310Y-82533689D02*
X69283555Y-82508222D01*
X69283555Y-82508222D02*
X69384035Y-82498089D01*
X69384035Y-82498089D02*
X69396444Y-82508222D01*
X69396444Y-82508222D02*
X70300053Y-82508222D01*
X70300053Y-82508222D02*
X70234251Y-82474887D01*
X70234251Y-82474887D02*
X69024603Y-82474887D01*
X69024603Y-82474887D02*
X68916168Y-82442951D01*
X68916168Y-82442951D02*
X68735546Y-82317955D01*
X68735546Y-82317955D02*
X68615132Y-82186305D01*
X68615132Y-82186305D02*
X68599841Y-82091671D01*
X68599841Y-82091671D02*
X68601732Y-82089611D01*
X68601732Y-82089611D02*
X68696826Y-82100209D01*
X68696826Y-82100209D02*
X68850971Y-82208962D01*
X68850971Y-82208962D02*
X68896141Y-82251657D01*
X68896141Y-82251657D02*
X69024528Y-82408398D01*
X69024528Y-82408398D02*
X69024603Y-82474887D01*
X69024603Y-82474887D02*
X70234251Y-82474887D01*
X70234251Y-82474887D02*
X70212412Y-82463824D01*
X70212412Y-82463824D02*
X70127661Y-82310667D01*
X70127661Y-82310667D02*
X69763333Y-82310667D01*
X69763333Y-82310667D02*
X69698904Y-82392873D01*
X69698904Y-82392873D02*
X69678666Y-82395334D01*
X69678666Y-82395334D02*
X69596460Y-82330904D01*
X69596460Y-82330904D02*
X69594000Y-82310667D01*
X69594000Y-82310667D02*
X69658429Y-82228460D01*
X69658429Y-82228460D02*
X69678666Y-82226000D01*
X69678666Y-82226000D02*
X69760873Y-82290429D01*
X69760873Y-82290429D02*
X69763333Y-82310667D01*
X69763333Y-82310667D02*
X70127661Y-82310667D01*
X70127661Y-82310667D02*
X70116919Y-82291255D01*
X70116919Y-82291255D02*
X70091219Y-82226000D01*
X70091219Y-82226000D02*
X69932666Y-82226000D01*
X69932666Y-82226000D02*
X69901688Y-82295690D01*
X69901688Y-82295690D02*
X69876222Y-82282445D01*
X69876222Y-82282445D02*
X69866089Y-82181965D01*
X69866089Y-82181965D02*
X69876222Y-82169556D01*
X69876222Y-82169556D02*
X69926556Y-82181178D01*
X69926556Y-82181178D02*
X69932666Y-82226000D01*
X69932666Y-82226000D02*
X70091219Y-82226000D01*
X70091219Y-82226000D02*
X70041200Y-82099000D01*
X70041200Y-82099000D02*
X69678666Y-82099000D01*
X69678666Y-82099000D02*
X69636333Y-82141334D01*
X69636333Y-82141334D02*
X69594000Y-82099000D01*
X69594000Y-82099000D02*
X69636333Y-82056667D01*
X69636333Y-82056667D02*
X69678666Y-82099000D01*
X69678666Y-82099000D02*
X70041200Y-82099000D01*
X70041200Y-82099000D02*
X70011894Y-82024592D01*
X70011894Y-82024592D02*
X70008608Y-82014334D01*
X70008608Y-82014334D02*
X69509333Y-82014334D01*
X69509333Y-82014334D02*
X69467000Y-82056667D01*
X69467000Y-82056667D02*
X69424666Y-82014334D01*
X69424666Y-82014334D02*
X69467000Y-81972000D01*
X69467000Y-81972000D02*
X69509333Y-82014334D01*
X69509333Y-82014334D02*
X70008608Y-82014334D01*
X70008608Y-82014334D02*
X69967916Y-81887334D01*
X69967916Y-81887334D02*
X69678666Y-81887334D01*
X69678666Y-81887334D02*
X69647688Y-81957024D01*
X69647688Y-81957024D02*
X69622222Y-81943778D01*
X69622222Y-81943778D02*
X69612089Y-81843298D01*
X69612089Y-81843298D02*
X69622222Y-81830889D01*
X69622222Y-81830889D02*
X69672556Y-81842511D01*
X69672556Y-81842511D02*
X69678666Y-81887334D01*
X69678666Y-81887334D02*
X69967916Y-81887334D01*
X69967916Y-81887334D02*
X69913639Y-81717938D01*
X69913639Y-81717938D02*
X69838454Y-81425400D01*
X69838454Y-81425400D02*
X69802643Y-81201080D01*
X69802643Y-81201080D02*
X69807437Y-81119756D01*
X69807437Y-81119756D02*
X69808878Y-80923074D01*
X69808878Y-80923074D02*
X69760620Y-80781597D01*
X69760620Y-80781597D02*
X69663859Y-80600798D01*
X69663859Y-80600798D02*
X69536711Y-80782326D01*
X69536711Y-80782326D02*
X69536711Y-80782326D01*
G36*
X69042726Y-82240289D02*
G01*
X69171223Y-82310667D01*
X69594000Y-82310667D01*
X69596460Y-82330904D01*
X69678666Y-82395334D01*
X69698904Y-82392873D01*
X69763333Y-82310667D01*
X69760873Y-82290429D01*
X69678666Y-82226000D01*
X69658429Y-82228460D01*
X69594000Y-82310667D01*
X69171223Y-82310667D01*
X69177992Y-82309078D01*
X69238216Y-82214552D01*
X69249626Y-82181965D01*
X69866089Y-82181965D01*
X69876222Y-82282445D01*
X69901688Y-82295690D01*
X69932666Y-82226000D01*
X69926556Y-82181178D01*
X69876222Y-82169556D01*
X69866089Y-82181965D01*
X69249626Y-82181965D01*
X69278675Y-82099000D01*
X69594000Y-82099000D01*
X69636333Y-82141334D01*
X69678666Y-82099000D01*
X69636333Y-82056667D01*
X69594000Y-82099000D01*
X69278675Y-82099000D01*
X69308319Y-82014334D01*
X69424666Y-82014334D01*
X69467000Y-82056667D01*
X69509333Y-82014334D01*
X69467000Y-81972000D01*
X69424666Y-82014334D01*
X69308319Y-82014334D01*
X69309776Y-82010174D01*
X69354472Y-81843298D01*
X69612089Y-81843298D01*
X69622222Y-81943778D01*
X69647688Y-81957024D01*
X69678666Y-81887334D01*
X69672556Y-81842511D01*
X69622222Y-81830889D01*
X69612089Y-81843298D01*
X69354472Y-81843298D01*
X69380397Y-81746503D01*
X69437802Y-81474102D01*
X69469716Y-81243532D01*
X69463862Y-81105354D01*
X69459057Y-80970780D01*
X69536711Y-80782326D01*
X69663859Y-80600798D01*
X69760620Y-80781597D01*
X69808878Y-80923074D01*
X69807437Y-81119756D01*
X69802643Y-81201080D01*
X69838454Y-81425400D01*
X69913639Y-81717938D01*
X69967916Y-81887334D01*
X70008608Y-82014334D01*
X70011894Y-82024592D01*
X70041200Y-82099000D01*
X70091219Y-82226000D01*
X70116919Y-82291255D01*
X70127661Y-82310667D01*
X70212412Y-82463824D01*
X70234251Y-82474887D01*
X70300053Y-82508222D01*
X70349246Y-82533143D01*
X70621169Y-82520446D01*
X70632184Y-82518596D01*
X70839755Y-82496846D01*
X70941404Y-82539914D01*
X70962443Y-82592889D01*
X70993231Y-82670414D01*
X71003297Y-82721036D01*
X71023021Y-82965785D01*
X71017737Y-83248791D01*
X70987763Y-83483995D01*
X70923689Y-83604967D01*
X70800560Y-83650048D01*
X70714047Y-83674145D01*
X70615255Y-83782339D01*
X70556266Y-84013882D01*
X70532810Y-84135719D01*
X70466508Y-84293155D01*
X70365706Y-84322257D01*
X70276925Y-84275537D01*
X70243244Y-84130363D01*
X70303085Y-83867172D01*
X70307321Y-83745117D01*
X70225274Y-83702116D01*
X70092758Y-83741874D01*
X69951474Y-83850919D01*
X69843121Y-84015778D01*
X69837227Y-84029604D01*
X69739063Y-84185438D01*
X69645906Y-84230912D01*
X69611288Y-84211367D01*
X69567278Y-84067595D01*
X69635986Y-83813500D01*
X69642145Y-83797462D01*
X69641843Y-83684755D01*
X69554153Y-83665741D01*
X69422394Y-83732472D01*
X69289881Y-83877000D01*
X69171467Y-84024953D01*
X69076262Y-84088667D01*
X69039373Y-84072584D01*
X69003560Y-83960789D01*
X69022767Y-83810489D01*
X69093377Y-83703107D01*
X69139078Y-83655320D01*
X69089851Y-83550652D01*
X69042064Y-83510982D01*
X68976526Y-83513710D01*
X68889842Y-83612796D01*
X68751271Y-83833962D01*
X68731525Y-83864498D01*
X68649640Y-83930964D01*
X68606788Y-83878144D01*
X68613794Y-83746176D01*
X68681485Y-83575201D01*
X68698861Y-83543944D01*
X68764120Y-83389525D01*
X68753133Y-83326667D01*
X68645147Y-83260788D01*
X68524029Y-83070829D01*
X68419744Y-82802464D01*
X68379837Y-82618355D01*
X69524310Y-82618355D01*
X69594000Y-82649334D01*
X69638822Y-82643223D01*
X69650444Y-82592889D01*
X69638035Y-82582756D01*
X69537555Y-82592889D01*
X69524310Y-82618355D01*
X68379837Y-82618355D01*
X68361485Y-82533689D01*
X69270310Y-82533689D01*
X69340000Y-82564667D01*
X69384822Y-82558557D01*
X69396444Y-82508222D01*
X69384035Y-82498089D01*
X69283555Y-82508222D01*
X69270310Y-82533689D01*
X68361485Y-82533689D01*
X68354574Y-82501808D01*
X68334223Y-82375103D01*
X68272648Y-82143931D01*
X68244438Y-82091671D01*
X68599841Y-82091671D01*
X68615132Y-82186305D01*
X68735546Y-82317955D01*
X68916168Y-82442951D01*
X69024603Y-82474887D01*
X69024528Y-82408398D01*
X68896141Y-82251657D01*
X68850971Y-82208962D01*
X68696826Y-82100209D01*
X68601732Y-82089611D01*
X68599841Y-82091671D01*
X68244438Y-82091671D01*
X68202692Y-82014334D01*
X68129079Y-81929667D01*
X68408666Y-81929667D01*
X68451000Y-81972000D01*
X68493333Y-81929667D01*
X68451000Y-81887334D01*
X68408666Y-81929667D01*
X68129079Y-81929667D01*
X68091064Y-81885944D01*
X68068984Y-81765330D01*
X68154666Y-81765330D01*
X68155491Y-81777166D01*
X68204501Y-81795812D01*
X68277481Y-81718000D01*
X68535666Y-81718000D01*
X68553044Y-81743338D01*
X68625330Y-81802667D01*
X68633780Y-81800466D01*
X68662666Y-81718000D01*
X68659221Y-81694794D01*
X68573003Y-81633334D01*
X68542379Y-81639981D01*
X68540862Y-81657603D01*
X68535666Y-81718000D01*
X68277481Y-81718000D01*
X68289751Y-81704918D01*
X68310352Y-81657603D01*
X68252415Y-81667582D01*
X68214803Y-81693718D01*
X68154666Y-81765330D01*
X68068984Y-81765330D01*
X68054178Y-81684449D01*
X68169830Y-81498162D01*
X68429227Y-81352759D01*
X68548962Y-81351099D01*
X68715635Y-81451847D01*
X68834356Y-81623520D01*
X68844383Y-81718000D01*
X68854281Y-81811273D01*
X68852886Y-81894025D01*
X68866195Y-81929667D01*
X68921329Y-82077325D01*
X69042726Y-82240289D01*
G37*
X69042726Y-82240289D02*
X69171223Y-82310667D01*
X69594000Y-82310667D01*
X69596460Y-82330904D01*
X69678666Y-82395334D01*
X69698904Y-82392873D01*
X69763333Y-82310667D01*
X69760873Y-82290429D01*
X69678666Y-82226000D01*
X69658429Y-82228460D01*
X69594000Y-82310667D01*
X69171223Y-82310667D01*
X69177992Y-82309078D01*
X69238216Y-82214552D01*
X69249626Y-82181965D01*
X69866089Y-82181965D01*
X69876222Y-82282445D01*
X69901688Y-82295690D01*
X69932666Y-82226000D01*
X69926556Y-82181178D01*
X69876222Y-82169556D01*
X69866089Y-82181965D01*
X69249626Y-82181965D01*
X69278675Y-82099000D01*
X69594000Y-82099000D01*
X69636333Y-82141334D01*
X69678666Y-82099000D01*
X69636333Y-82056667D01*
X69594000Y-82099000D01*
X69278675Y-82099000D01*
X69308319Y-82014334D01*
X69424666Y-82014334D01*
X69467000Y-82056667D01*
X69509333Y-82014334D01*
X69467000Y-81972000D01*
X69424666Y-82014334D01*
X69308319Y-82014334D01*
X69309776Y-82010174D01*
X69354472Y-81843298D01*
X69612089Y-81843298D01*
X69622222Y-81943778D01*
X69647688Y-81957024D01*
X69678666Y-81887334D01*
X69672556Y-81842511D01*
X69622222Y-81830889D01*
X69612089Y-81843298D01*
X69354472Y-81843298D01*
X69380397Y-81746503D01*
X69437802Y-81474102D01*
X69469716Y-81243532D01*
X69463862Y-81105354D01*
X69459057Y-80970780D01*
X69536711Y-80782326D01*
X69663859Y-80600798D01*
X69760620Y-80781597D01*
X69808878Y-80923074D01*
X69807437Y-81119756D01*
X69802643Y-81201080D01*
X69838454Y-81425400D01*
X69913639Y-81717938D01*
X69967916Y-81887334D01*
X70008608Y-82014334D01*
X70011894Y-82024592D01*
X70041200Y-82099000D01*
X70091219Y-82226000D01*
X70116919Y-82291255D01*
X70127661Y-82310667D01*
X70212412Y-82463824D01*
X70234251Y-82474887D01*
X70300053Y-82508222D01*
X70349246Y-82533143D01*
X70621169Y-82520446D01*
X70632184Y-82518596D01*
X70839755Y-82496846D01*
X70941404Y-82539914D01*
X70962443Y-82592889D01*
X70993231Y-82670414D01*
X71003297Y-82721036D01*
X71023021Y-82965785D01*
X71017737Y-83248791D01*
X70987763Y-83483995D01*
X70923689Y-83604967D01*
X70800560Y-83650048D01*
X70714047Y-83674145D01*
X70615255Y-83782339D01*
X70556266Y-84013882D01*
X70532810Y-84135719D01*
X70466508Y-84293155D01*
X70365706Y-84322257D01*
X70276925Y-84275537D01*
X70243244Y-84130363D01*
X70303085Y-83867172D01*
X70307321Y-83745117D01*
X70225274Y-83702116D01*
X70092758Y-83741874D01*
X69951474Y-83850919D01*
X69843121Y-84015778D01*
X69837227Y-84029604D01*
X69739063Y-84185438D01*
X69645906Y-84230912D01*
X69611288Y-84211367D01*
X69567278Y-84067595D01*
X69635986Y-83813500D01*
X69642145Y-83797462D01*
X69641843Y-83684755D01*
X69554153Y-83665741D01*
X69422394Y-83732472D01*
X69289881Y-83877000D01*
X69171467Y-84024953D01*
X69076262Y-84088667D01*
X69039373Y-84072584D01*
X69003560Y-83960789D01*
X69022767Y-83810489D01*
X69093377Y-83703107D01*
X69139078Y-83655320D01*
X69089851Y-83550652D01*
X69042064Y-83510982D01*
X68976526Y-83513710D01*
X68889842Y-83612796D01*
X68751271Y-83833962D01*
X68731525Y-83864498D01*
X68649640Y-83930964D01*
X68606788Y-83878144D01*
X68613794Y-83746176D01*
X68681485Y-83575201D01*
X68698861Y-83543944D01*
X68764120Y-83389525D01*
X68753133Y-83326667D01*
X68645147Y-83260788D01*
X68524029Y-83070829D01*
X68419744Y-82802464D01*
X68379837Y-82618355D01*
X69524310Y-82618355D01*
X69594000Y-82649334D01*
X69638822Y-82643223D01*
X69650444Y-82592889D01*
X69638035Y-82582756D01*
X69537555Y-82592889D01*
X69524310Y-82618355D01*
X68379837Y-82618355D01*
X68361485Y-82533689D01*
X69270310Y-82533689D01*
X69340000Y-82564667D01*
X69384822Y-82558557D01*
X69396444Y-82508222D01*
X69384035Y-82498089D01*
X69283555Y-82508222D01*
X69270310Y-82533689D01*
X68361485Y-82533689D01*
X68354574Y-82501808D01*
X68334223Y-82375103D01*
X68272648Y-82143931D01*
X68244438Y-82091671D01*
X68599841Y-82091671D01*
X68615132Y-82186305D01*
X68735546Y-82317955D01*
X68916168Y-82442951D01*
X69024603Y-82474887D01*
X69024528Y-82408398D01*
X68896141Y-82251657D01*
X68850971Y-82208962D01*
X68696826Y-82100209D01*
X68601732Y-82089611D01*
X68599841Y-82091671D01*
X68244438Y-82091671D01*
X68202692Y-82014334D01*
X68129079Y-81929667D01*
X68408666Y-81929667D01*
X68451000Y-81972000D01*
X68493333Y-81929667D01*
X68451000Y-81887334D01*
X68408666Y-81929667D01*
X68129079Y-81929667D01*
X68091064Y-81885944D01*
X68068984Y-81765330D01*
X68154666Y-81765330D01*
X68155491Y-81777166D01*
X68204501Y-81795812D01*
X68277481Y-81718000D01*
X68535666Y-81718000D01*
X68553044Y-81743338D01*
X68625330Y-81802667D01*
X68633780Y-81800466D01*
X68662666Y-81718000D01*
X68659221Y-81694794D01*
X68573003Y-81633334D01*
X68542379Y-81639981D01*
X68540862Y-81657603D01*
X68535666Y-81718000D01*
X68277481Y-81718000D01*
X68289751Y-81704918D01*
X68310352Y-81657603D01*
X68252415Y-81667582D01*
X68214803Y-81693718D01*
X68154666Y-81765330D01*
X68068984Y-81765330D01*
X68054178Y-81684449D01*
X68169830Y-81498162D01*
X68429227Y-81352759D01*
X68548962Y-81351099D01*
X68715635Y-81451847D01*
X68834356Y-81623520D01*
X68844383Y-81718000D01*
X68854281Y-81811273D01*
X68852886Y-81894025D01*
X68866195Y-81929667D01*
X68921329Y-82077325D01*
X69042726Y-82240289D01*
X67675768Y-81079916D02*
X67692122Y-81213188D01*
X67692122Y-81213188D02*
X67698497Y-81223790D01*
X67698497Y-81223790D02*
X67748226Y-81403457D01*
X67748226Y-81403457D02*
X67745065Y-81485167D01*
X67745065Y-81485167D02*
X67768771Y-81606445D01*
X67768771Y-81606445D02*
X67879730Y-81610469D01*
X67879730Y-81610469D02*
X68048075Y-81502287D01*
X68048075Y-81502287D02*
X68133500Y-81419514D01*
X68133500Y-81419514D02*
X68286976Y-81226609D01*
X68286976Y-81226609D02*
X68297812Y-81107908D01*
X68297812Y-81107908D02*
X68160810Y-81038708D01*
X68160810Y-81038708D02*
X68048833Y-81017024D01*
X68048833Y-81017024D02*
X67800788Y-81010919D01*
X67800788Y-81010919D02*
X67675768Y-81079916D01*
X67675768Y-81079916D02*
X67675768Y-81079916D01*
G36*
X68048833Y-81017024D02*
G01*
X68160810Y-81038708D01*
X68297812Y-81107908D01*
X68286976Y-81226609D01*
X68133500Y-81419514D01*
X68048075Y-81502287D01*
X67879730Y-81610469D01*
X67768771Y-81606445D01*
X67745065Y-81485167D01*
X67748226Y-81403457D01*
X67698497Y-81223790D01*
X67692122Y-81213188D01*
X67675768Y-81079916D01*
X67800788Y-81010919D01*
X68048833Y-81017024D01*
G37*
X68048833Y-81017024D02*
X68160810Y-81038708D01*
X68297812Y-81107908D01*
X68286976Y-81226609D01*
X68133500Y-81419514D01*
X68048075Y-81502287D01*
X67879730Y-81610469D01*
X67768771Y-81606445D01*
X67745065Y-81485167D01*
X67748226Y-81403457D01*
X67698497Y-81223790D01*
X67692122Y-81213188D01*
X67675768Y-81079916D01*
X67800788Y-81010919D01*
X68048833Y-81017024D01*
D14*
X95080000Y-86315000D03*
D15*
X96287800Y-93300000D03*
D14*
X95080000Y-100285000D03*
M02*
