G04 #@! TF.GenerationSoftware,KiCad,Pcbnew,(6.0.1-0)*
G04 #@! TF.CreationDate,2022-03-09T23:32:45+00:00*
G04 #@! TF.ProjectId,x1key,78316b65-792e-46b6-9963-61645f706362,1.2*
G04 #@! TF.SameCoordinates,Original*
G04 #@! TF.FileFunction,Copper,L1,Top*
G04 #@! TF.FilePolarity,Positive*
%FSLAX46Y46*%
G04 Gerber Fmt 4.6, Leading zero omitted, Abs format (unit mm)*
G04 Created by KiCad (PCBNEW (6.0.1-0)) date 2022-03-09 23:32:45*
%MOMM*%
%LPD*%
G01*
G04 APERTURE LIST*
G04 Aperture macros list*
%AMRoundRect*
0 Rectangle with rounded corners*
0 $1 Rounding radius*
0 $2 $3 $4 $5 $6 $7 $8 $9 X,Y pos of 4 corners*
0 Add a 4 corners polygon primitive as box body*
4,1,4,$2,$3,$4,$5,$6,$7,$8,$9,$2,$3,0*
0 Add four circle primitives for the rounded corners*
1,1,$1+$1,$2,$3*
1,1,$1+$1,$4,$5*
1,1,$1+$1,$6,$7*
1,1,$1+$1,$8,$9*
0 Add four rect primitives between the rounded corners*
20,1,$1+$1,$2,$3,$4,$5,0*
20,1,$1+$1,$4,$5,$6,$7,0*
20,1,$1+$1,$6,$7,$8,$9,0*
20,1,$1+$1,$8,$9,$2,$3,0*%
G04 Aperture macros list end*
G04 #@! TA.AperFunction,SMDPad,CuDef*
%ADD10RoundRect,0.250000X-0.312500X-1.450000X0.312500X-1.450000X0.312500X1.450000X-0.312500X1.450000X0*%
G04 #@! TD*
G04 #@! TA.AperFunction,ComponentPad*
%ADD11C,1.500000*%
G04 #@! TD*
G04 #@! TA.AperFunction,ComponentPad*
%ADD12R,3.000000X2.500000*%
G04 #@! TD*
G04 #@! TA.AperFunction,ComponentPad*
%ADD13R,2.500000X3.000000*%
G04 #@! TD*
G04 #@! TA.AperFunction,ComponentPad*
%ADD14R,1.350000X1.350000*%
G04 #@! TD*
G04 #@! TA.AperFunction,ComponentPad*
%ADD15O,1.350000X1.350000*%
G04 #@! TD*
G04 #@! TA.AperFunction,SMDPad,CuDef*
%ADD16R,1.000000X1.500000*%
G04 #@! TD*
G04 #@! TA.AperFunction,SMDPad,CuDef*
%ADD17R,0.900000X0.800000*%
G04 #@! TD*
G04 #@! TA.AperFunction,SMDPad,CuDef*
%ADD18RoundRect,0.243750X-0.243750X-0.456250X0.243750X-0.456250X0.243750X0.456250X-0.243750X0.456250X0*%
G04 #@! TD*
G04 #@! TA.AperFunction,SMDPad,CuDef*
%ADD19RoundRect,0.243750X0.243750X0.456250X-0.243750X0.456250X-0.243750X-0.456250X0.243750X-0.456250X0*%
G04 #@! TD*
G04 #@! TA.AperFunction,SMDPad,CuDef*
%ADD20R,1.450000X0.450000*%
G04 #@! TD*
G04 #@! TA.AperFunction,SMDPad,CuDef*
%ADD21RoundRect,0.250000X0.312500X1.450000X-0.312500X1.450000X-0.312500X-1.450000X0.312500X-1.450000X0*%
G04 #@! TD*
G04 #@! TA.AperFunction,SMDPad,CuDef*
%ADD22RoundRect,0.250000X-0.325000X-0.450000X0.325000X-0.450000X0.325000X0.450000X-0.325000X0.450000X0*%
G04 #@! TD*
G04 #@! TA.AperFunction,ComponentPad*
%ADD23R,1.800000X1.800000*%
G04 #@! TD*
G04 #@! TA.AperFunction,ComponentPad*
%ADD24C,1.800000*%
G04 #@! TD*
G04 #@! TA.AperFunction,SMDPad,CuDef*
%ADD25R,2.500000X1.800000*%
G04 #@! TD*
G04 #@! TA.AperFunction,ViaPad*
%ADD26C,0.800000*%
G04 #@! TD*
G04 #@! TA.AperFunction,ViaPad*
%ADD27C,0.500000*%
G04 #@! TD*
G04 #@! TA.AperFunction,Conductor*
%ADD28C,0.812800*%
G04 #@! TD*
G04 #@! TA.AperFunction,Conductor*
%ADD29C,0.381000*%
G04 #@! TD*
G04 #@! TA.AperFunction,Conductor*
%ADD30C,0.508000*%
G04 #@! TD*
G04 #@! TA.AperFunction,Conductor*
%ADD31C,0.152400*%
G04 #@! TD*
G04 #@! TA.AperFunction,Conductor*
%ADD32C,0.254000*%
G04 #@! TD*
G04 #@! TA.AperFunction,Conductor*
%ADD33C,0.250000*%
G04 #@! TD*
G04 APERTURE END LIST*
D10*
X65002500Y-82920000D03*
X69277500Y-82920000D03*
D11*
X92540000Y-92157000D03*
X92540000Y-94316000D03*
X92540000Y-90125000D03*
X92540000Y-96475000D03*
X90000000Y-90125000D03*
X90000000Y-96475000D03*
D12*
X95080000Y-86315000D03*
D13*
X96287800Y-93300000D03*
D12*
X95080000Y-100285000D03*
D14*
X63980000Y-93610000D03*
D15*
X63980000Y-95610000D03*
X63980000Y-97610000D03*
X63980000Y-99610000D03*
X63980000Y-101610000D03*
X63980000Y-103610000D03*
D16*
X82020000Y-82770000D03*
X80720000Y-82770000D03*
X84470000Y-82750000D03*
X85770000Y-82750000D03*
D17*
X82460000Y-90460000D03*
X82460000Y-92360000D03*
X84460000Y-91410000D03*
X82470000Y-98320000D03*
X82470000Y-100220000D03*
X84470000Y-99270000D03*
X66970000Y-99790000D03*
X66970000Y-101690000D03*
X68970000Y-100740000D03*
D18*
X58032500Y-93440000D03*
X59907500Y-93440000D03*
X67012500Y-91900000D03*
X68887500Y-91900000D03*
X66992500Y-94900000D03*
X68867500Y-94900000D03*
X82522500Y-88500000D03*
X84397500Y-88500000D03*
X82532500Y-94270000D03*
X84407500Y-94270000D03*
D19*
X78517500Y-98800000D03*
X76642500Y-98800000D03*
D18*
X82512500Y-96340000D03*
X84387500Y-96340000D03*
X82522500Y-86460000D03*
X84397500Y-86460000D03*
X71742500Y-98790000D03*
X73617500Y-98790000D03*
D19*
X68887500Y-97450000D03*
X67012500Y-97450000D03*
D18*
X76632500Y-101390000D03*
X78507500Y-101390000D03*
D20*
X72260000Y-91195000D03*
X72260000Y-91845000D03*
X72260000Y-92495000D03*
X72260000Y-93145000D03*
X72260000Y-93795000D03*
X72260000Y-94445000D03*
X72260000Y-95095000D03*
X72260000Y-95745000D03*
X72260000Y-96395000D03*
X72260000Y-97045000D03*
X78160000Y-97045000D03*
X78160000Y-96395000D03*
X78160000Y-95745000D03*
X78160000Y-95095000D03*
X78160000Y-94445000D03*
X78160000Y-93795000D03*
X78160000Y-93145000D03*
X78160000Y-92495000D03*
X78160000Y-91845000D03*
X78160000Y-91195000D03*
D21*
X69287500Y-87680000D03*
X65012500Y-87680000D03*
D22*
X73975000Y-88830000D03*
X76025000Y-88830000D03*
D14*
X76130000Y-85130000D03*
D15*
X74130000Y-85130000D03*
D23*
X86520000Y-103680000D03*
D24*
X89060000Y-103680000D03*
D25*
X61030000Y-82390000D03*
X57030000Y-82390000D03*
X61020000Y-86730000D03*
X57020000Y-86730000D03*
D23*
X80770000Y-103690000D03*
D24*
X83310000Y-103690000D03*
D14*
X55320000Y-91440000D03*
D15*
X55320000Y-93440000D03*
X55320000Y-95440000D03*
D19*
X73627500Y-101420000D03*
X71752500Y-101420000D03*
D26*
X81270000Y-91780000D03*
D27*
X76750000Y-95100000D03*
X75936500Y-93100000D03*
X69780000Y-95460000D03*
X69800000Y-90420000D03*
X61630000Y-92660000D03*
X70860000Y-91090000D03*
X81610000Y-94240000D03*
X76890000Y-91880000D03*
X81360000Y-96330000D03*
X70455000Y-92495000D03*
D26*
X81050000Y-87640000D03*
X71990000Y-88440000D03*
X71010000Y-88440000D03*
D28*
X76130000Y-85130000D02*
X76130000Y-88725000D01*
D29*
X94690000Y-100220000D02*
X95080000Y-100610000D01*
X82460000Y-92360000D02*
X81850000Y-92360000D01*
D30*
X65705000Y-101885000D02*
X63980000Y-103610000D01*
D29*
X73394000Y-93767000D02*
X73394000Y-90444000D01*
D30*
X66970000Y-101690000D02*
X65900000Y-101690000D01*
D29*
X82470000Y-100220000D02*
X94690000Y-100220000D01*
D30*
X65705000Y-101885000D02*
X65705000Y-88152500D01*
X65705000Y-88152500D02*
X64982500Y-87430000D01*
D29*
X81850000Y-92360000D02*
X81270000Y-91780000D01*
X95080000Y-100610000D02*
X95080000Y-100285000D01*
X73009500Y-84673600D02*
X73618600Y-84064500D01*
X76130000Y-84339000D02*
X76130000Y-85130000D01*
D30*
X65900000Y-101690000D02*
X65705000Y-101885000D01*
D29*
X72260000Y-93795000D02*
X73366000Y-93795000D01*
X73366000Y-93795000D02*
X73394000Y-93767000D01*
X73618600Y-84064500D02*
X75855500Y-84064500D01*
D30*
X67060000Y-101600000D02*
X71572500Y-101600000D01*
D29*
X73394000Y-90444000D02*
X73009500Y-90059500D01*
X75855500Y-84064500D02*
X76130000Y-84339000D01*
D30*
X71572500Y-101600000D02*
X71752500Y-101420000D01*
D28*
X76130000Y-88725000D02*
X76025000Y-88830000D01*
D30*
X66970000Y-101690000D02*
X67060000Y-101600000D01*
D29*
X73009500Y-90059500D02*
X73009500Y-84673600D01*
D28*
X61192500Y-86730000D02*
X65002500Y-82920000D01*
X61350000Y-82710000D02*
X64792500Y-82710000D01*
X61030000Y-82390000D02*
X61350000Y-82710000D01*
X61020000Y-86730000D02*
X61192500Y-86730000D01*
X64792500Y-82710000D02*
X65002500Y-82920000D01*
D31*
X78155000Y-95100000D02*
X78160000Y-95095000D01*
X76750000Y-95100000D02*
X78155000Y-95100000D01*
D29*
X78160000Y-94445000D02*
X78160000Y-95095000D01*
X79942500Y-86977500D02*
X84170000Y-82750000D01*
X84170000Y-82750000D02*
X84470000Y-82750000D01*
X78160000Y-94445000D02*
X79437700Y-94445000D01*
X79942500Y-93940200D02*
X79942500Y-86977500D01*
X79437700Y-94445000D02*
X79942500Y-93940200D01*
D32*
X91076511Y-89048489D02*
X90000000Y-90125000D01*
X90180511Y-93239489D02*
X93339489Y-93239489D01*
X92985907Y-89048489D02*
X91076511Y-89048489D01*
X93339489Y-93239489D02*
X93622960Y-92956018D01*
X76642500Y-98800000D02*
X77156000Y-99313500D01*
X76622500Y-98780000D02*
X76642500Y-98800000D01*
X81424400Y-99827000D02*
X81981400Y-99270000D01*
X77156000Y-99313500D02*
X77669500Y-99827000D01*
X77669500Y-99827000D02*
X81424400Y-99827000D01*
X88790000Y-97685000D02*
X88790000Y-94630000D01*
X93622960Y-89685542D02*
X92985907Y-89048489D01*
X84470000Y-99270000D02*
X87205000Y-99270000D01*
X93622960Y-92956018D02*
X93622960Y-89685542D01*
D33*
X77156000Y-99313500D02*
X76766000Y-99313500D01*
D32*
X73627500Y-98780000D02*
X76622500Y-98780000D01*
X81981400Y-99270000D02*
X84470000Y-99270000D01*
X88790000Y-94630000D02*
X90180511Y-93239489D01*
D33*
X76766000Y-99313500D02*
X76592500Y-99140000D01*
D32*
X73617500Y-98790000D02*
X73627500Y-98780000D01*
X87205000Y-99270000D02*
X88790000Y-97685000D01*
D29*
X78160000Y-93795000D02*
X79266000Y-93795000D01*
X79361500Y-86559500D02*
X82020000Y-83901000D01*
X79361500Y-93699500D02*
X79361500Y-86559500D01*
X79266000Y-93795000D02*
X79361500Y-93699500D01*
D31*
X76631500Y-93795000D02*
X78160000Y-93795000D01*
D29*
X82020000Y-83901000D02*
X82020000Y-82770000D01*
D31*
X75936500Y-93100000D02*
X76631500Y-93795000D01*
D33*
X84397500Y-88898700D02*
X84397500Y-88500000D01*
X84407500Y-88908700D02*
X84397500Y-88898700D01*
D29*
X84407500Y-86470000D02*
X84407500Y-88908700D01*
X84407500Y-91357500D02*
X84460000Y-91410000D01*
X84407500Y-88908700D02*
X84407500Y-91357500D01*
D32*
X91793000Y-91410000D02*
X92540000Y-92157000D01*
X84460000Y-91410000D02*
X91793000Y-91410000D01*
D29*
X84397500Y-86460000D02*
X84407500Y-86470000D01*
D32*
X74877000Y-86831600D02*
X74877000Y-94212800D01*
X70060000Y-95745000D02*
X72260000Y-95745000D01*
X73344800Y-95745000D02*
X72260000Y-95745000D01*
X74130000Y-85130000D02*
X74130000Y-86084600D01*
X68867500Y-94900000D02*
X69215000Y-94900000D01*
X74877000Y-94212800D02*
X73344800Y-95745000D01*
X69215000Y-94900000D02*
X70060000Y-95745000D01*
X74130000Y-86084600D02*
X74877000Y-86831600D01*
D29*
X67012500Y-99747500D02*
X66970000Y-99790000D01*
X67012500Y-97450000D02*
X67012500Y-99747500D01*
D32*
X82510000Y-90460000D02*
X83237000Y-91187000D01*
X82460000Y-90460000D02*
X82510000Y-90460000D01*
X83237000Y-91187000D02*
X83237000Y-93099500D01*
X83237000Y-93099500D02*
X84407500Y-94270000D01*
X84387500Y-96452500D02*
X84387500Y-96340000D01*
X82520000Y-98320000D02*
X84387500Y-96452500D01*
X82470000Y-98320000D02*
X82520000Y-98320000D01*
D31*
X72260000Y-91845000D02*
X70871531Y-91845000D01*
X70871531Y-91845000D02*
X69800000Y-90773469D01*
X61630000Y-92660000D02*
X60687500Y-92660000D01*
X60687500Y-92660000D02*
X59907500Y-93440000D01*
X69800000Y-90773469D02*
X69800000Y-90420000D01*
D32*
X81530000Y-88500000D02*
X80460000Y-89570000D01*
X79139000Y-97045000D02*
X78160000Y-97045000D01*
X80460000Y-89570000D02*
X80460000Y-95724000D01*
X82522500Y-88500000D02*
X81530000Y-88500000D01*
X80460000Y-95724000D02*
X79139000Y-97045000D01*
X81610000Y-94240000D02*
X82502500Y-94240000D01*
X72260000Y-91195000D02*
X70965000Y-91195000D01*
X82502500Y-94240000D02*
X82532500Y-94270000D01*
X70965000Y-91195000D02*
X70860000Y-91090000D01*
X77960000Y-98560000D02*
X78440000Y-99040000D01*
X77108000Y-97708000D02*
X77108000Y-96468000D01*
D33*
X77960000Y-98560000D02*
X78200000Y-98800000D01*
X78200000Y-98800000D02*
X78517500Y-98800000D01*
D32*
X77960000Y-98560000D02*
X77108000Y-97708000D01*
X78440000Y-99040000D02*
X78497500Y-99040000D01*
X77108000Y-96468000D02*
X77181000Y-96395000D01*
X77181000Y-96395000D02*
X78160000Y-96395000D01*
X76890000Y-91880000D02*
X78125000Y-91880000D01*
X81360000Y-96330000D02*
X82502500Y-96330000D01*
X78125000Y-91880000D02*
X78160000Y-91845000D01*
X82502500Y-96330000D02*
X82512500Y-96340000D01*
X91678626Y-88570000D02*
X85858626Y-82750000D01*
X93421044Y-94316000D02*
X94076480Y-93660564D01*
X85858626Y-82750000D02*
X85770000Y-82750000D01*
X93298626Y-88570000D02*
X91678626Y-88570000D01*
X92540000Y-94316000D02*
X93421044Y-94316000D01*
X94076480Y-93660564D02*
X94076480Y-89347854D01*
X94076480Y-89347854D02*
X93298626Y-88570000D01*
X93486480Y-88116480D02*
X91866480Y-88116480D01*
X87640000Y-82050000D02*
X86590000Y-81000000D01*
X91866480Y-88116480D02*
X87640000Y-83890000D01*
X81486000Y-81000000D02*
X80720000Y-81766000D01*
X91082489Y-95392511D02*
X92985907Y-95392511D01*
X80720000Y-81766000D02*
X80720000Y-82770000D01*
X86590000Y-81000000D02*
X81486000Y-81000000D01*
X94530000Y-89160000D02*
X93486480Y-88116480D01*
X94530000Y-93848418D02*
X94530000Y-89160000D01*
X92985907Y-95392511D02*
X94530000Y-93848418D01*
X90000000Y-96475000D02*
X91082489Y-95392511D01*
X87640000Y-83890000D02*
X87640000Y-82050000D01*
X69482500Y-92495000D02*
X70455000Y-92495000D01*
X68887500Y-91900000D02*
X69482500Y-92495000D01*
X70455000Y-92495000D02*
X72260000Y-92495000D01*
D30*
X55316489Y-91436489D02*
X55316489Y-84103511D01*
X55320000Y-91440000D02*
X55316489Y-91436489D01*
X55316489Y-84103511D02*
X57030000Y-82390000D01*
X57210000Y-86730000D02*
X57020000Y-86730000D01*
X63980000Y-93610000D02*
X63980000Y-93500000D01*
X63980000Y-93500000D02*
X57210000Y-86730000D01*
D32*
X79420330Y-105371000D02*
X79420342Y-105371012D01*
X84680000Y-104350000D02*
X84680000Y-103040000D01*
X79420342Y-105371012D02*
X82119658Y-105371012D01*
X83659000Y-105371000D02*
X84680000Y-104350000D01*
X82119658Y-105371012D02*
X82119670Y-105371000D01*
X84680000Y-103040000D02*
X84103000Y-102463000D01*
X75355500Y-103148000D02*
X78838000Y-103148000D01*
X79020000Y-104970700D02*
X79420300Y-105371000D01*
X81070000Y-103690000D02*
X80770000Y-103690000D01*
X79020000Y-103330000D02*
X79020000Y-104970700D01*
X82297000Y-102463000D02*
X81070000Y-103690000D01*
X78838000Y-103148000D02*
X79020000Y-103330000D01*
X84103000Y-102463000D02*
X82297000Y-102463000D01*
X79420300Y-105371000D02*
X79420330Y-105371000D01*
X82119670Y-105371000D02*
X83659000Y-105371000D01*
X73627500Y-101420000D02*
X75355500Y-103148000D01*
X79126489Y-102008989D02*
X87388989Y-102008989D01*
X87388989Y-102008989D02*
X89060000Y-103680000D01*
X78507500Y-101390000D02*
X79126489Y-102008989D01*
X87146000Y-105460000D02*
X86520000Y-104834000D01*
X69941000Y-100363000D02*
X81152908Y-100363000D01*
X81152908Y-100363000D02*
X82344886Y-101554978D01*
X89314978Y-101554978D02*
X90440000Y-102680000D01*
X90440000Y-104480000D02*
X89460000Y-105460000D01*
X86520000Y-104834000D02*
X86520000Y-103680000D01*
X69564000Y-100740000D02*
X69941000Y-100363000D01*
X82344886Y-101554978D02*
X89314978Y-101554978D01*
X89460000Y-105460000D02*
X87146000Y-105460000D01*
X90440000Y-102680000D02*
X90440000Y-104480000D01*
X68970000Y-100740000D02*
X69564000Y-100740000D01*
D31*
X55320000Y-93440000D02*
X58032500Y-93440000D01*
D32*
X73223600Y-97620000D02*
X75360000Y-95483600D01*
X76275000Y-91195000D02*
X78160000Y-91195000D01*
X75360000Y-92110000D02*
X76275000Y-91195000D01*
X75360000Y-95483600D02*
X75360000Y-92110000D01*
X69057500Y-97620000D02*
X73223600Y-97620000D01*
X68887500Y-97450000D02*
X69057500Y-97620000D01*
X71742500Y-98790000D02*
X68580300Y-98790000D01*
D29*
X82230000Y-86460000D02*
X82522500Y-86460000D01*
D32*
X79474010Y-104782612D02*
X79474010Y-103011942D01*
D29*
X67012500Y-93787500D02*
X69846500Y-93787500D01*
X72260000Y-95095000D02*
X73262900Y-95095000D01*
D32*
X68580300Y-98790000D02*
X68020000Y-98229700D01*
D28*
X67012500Y-91900000D02*
X67012500Y-93787500D01*
X71990000Y-88440000D02*
X71010000Y-88440000D01*
D32*
X79474010Y-103011942D02*
X79156057Y-102693989D01*
D29*
X69846500Y-93787500D02*
X71154000Y-95095000D01*
D32*
X79608399Y-104917001D02*
X79474010Y-104782612D01*
D28*
X67012500Y-94880000D02*
X66992500Y-94900000D01*
X70000000Y-87430000D02*
X71010000Y-88440000D01*
D29*
X71154000Y-95095000D02*
X72260000Y-95095000D01*
D28*
X69257500Y-87430000D02*
X70000000Y-87430000D01*
X69257500Y-87430000D02*
X67012500Y-89675000D01*
D29*
X81050000Y-87640000D02*
X82230000Y-86460000D01*
D32*
X76632500Y-101390000D02*
X77936489Y-102693989D01*
D29*
X73975000Y-94382900D02*
X73975000Y-88830000D01*
D28*
X67012500Y-93787500D02*
X67012500Y-94880000D01*
D32*
X68020000Y-95927500D02*
X66992500Y-94900000D01*
X68020000Y-98229700D02*
X68020000Y-95927500D01*
D29*
X73262900Y-95095000D02*
X73975000Y-94382900D01*
D32*
X79156057Y-102693989D02*
X77936489Y-102693989D01*
D28*
X69277500Y-87410000D02*
X69257500Y-87430000D01*
D32*
X82082999Y-104917001D02*
X79608399Y-104917001D01*
D28*
X69277500Y-82920000D02*
X69277500Y-87410000D01*
X69357500Y-87330000D02*
X69277500Y-87410000D01*
D32*
X83310000Y-103690000D02*
X82082999Y-104917001D01*
D28*
X67012500Y-89675000D02*
X67012500Y-91900000D01*
G04 #@! TA.AperFunction,Conductor*
G36*
X71188121Y-80274002D02*
G01*
X71234614Y-80327658D01*
X71246000Y-80380000D01*
X71246000Y-82962575D01*
X71243579Y-82987153D01*
X71241024Y-83000000D01*
X71246000Y-83025017D01*
X71260737Y-83099106D01*
X71316876Y-83183124D01*
X71400894Y-83239263D01*
X71500000Y-83258976D01*
X71512847Y-83256421D01*
X71537425Y-83254000D01*
X78462575Y-83254000D01*
X78487153Y-83256421D01*
X78500000Y-83258976D01*
X78599106Y-83239263D01*
X78683124Y-83183124D01*
X78739263Y-83099106D01*
X78754000Y-83025017D01*
X78758976Y-83000000D01*
X78756421Y-82987153D01*
X78754000Y-82962575D01*
X78754000Y-80380000D01*
X78774002Y-80311879D01*
X78827658Y-80265386D01*
X78880000Y-80254000D01*
X95230196Y-80254000D01*
X95298317Y-80274002D01*
X95344810Y-80327658D01*
X95354914Y-80397932D01*
X95339880Y-80442012D01*
X95239825Y-80618984D01*
X95234484Y-80628430D01*
X95233135Y-80631566D01*
X95103750Y-80932340D01*
X95103747Y-80932349D01*
X95102402Y-80935475D01*
X95101401Y-80938734D01*
X95101401Y-80938735D01*
X95005295Y-81251736D01*
X95005293Y-81251745D01*
X95004293Y-81255001D01*
X95003650Y-81258352D01*
X94949763Y-81539185D01*
X94941305Y-81583261D01*
X94914178Y-81916407D01*
X94918010Y-82057880D01*
X94922766Y-82233431D01*
X94923229Y-82250533D01*
X94968353Y-82581722D01*
X95049020Y-82906091D01*
X95050198Y-82909297D01*
X95153802Y-83191303D01*
X95164284Y-83219836D01*
X95165801Y-83222895D01*
X95165802Y-83222897D01*
X95182495Y-83256555D01*
X95312795Y-83519280D01*
X95314639Y-83522164D01*
X95314639Y-83522165D01*
X95321025Y-83532156D01*
X95492810Y-83800912D01*
X95494949Y-83803573D01*
X95494954Y-83803580D01*
X95647371Y-83993195D01*
X95702220Y-84061430D01*
X95938570Y-84297780D01*
X95982131Y-84332795D01*
X96022692Y-84391063D01*
X96025313Y-84462011D01*
X95989161Y-84523113D01*
X95925713Y-84554970D01*
X95903189Y-84557000D01*
X95352115Y-84557000D01*
X95336876Y-84561475D01*
X95335671Y-84562865D01*
X95334000Y-84570548D01*
X95334000Y-86042885D01*
X95338475Y-86058124D01*
X95339865Y-86059329D01*
X95347548Y-86061000D01*
X97069884Y-86061000D01*
X97085123Y-86056525D01*
X97086328Y-86055135D01*
X97087999Y-86047452D01*
X97087999Y-85110683D01*
X97108001Y-85042562D01*
X97161657Y-84996069D01*
X97231931Y-84985965D01*
X97244400Y-84988405D01*
X97333234Y-85010497D01*
X97414967Y-85030824D01*
X97414974Y-85030825D01*
X97418278Y-85031647D01*
X97421656Y-85032107D01*
X97421660Y-85032108D01*
X97746083Y-85076310D01*
X97749467Y-85076771D01*
X97752874Y-85076863D01*
X97752883Y-85076864D01*
X97921435Y-85081429D01*
X98083593Y-85085822D01*
X98416739Y-85058695D01*
X98420093Y-85058051D01*
X98420096Y-85058051D01*
X98741648Y-84996350D01*
X98744999Y-84995707D01*
X98748255Y-84994707D01*
X98748264Y-84994705D01*
X99061265Y-84898599D01*
X99061266Y-84898599D01*
X99064525Y-84897598D01*
X99067651Y-84896253D01*
X99067660Y-84896250D01*
X99368434Y-84766865D01*
X99371570Y-84765516D01*
X99557988Y-84660120D01*
X99627131Y-84644006D01*
X99694011Y-84667831D01*
X99737392Y-84724033D01*
X99746000Y-84769804D01*
X99746000Y-101730196D01*
X99725998Y-101798317D01*
X99672342Y-101844810D01*
X99602068Y-101854914D01*
X99557988Y-101839880D01*
X99374538Y-101736162D01*
X99371570Y-101734484D01*
X99359619Y-101729343D01*
X99067660Y-101603750D01*
X99067651Y-101603747D01*
X99064525Y-101602402D01*
X99061265Y-101601401D01*
X98748264Y-101505295D01*
X98748255Y-101505293D01*
X98744999Y-101504293D01*
X98730386Y-101501489D01*
X98420096Y-101441949D01*
X98420093Y-101441949D01*
X98416739Y-101441305D01*
X98083593Y-101414178D01*
X97921435Y-101418571D01*
X97752883Y-101423136D01*
X97752874Y-101423137D01*
X97749467Y-101423229D01*
X97746084Y-101423690D01*
X97746083Y-101423690D01*
X97421660Y-101467892D01*
X97421656Y-101467893D01*
X97418278Y-101468353D01*
X97414973Y-101469175D01*
X97414962Y-101469177D01*
X97244408Y-101511592D01*
X97173474Y-101508621D01*
X97115406Y-101467772D01*
X97088641Y-101402013D01*
X97088000Y-101389316D01*
X97088000Y-100557115D01*
X97083525Y-100541876D01*
X97082135Y-100540671D01*
X97074452Y-100539000D01*
X95352115Y-100539000D01*
X95336876Y-100543475D01*
X95335671Y-100544865D01*
X95334000Y-100552548D01*
X95334000Y-102024884D01*
X95338475Y-102040123D01*
X95339865Y-102041328D01*
X95347548Y-102042999D01*
X95793601Y-102042999D01*
X95861722Y-102063001D01*
X95908215Y-102116657D01*
X95918319Y-102186931D01*
X95888825Y-102251511D01*
X95882696Y-102258094D01*
X95702220Y-102438570D01*
X95700078Y-102441235D01*
X95700076Y-102441237D01*
X95494954Y-102696420D01*
X95494953Y-102696422D01*
X95492810Y-102699088D01*
X95312795Y-102980720D01*
X95281912Y-103042989D01*
X95181080Y-103246299D01*
X95164284Y-103280164D01*
X95163107Y-103283367D01*
X95163106Y-103283370D01*
X95137883Y-103352027D01*
X95049020Y-103593909D01*
X94968353Y-103918278D01*
X94967893Y-103921656D01*
X94967892Y-103921660D01*
X94947486Y-104071431D01*
X94923229Y-104249467D01*
X94923137Y-104252874D01*
X94923136Y-104252883D01*
X94919003Y-104405467D01*
X94914178Y-104583593D01*
X94941305Y-104916739D01*
X94941949Y-104920093D01*
X94941949Y-104920096D01*
X94963906Y-105034525D01*
X95004293Y-105244999D01*
X95005293Y-105248255D01*
X95005295Y-105248264D01*
X95101401Y-105561265D01*
X95102402Y-105564525D01*
X95103747Y-105567651D01*
X95103750Y-105567660D01*
X95221681Y-105841808D01*
X95234484Y-105871570D01*
X95236162Y-105874538D01*
X95339880Y-106057988D01*
X95355994Y-106127131D01*
X95332169Y-106194011D01*
X95275967Y-106237392D01*
X95230196Y-106246000D01*
X78880000Y-106246000D01*
X78811879Y-106225998D01*
X78765386Y-106172342D01*
X78754000Y-106120000D01*
X78754000Y-105548412D01*
X78774002Y-105480291D01*
X78827658Y-105433798D01*
X78897932Y-105423694D01*
X78962512Y-105453188D01*
X78969095Y-105459317D01*
X79112254Y-105602476D01*
X79127618Y-105621499D01*
X79128582Y-105622558D01*
X79134229Y-105631304D01*
X79142408Y-105637752D01*
X79142410Y-105637754D01*
X79160777Y-105652234D01*
X79165250Y-105656209D01*
X79165311Y-105656137D01*
X79169268Y-105659490D01*
X79172949Y-105663171D01*
X79186692Y-105672992D01*
X79188739Y-105674455D01*
X79193485Y-105678018D01*
X79233970Y-105709934D01*
X79242655Y-105712984D01*
X79250143Y-105718335D01*
X79299550Y-105733110D01*
X79305137Y-105734926D01*
X79353802Y-105752016D01*
X79353812Y-105752017D01*
X79353844Y-105752028D01*
X79359433Y-105752512D01*
X79361532Y-105752512D01*
X79365762Y-105752912D01*
X79371825Y-105754725D01*
X79371826Y-105754725D01*
X79371866Y-105754737D01*
X79426019Y-105752609D01*
X79430967Y-105752512D01*
X82065523Y-105752512D01*
X82089822Y-105755098D01*
X82091260Y-105755166D01*
X82101438Y-105757357D01*
X82134999Y-105753385D01*
X82140966Y-105753033D01*
X82140958Y-105752941D01*
X82141103Y-105752929D01*
X82146549Y-105752704D01*
X82149809Y-105752512D01*
X82151350Y-105752512D01*
X82151398Y-105752504D01*
X82151495Y-105752500D01*
X83604865Y-105752500D01*
X83629164Y-105755086D01*
X83630602Y-105755154D01*
X83640780Y-105757345D01*
X83671815Y-105753672D01*
X83674342Y-105753373D01*
X83680320Y-105753021D01*
X83680312Y-105752928D01*
X83685490Y-105752500D01*
X83690692Y-105752500D01*
X83709846Y-105749312D01*
X83715704Y-105748478D01*
X83732318Y-105746512D01*
X83756567Y-105743642D01*
X83756568Y-105743642D01*
X83766907Y-105742418D01*
X83775206Y-105738433D01*
X83784283Y-105736922D01*
X83829651Y-105712442D01*
X83834914Y-105709761D01*
X83874250Y-105690873D01*
X83874254Y-105690870D01*
X83881398Y-105687440D01*
X83885692Y-105683830D01*
X83887624Y-105681898D01*
X83889573Y-105680111D01*
X83889626Y-105680082D01*
X83889745Y-105680212D01*
X83890313Y-105679711D01*
X83896057Y-105676612D01*
X83932867Y-105636791D01*
X83936296Y-105633226D01*
X84911480Y-104658042D01*
X84930489Y-104642689D01*
X84931552Y-104641722D01*
X84940304Y-104636071D01*
X84961229Y-104609528D01*
X84965208Y-104605050D01*
X84965137Y-104604990D01*
X84968490Y-104601033D01*
X84972171Y-104597352D01*
X84979564Y-104587007D01*
X84983469Y-104581543D01*
X84987032Y-104576798D01*
X85012485Y-104544510D01*
X85018934Y-104536330D01*
X85021984Y-104527645D01*
X85027334Y-104520158D01*
X85042109Y-104470753D01*
X85043930Y-104465150D01*
X85053807Y-104437027D01*
X85061016Y-104416498D01*
X85061500Y-104410909D01*
X85061500Y-104408196D01*
X85061615Y-104405531D01*
X85061634Y-104405468D01*
X85061808Y-104405475D01*
X85061855Y-104404729D01*
X85063725Y-104398476D01*
X85061597Y-104344322D01*
X85061500Y-104339375D01*
X85061500Y-103094135D01*
X85064086Y-103069836D01*
X85064154Y-103068398D01*
X85066345Y-103058220D01*
X85062373Y-103024658D01*
X85062021Y-103018680D01*
X85061928Y-103018688D01*
X85061500Y-103013510D01*
X85061500Y-103008308D01*
X85058312Y-102989154D01*
X85057477Y-102983289D01*
X85052642Y-102942433D01*
X85052642Y-102942432D01*
X85051418Y-102932093D01*
X85047433Y-102923794D01*
X85045922Y-102914717D01*
X85021442Y-102869349D01*
X85018761Y-102864086D01*
X84999873Y-102824750D01*
X84999870Y-102824746D01*
X84996440Y-102817602D01*
X84992830Y-102813308D01*
X84990898Y-102811376D01*
X84989111Y-102809427D01*
X84989082Y-102809374D01*
X84989212Y-102809255D01*
X84988711Y-102808687D01*
X84985612Y-102802943D01*
X84945805Y-102766146D01*
X84942239Y-102762716D01*
X84785107Y-102605584D01*
X84751081Y-102543272D01*
X84756146Y-102472457D01*
X84798693Y-102415621D01*
X84865213Y-102390810D01*
X84874202Y-102390489D01*
X85341776Y-102390489D01*
X85409897Y-102410491D01*
X85456390Y-102464147D01*
X85466494Y-102534421D01*
X85438846Y-102594959D01*
X85436516Y-102596516D01*
X85429623Y-102606832D01*
X85391184Y-102664360D01*
X85380266Y-102680699D01*
X85365500Y-102754933D01*
X85365501Y-104605066D01*
X85370041Y-104627891D01*
X85377528Y-104665534D01*
X85380266Y-104679301D01*
X85387161Y-104689620D01*
X85387162Y-104689622D01*
X85409544Y-104723118D01*
X85436516Y-104763484D01*
X85520699Y-104819734D01*
X85594933Y-104834500D01*
X86024554Y-104834500D01*
X86092675Y-104854502D01*
X86139168Y-104908158D01*
X86145550Y-104925342D01*
X86147358Y-104931564D01*
X86148582Y-104941907D01*
X86152567Y-104950206D01*
X86154078Y-104959283D01*
X86178558Y-105004651D01*
X86181239Y-105009914D01*
X86200127Y-105049250D01*
X86200130Y-105049254D01*
X86203560Y-105056398D01*
X86207170Y-105060692D01*
X86209102Y-105062624D01*
X86210889Y-105064573D01*
X86210918Y-105064626D01*
X86210788Y-105064745D01*
X86211289Y-105065313D01*
X86214388Y-105071057D01*
X86222033Y-105078124D01*
X86254209Y-105107867D01*
X86257775Y-105111297D01*
X86837954Y-105691476D01*
X86853318Y-105710499D01*
X86854282Y-105711558D01*
X86859929Y-105720304D01*
X86868108Y-105726752D01*
X86868110Y-105726754D01*
X86886477Y-105741234D01*
X86890950Y-105745209D01*
X86891011Y-105745137D01*
X86894968Y-105748490D01*
X86898649Y-105752171D01*
X86912392Y-105761992D01*
X86914439Y-105763455D01*
X86919185Y-105767018D01*
X86959670Y-105798934D01*
X86968355Y-105801984D01*
X86975843Y-105807335D01*
X87025250Y-105822110D01*
X87030837Y-105823926D01*
X87079502Y-105841016D01*
X87085091Y-105841500D01*
X87087802Y-105841500D01*
X87090471Y-105841615D01*
X87090532Y-105841634D01*
X87090525Y-105841808D01*
X87091272Y-105841855D01*
X87097525Y-105843725D01*
X87151689Y-105841597D01*
X87156635Y-105841500D01*
X89405865Y-105841500D01*
X89430164Y-105844086D01*
X89431602Y-105844154D01*
X89441780Y-105846345D01*
X89475341Y-105842373D01*
X89481320Y-105842021D01*
X89481312Y-105841928D01*
X89486490Y-105841500D01*
X89491692Y-105841500D01*
X89510846Y-105838312D01*
X89516704Y-105837478D01*
X89533318Y-105835512D01*
X89557567Y-105832642D01*
X89557568Y-105832642D01*
X89567907Y-105831418D01*
X89576206Y-105827433D01*
X89585283Y-105825922D01*
X89630651Y-105801442D01*
X89635914Y-105798761D01*
X89675250Y-105779873D01*
X89675254Y-105779870D01*
X89682398Y-105776440D01*
X89686692Y-105772830D01*
X89688624Y-105770898D01*
X89690573Y-105769111D01*
X89690626Y-105769082D01*
X89690745Y-105769212D01*
X89691313Y-105768711D01*
X89697057Y-105765612D01*
X89708360Y-105753385D01*
X89733854Y-105725805D01*
X89737284Y-105722238D01*
X90671483Y-104788040D01*
X90690494Y-104772686D01*
X90691556Y-104771720D01*
X90700304Y-104766071D01*
X90706748Y-104757896D01*
X90706751Y-104757894D01*
X90721229Y-104739528D01*
X90725208Y-104735050D01*
X90725137Y-104734990D01*
X90728490Y-104731033D01*
X90732171Y-104727352D01*
X90743469Y-104711543D01*
X90747032Y-104706798D01*
X90760574Y-104689620D01*
X90778934Y-104666330D01*
X90781984Y-104657645D01*
X90787334Y-104650158D01*
X90802109Y-104600753D01*
X90803930Y-104595150D01*
X90806791Y-104587005D01*
X90821016Y-104546498D01*
X90821500Y-104540909D01*
X90821500Y-104538196D01*
X90821615Y-104535531D01*
X90821634Y-104535468D01*
X90821808Y-104535475D01*
X90821855Y-104534729D01*
X90823725Y-104528476D01*
X90821597Y-104474322D01*
X90821500Y-104469375D01*
X90821500Y-102734136D01*
X90824085Y-102709847D01*
X90824153Y-102708400D01*
X90826345Y-102698220D01*
X90822373Y-102664660D01*
X90822020Y-102658679D01*
X90821928Y-102658687D01*
X90821500Y-102653508D01*
X90821500Y-102648308D01*
X90820647Y-102643181D01*
X90820646Y-102643173D01*
X90818312Y-102629151D01*
X90817475Y-102623275D01*
X90812641Y-102582431D01*
X90812640Y-102582429D01*
X90811417Y-102572092D01*
X90807433Y-102563795D01*
X90805922Y-102554717D01*
X90800978Y-102545555D01*
X90800977Y-102545551D01*
X90781447Y-102509356D01*
X90778751Y-102504066D01*
X90759871Y-102464747D01*
X90759871Y-102464746D01*
X90756440Y-102457602D01*
X90752830Y-102453308D01*
X90750898Y-102451376D01*
X90749111Y-102449427D01*
X90749082Y-102449374D01*
X90749212Y-102449255D01*
X90748711Y-102448687D01*
X90745612Y-102442943D01*
X90705791Y-102406133D01*
X90702226Y-102402704D01*
X89879191Y-101579669D01*
X93072001Y-101579669D01*
X93072371Y-101586490D01*
X93077895Y-101637352D01*
X93081521Y-101652604D01*
X93126676Y-101773054D01*
X93135214Y-101788649D01*
X93211715Y-101890724D01*
X93224276Y-101903285D01*
X93326351Y-101979786D01*
X93341946Y-101988324D01*
X93462394Y-102033478D01*
X93477649Y-102037105D01*
X93528514Y-102042631D01*
X93535328Y-102043000D01*
X94807885Y-102043000D01*
X94823124Y-102038525D01*
X94824329Y-102037135D01*
X94826000Y-102029452D01*
X94826000Y-100557115D01*
X94821525Y-100541876D01*
X94820135Y-100540671D01*
X94812452Y-100539000D01*
X93090116Y-100539000D01*
X93074877Y-100543475D01*
X93073672Y-100544865D01*
X93072001Y-100552548D01*
X93072001Y-101579669D01*
X89879191Y-101579669D01*
X89623020Y-101323498D01*
X89607667Y-101304489D01*
X89606700Y-101303426D01*
X89601049Y-101294674D01*
X89574506Y-101273749D01*
X89570031Y-101269772D01*
X89569970Y-101269843D01*
X89566013Y-101266490D01*
X89562330Y-101262807D01*
X89546539Y-101251523D01*
X89541793Y-101247960D01*
X89509485Y-101222490D01*
X89509484Y-101222489D01*
X89501308Y-101216044D01*
X89492621Y-101212993D01*
X89485135Y-101207644D01*
X89475159Y-101204661D01*
X89475158Y-101204660D01*
X89435767Y-101192880D01*
X89430135Y-101191050D01*
X89381476Y-101173962D01*
X89375887Y-101173478D01*
X89373176Y-101173478D01*
X89370509Y-101173363D01*
X89370446Y-101173344D01*
X89370453Y-101173170D01*
X89369707Y-101173123D01*
X89363454Y-101171253D01*
X89314670Y-101173170D01*
X89309300Y-101173381D01*
X89304353Y-101173478D01*
X83391967Y-101173478D01*
X83323846Y-101153476D01*
X83277353Y-101099820D01*
X83267249Y-101029546D01*
X83291141Y-100971913D01*
X83364786Y-100873649D01*
X83373324Y-100858054D01*
X83418478Y-100737606D01*
X83422105Y-100722351D01*
X83427631Y-100671486D01*
X83428000Y-100664672D01*
X83428000Y-100492115D01*
X83423525Y-100476876D01*
X83422135Y-100475671D01*
X83414452Y-100474000D01*
X82342000Y-100474000D01*
X82273879Y-100453998D01*
X82227386Y-100400342D01*
X82216000Y-100348000D01*
X82216000Y-100092000D01*
X82236002Y-100023879D01*
X82248690Y-100012885D01*
X93072000Y-100012885D01*
X93076475Y-100028124D01*
X93077865Y-100029329D01*
X93085548Y-100031000D01*
X94807885Y-100031000D01*
X94823124Y-100026525D01*
X94824329Y-100025135D01*
X94826000Y-100017452D01*
X94826000Y-100012885D01*
X95334000Y-100012885D01*
X95338475Y-100028124D01*
X95339865Y-100029329D01*
X95347548Y-100031000D01*
X97069884Y-100031000D01*
X97085123Y-100026525D01*
X97086328Y-100025135D01*
X97087999Y-100017452D01*
X97087999Y-98990331D01*
X97087629Y-98983510D01*
X97082105Y-98932648D01*
X97078479Y-98917396D01*
X97033324Y-98796946D01*
X97024786Y-98781351D01*
X96948285Y-98679276D01*
X96935724Y-98666715D01*
X96833649Y-98590214D01*
X96818054Y-98581676D01*
X96697606Y-98536522D01*
X96682351Y-98532895D01*
X96631486Y-98527369D01*
X96624672Y-98527000D01*
X95352115Y-98527000D01*
X95336876Y-98531475D01*
X95335671Y-98532865D01*
X95334000Y-98540548D01*
X95334000Y-100012885D01*
X94826000Y-100012885D01*
X94826000Y-98545116D01*
X94821525Y-98529877D01*
X94820135Y-98528672D01*
X94812452Y-98527001D01*
X93535331Y-98527001D01*
X93528510Y-98527371D01*
X93477648Y-98532895D01*
X93462396Y-98536521D01*
X93341946Y-98581676D01*
X93326351Y-98590214D01*
X93224276Y-98666715D01*
X93211715Y-98679276D01*
X93135214Y-98781351D01*
X93126676Y-98796946D01*
X93081522Y-98917394D01*
X93077895Y-98932649D01*
X93072369Y-98983514D01*
X93072000Y-98990328D01*
X93072000Y-100012885D01*
X82248690Y-100012885D01*
X82289658Y-99977386D01*
X82342000Y-99966000D01*
X83409884Y-99966000D01*
X83425123Y-99961525D01*
X83426328Y-99960135D01*
X83427999Y-99952452D01*
X83427999Y-99777500D01*
X83448001Y-99709379D01*
X83501657Y-99662886D01*
X83553999Y-99651500D01*
X83653429Y-99651500D01*
X83721550Y-99671502D01*
X83768043Y-99725158D01*
X83777007Y-99752916D01*
X83780266Y-99769301D01*
X83787161Y-99779620D01*
X83787162Y-99779622D01*
X83787521Y-99780159D01*
X83836516Y-99853484D01*
X83920699Y-99909734D01*
X83994933Y-99924500D01*
X84469923Y-99924500D01*
X84945066Y-99924499D01*
X84980818Y-99917388D01*
X85007126Y-99912156D01*
X85007128Y-99912155D01*
X85019301Y-99909734D01*
X85029621Y-99902839D01*
X85029622Y-99902838D01*
X85093168Y-99860377D01*
X85103484Y-99853484D01*
X85152479Y-99780159D01*
X85152839Y-99779620D01*
X85159734Y-99769301D01*
X85162155Y-99757130D01*
X85162157Y-99757125D01*
X85162994Y-99752916D01*
X85195903Y-99690007D01*
X85257598Y-99654876D01*
X85286572Y-99651500D01*
X87150865Y-99651500D01*
X87175164Y-99654086D01*
X87176602Y-99654154D01*
X87186780Y-99656345D01*
X87220341Y-99652373D01*
X87226320Y-99652021D01*
X87226312Y-99651928D01*
X87231490Y-99651500D01*
X87236692Y-99651500D01*
X87255846Y-99648312D01*
X87261704Y-99647478D01*
X87278318Y-99645512D01*
X87302567Y-99642642D01*
X87302568Y-99642642D01*
X87312907Y-99641418D01*
X87321206Y-99637433D01*
X87330283Y-99635922D01*
X87375651Y-99611442D01*
X87380914Y-99608761D01*
X87420250Y-99589873D01*
X87420254Y-99589870D01*
X87427398Y-99586440D01*
X87431692Y-99582830D01*
X87433624Y-99580898D01*
X87435573Y-99579111D01*
X87435626Y-99579082D01*
X87435745Y-99579212D01*
X87436313Y-99578711D01*
X87442057Y-99575612D01*
X87478867Y-99535791D01*
X87482296Y-99532226D01*
X89021480Y-97993042D01*
X89040489Y-97977689D01*
X89041552Y-97976722D01*
X89050304Y-97971071D01*
X89071229Y-97944528D01*
X89075208Y-97940050D01*
X89075137Y-97939990D01*
X89078490Y-97936033D01*
X89082171Y-97932352D01*
X89093469Y-97916543D01*
X89097032Y-97911798D01*
X89114953Y-97889065D01*
X89128934Y-97871330D01*
X89131984Y-97862645D01*
X89137334Y-97855158D01*
X89152109Y-97805753D01*
X89153930Y-97800150D01*
X89154772Y-97797754D01*
X89171016Y-97751498D01*
X89171500Y-97745909D01*
X89171500Y-97743196D01*
X89171615Y-97740531D01*
X89171634Y-97740468D01*
X89171808Y-97740475D01*
X89171855Y-97739729D01*
X89173725Y-97733476D01*
X89171597Y-97679322D01*
X89171500Y-97674375D01*
X89171500Y-97361677D01*
X89191502Y-97293556D01*
X89245158Y-97247063D01*
X89315432Y-97236959D01*
X89379163Y-97265723D01*
X89411645Y-97293367D01*
X89423945Y-97303835D01*
X89429323Y-97306841D01*
X89429325Y-97306842D01*
X89527441Y-97361677D01*
X89595904Y-97399940D01*
X89783255Y-97460814D01*
X89978862Y-97484139D01*
X89984997Y-97483667D01*
X89984999Y-97483667D01*
X90044801Y-97479065D01*
X90175274Y-97469026D01*
X90365009Y-97416050D01*
X90370513Y-97413270D01*
X90535341Y-97330010D01*
X90535343Y-97330009D01*
X90540842Y-97327231D01*
X90696074Y-97205950D01*
X90700100Y-97201286D01*
X90700103Y-97201283D01*
X90820764Y-97061496D01*
X90820765Y-97061494D01*
X90824793Y-97056828D01*
X90830417Y-97046929D01*
X90847815Y-97016302D01*
X90922096Y-96885544D01*
X90984277Y-96698622D01*
X91008966Y-96503183D01*
X91009278Y-96480884D01*
X91009311Y-96478522D01*
X91009311Y-96478518D01*
X91009360Y-96475000D01*
X90990137Y-96278948D01*
X90960559Y-96180982D01*
X90952899Y-96155609D01*
X90952358Y-96084614D01*
X90984426Y-96030096D01*
X91203606Y-95810916D01*
X91265918Y-95776890D01*
X91292701Y-95774011D01*
X91565981Y-95774011D01*
X91634102Y-95794013D01*
X91680595Y-95847669D01*
X91690699Y-95917943D01*
X91676397Y-95960708D01*
X91612262Y-96077371D01*
X91610398Y-96083246D01*
X91610397Y-96083249D01*
X91586064Y-96159956D01*
X91552697Y-96265142D01*
X91530738Y-96460907D01*
X91531254Y-96467051D01*
X91545683Y-96638880D01*
X91547222Y-96657209D01*
X91562348Y-96709960D01*
X91599514Y-96839570D01*
X91601521Y-96846570D01*
X91691566Y-97021779D01*
X91695389Y-97026603D01*
X91695392Y-97026607D01*
X91804956Y-97164842D01*
X91813927Y-97176160D01*
X91818620Y-97180154D01*
X91818621Y-97180155D01*
X91952542Y-97294130D01*
X91963945Y-97303835D01*
X91969323Y-97306841D01*
X91969325Y-97306842D01*
X92067441Y-97361677D01*
X92135904Y-97399940D01*
X92323255Y-97460814D01*
X92518862Y-97484139D01*
X92524997Y-97483667D01*
X92524999Y-97483667D01*
X92584801Y-97479065D01*
X92715274Y-97469026D01*
X92905009Y-97416050D01*
X92910513Y-97413270D01*
X93075341Y-97330010D01*
X93075343Y-97330009D01*
X93080842Y-97327231D01*
X93236074Y-97205950D01*
X93240100Y-97201286D01*
X93240103Y-97201283D01*
X93360764Y-97061496D01*
X93360765Y-97061494D01*
X93364793Y-97056828D01*
X93370417Y-97046929D01*
X93387815Y-97016302D01*
X93462096Y-96885544D01*
X93524277Y-96698622D01*
X93548966Y-96503183D01*
X93549278Y-96480884D01*
X93549311Y-96478522D01*
X93549311Y-96478518D01*
X93549360Y-96475000D01*
X93530137Y-96278948D01*
X93473200Y-96090363D01*
X93465101Y-96075131D01*
X93383611Y-95921871D01*
X93383609Y-95921868D01*
X93380717Y-95916429D01*
X93282328Y-95795791D01*
X93254775Y-95730362D01*
X93266971Y-95660420D01*
X93290877Y-95627063D01*
X94314706Y-94603234D01*
X94377018Y-94569208D01*
X94447833Y-94574273D01*
X94504669Y-94616820D01*
X94529480Y-94683340D01*
X94529801Y-94692329D01*
X94529801Y-94844669D01*
X94530171Y-94851490D01*
X94535695Y-94902352D01*
X94539321Y-94917604D01*
X94584476Y-95038054D01*
X94593014Y-95053649D01*
X94669515Y-95155724D01*
X94682076Y-95168285D01*
X94784151Y-95244786D01*
X94799746Y-95253324D01*
X94920194Y-95298478D01*
X94935449Y-95302105D01*
X94986314Y-95307631D01*
X94993128Y-95308000D01*
X96015685Y-95308000D01*
X96030924Y-95303525D01*
X96032129Y-95302135D01*
X96033800Y-95294452D01*
X96033800Y-95289884D01*
X96541800Y-95289884D01*
X96546275Y-95305123D01*
X96547665Y-95306328D01*
X96555348Y-95307999D01*
X97582469Y-95307999D01*
X97589290Y-95307629D01*
X97640152Y-95302105D01*
X97655404Y-95298479D01*
X97775854Y-95253324D01*
X97791449Y-95244786D01*
X97893524Y-95168285D01*
X97906085Y-95155724D01*
X97982586Y-95053649D01*
X97991124Y-95038054D01*
X98036278Y-94917606D01*
X98039905Y-94902351D01*
X98045431Y-94851486D01*
X98045800Y-94844672D01*
X98045800Y-93572115D01*
X98041325Y-93556876D01*
X98039935Y-93555671D01*
X98032252Y-93554000D01*
X96559915Y-93554000D01*
X96544676Y-93558475D01*
X96543471Y-93559865D01*
X96541800Y-93567548D01*
X96541800Y-95289884D01*
X96033800Y-95289884D01*
X96033800Y-93027885D01*
X96541800Y-93027885D01*
X96546275Y-93043124D01*
X96547665Y-93044329D01*
X96555348Y-93046000D01*
X98027684Y-93046000D01*
X98042923Y-93041525D01*
X98044128Y-93040135D01*
X98045799Y-93032452D01*
X98045799Y-91755331D01*
X98045429Y-91748510D01*
X98039905Y-91697648D01*
X98036279Y-91682396D01*
X97991124Y-91561946D01*
X97982586Y-91546351D01*
X97906085Y-91444276D01*
X97893524Y-91431715D01*
X97791449Y-91355214D01*
X97775854Y-91346676D01*
X97655406Y-91301522D01*
X97640151Y-91297895D01*
X97589286Y-91292369D01*
X97582472Y-91292000D01*
X96559915Y-91292000D01*
X96544676Y-91296475D01*
X96543471Y-91297865D01*
X96541800Y-91305548D01*
X96541800Y-93027885D01*
X96033800Y-93027885D01*
X96033800Y-91310116D01*
X96029325Y-91294877D01*
X96027935Y-91293672D01*
X96020252Y-91292001D01*
X95037500Y-91292001D01*
X94969379Y-91271999D01*
X94922886Y-91218343D01*
X94911500Y-91166001D01*
X94911500Y-89214135D01*
X94914086Y-89189836D01*
X94914154Y-89188398D01*
X94916345Y-89178220D01*
X94912373Y-89144658D01*
X94912021Y-89138680D01*
X94911928Y-89138688D01*
X94911500Y-89133510D01*
X94911500Y-89128308D01*
X94908312Y-89109154D01*
X94907477Y-89103289D01*
X94907450Y-89103056D01*
X94905177Y-89083853D01*
X94902642Y-89062433D01*
X94902642Y-89062432D01*
X94901418Y-89052093D01*
X94897433Y-89043794D01*
X94895922Y-89034717D01*
X94871442Y-88989349D01*
X94868761Y-88984086D01*
X94849873Y-88944750D01*
X94849870Y-88944746D01*
X94846440Y-88937602D01*
X94842830Y-88933308D01*
X94840898Y-88931376D01*
X94839111Y-88929427D01*
X94839082Y-88929374D01*
X94839212Y-88929255D01*
X94838711Y-88928687D01*
X94835612Y-88922943D01*
X94795791Y-88886133D01*
X94792226Y-88882704D01*
X94197617Y-88288095D01*
X94163591Y-88225783D01*
X94168656Y-88154968D01*
X94211203Y-88098132D01*
X94277723Y-88073321D01*
X94286712Y-88073000D01*
X94807885Y-88073000D01*
X94823124Y-88068525D01*
X94824329Y-88067135D01*
X94826000Y-88059452D01*
X94826000Y-88054884D01*
X95334000Y-88054884D01*
X95338475Y-88070123D01*
X95339865Y-88071328D01*
X95347548Y-88072999D01*
X96624669Y-88072999D01*
X96631490Y-88072629D01*
X96682352Y-88067105D01*
X96697604Y-88063479D01*
X96818054Y-88018324D01*
X96833649Y-88009786D01*
X96935724Y-87933285D01*
X96948285Y-87920724D01*
X97024786Y-87818649D01*
X97033324Y-87803054D01*
X97078478Y-87682606D01*
X97082105Y-87667351D01*
X97087631Y-87616486D01*
X97088000Y-87609672D01*
X97088000Y-86587115D01*
X97083525Y-86571876D01*
X97082135Y-86570671D01*
X97074452Y-86569000D01*
X95352115Y-86569000D01*
X95336876Y-86573475D01*
X95335671Y-86574865D01*
X95334000Y-86582548D01*
X95334000Y-88054884D01*
X94826000Y-88054884D01*
X94826000Y-86587115D01*
X94821525Y-86571876D01*
X94820135Y-86570671D01*
X94812452Y-86569000D01*
X93090116Y-86569000D01*
X93074877Y-86573475D01*
X93073672Y-86574865D01*
X93072001Y-86582548D01*
X93072001Y-87608980D01*
X93051999Y-87677101D01*
X92998343Y-87723594D01*
X92946001Y-87734980D01*
X92076692Y-87734980D01*
X92008571Y-87714978D01*
X91987597Y-87698075D01*
X90332407Y-86042885D01*
X93072000Y-86042885D01*
X93076475Y-86058124D01*
X93077865Y-86059329D01*
X93085548Y-86061000D01*
X94807885Y-86061000D01*
X94823124Y-86056525D01*
X94824329Y-86055135D01*
X94826000Y-86047452D01*
X94826000Y-84575116D01*
X94821525Y-84559877D01*
X94820135Y-84558672D01*
X94812452Y-84557001D01*
X93535331Y-84557001D01*
X93528510Y-84557371D01*
X93477648Y-84562895D01*
X93462396Y-84566521D01*
X93341946Y-84611676D01*
X93326351Y-84620214D01*
X93224276Y-84696715D01*
X93211715Y-84709276D01*
X93135214Y-84811351D01*
X93126676Y-84826946D01*
X93081522Y-84947394D01*
X93077895Y-84962649D01*
X93072369Y-85013514D01*
X93072000Y-85020328D01*
X93072000Y-86042885D01*
X90332407Y-86042885D01*
X88058405Y-83768882D01*
X88024379Y-83706570D01*
X88021500Y-83679787D01*
X88021500Y-83500000D01*
X89690517Y-83500000D01*
X89710411Y-83727389D01*
X89711835Y-83732703D01*
X89711835Y-83732704D01*
X89738747Y-83833140D01*
X89769488Y-83947870D01*
X89771810Y-83952850D01*
X89771811Y-83952852D01*
X89863628Y-84149754D01*
X89863629Y-84149755D01*
X89865954Y-84154741D01*
X89877109Y-84170672D01*
X89990629Y-84332794D01*
X89996878Y-84341719D01*
X90158281Y-84503122D01*
X90162789Y-84506279D01*
X90162792Y-84506281D01*
X90186831Y-84523113D01*
X90345259Y-84634046D01*
X90350241Y-84636369D01*
X90350246Y-84636372D01*
X90547148Y-84728189D01*
X90552130Y-84730512D01*
X90557438Y-84731934D01*
X90557440Y-84731935D01*
X90698771Y-84769804D01*
X90772611Y-84789589D01*
X90871972Y-84798282D01*
X90940320Y-84804262D01*
X90940327Y-84804262D01*
X90943044Y-84804500D01*
X91056956Y-84804500D01*
X91059673Y-84804262D01*
X91059680Y-84804262D01*
X91128028Y-84798282D01*
X91227389Y-84789589D01*
X91301229Y-84769804D01*
X91442560Y-84731935D01*
X91442562Y-84731934D01*
X91447870Y-84730512D01*
X91452852Y-84728189D01*
X91649754Y-84636372D01*
X91649759Y-84636369D01*
X91654741Y-84634046D01*
X91813169Y-84523113D01*
X91837208Y-84506281D01*
X91837211Y-84506279D01*
X91841719Y-84503122D01*
X92003122Y-84341719D01*
X92009372Y-84332794D01*
X92101045Y-84201872D01*
X92134046Y-84154742D01*
X92136369Y-84149760D01*
X92136372Y-84149755D01*
X92228189Y-83952852D01*
X92228190Y-83952851D01*
X92230512Y-83947870D01*
X92261254Y-83833140D01*
X92288165Y-83732704D01*
X92288165Y-83732703D01*
X92289589Y-83727389D01*
X92309483Y-83500000D01*
X92289589Y-83272611D01*
X92230512Y-83052130D01*
X92211879Y-83012172D01*
X92136372Y-82850246D01*
X92136369Y-82850241D01*
X92134046Y-82845259D01*
X92003122Y-82658281D01*
X91841719Y-82496878D01*
X91654741Y-82365954D01*
X91649759Y-82363631D01*
X91649754Y-82363628D01*
X91452852Y-82271811D01*
X91452850Y-82271810D01*
X91447870Y-82269488D01*
X91442562Y-82268066D01*
X91442560Y-82268065D01*
X91232704Y-82211835D01*
X91232703Y-82211835D01*
X91227389Y-82210411D01*
X91128028Y-82201718D01*
X91059680Y-82195738D01*
X91059673Y-82195738D01*
X91056956Y-82195500D01*
X90943044Y-82195500D01*
X90940327Y-82195738D01*
X90940320Y-82195738D01*
X90871972Y-82201718D01*
X90772611Y-82210411D01*
X90767297Y-82211835D01*
X90767296Y-82211835D01*
X90557440Y-82268065D01*
X90557438Y-82268066D01*
X90552130Y-82269488D01*
X90547150Y-82271810D01*
X90547148Y-82271811D01*
X90350246Y-82363628D01*
X90350241Y-82363631D01*
X90345259Y-82365954D01*
X90158281Y-82496878D01*
X89996878Y-82658281D01*
X89865954Y-82845258D01*
X89863631Y-82850240D01*
X89863628Y-82850245D01*
X89788121Y-83012172D01*
X89769488Y-83052130D01*
X89710411Y-83272611D01*
X89690517Y-83500000D01*
X88021500Y-83500000D01*
X88021500Y-82104135D01*
X88024086Y-82079836D01*
X88024154Y-82078398D01*
X88026345Y-82068220D01*
X88022373Y-82034658D01*
X88022021Y-82028680D01*
X88021928Y-82028688D01*
X88021500Y-82023510D01*
X88021500Y-82018308D01*
X88018312Y-81999154D01*
X88017477Y-81993289D01*
X88016954Y-81988865D01*
X88011418Y-81942093D01*
X88007433Y-81933794D01*
X88005922Y-81924717D01*
X87981442Y-81879349D01*
X87978761Y-81874086D01*
X87959873Y-81834750D01*
X87959870Y-81834746D01*
X87956440Y-81827602D01*
X87952830Y-81823308D01*
X87950898Y-81821376D01*
X87949111Y-81819427D01*
X87949082Y-81819374D01*
X87949212Y-81819255D01*
X87948711Y-81818687D01*
X87945612Y-81812943D01*
X87905791Y-81776133D01*
X87902226Y-81772704D01*
X86898042Y-80768520D01*
X86882689Y-80749511D01*
X86881722Y-80748448D01*
X86876071Y-80739696D01*
X86849528Y-80718771D01*
X86845053Y-80714794D01*
X86844992Y-80714865D01*
X86841035Y-80711512D01*
X86837352Y-80707829D01*
X86829246Y-80702036D01*
X86821564Y-80696547D01*
X86816815Y-80692982D01*
X86784507Y-80667512D01*
X86784506Y-80667511D01*
X86776330Y-80661066D01*
X86767643Y-80658015D01*
X86760157Y-80652666D01*
X86750181Y-80649683D01*
X86750180Y-80649682D01*
X86718798Y-80640297D01*
X86710786Y-80637901D01*
X86705157Y-80636072D01*
X86656498Y-80618984D01*
X86650909Y-80618500D01*
X86648198Y-80618500D01*
X86645531Y-80618385D01*
X86645468Y-80618366D01*
X86645475Y-80618192D01*
X86644729Y-80618145D01*
X86638476Y-80616275D01*
X86592746Y-80618072D01*
X86584322Y-80618403D01*
X86579375Y-80618500D01*
X81540140Y-80618500D01*
X81515824Y-80615913D01*
X81514401Y-80615846D01*
X81504220Y-80613654D01*
X81471674Y-80617506D01*
X81470652Y-80617627D01*
X81464678Y-80617979D01*
X81464686Y-80618072D01*
X81459508Y-80618500D01*
X81454308Y-80618500D01*
X81449179Y-80619354D01*
X81449176Y-80619354D01*
X81435165Y-80621686D01*
X81429286Y-80622523D01*
X81388433Y-80627358D01*
X81388432Y-80627358D01*
X81378093Y-80628582D01*
X81369794Y-80632567D01*
X81360717Y-80634078D01*
X81315349Y-80658558D01*
X81310086Y-80661239D01*
X81295690Y-80668152D01*
X81263602Y-80683560D01*
X81259308Y-80687169D01*
X81257382Y-80689095D01*
X81255424Y-80690891D01*
X81255367Y-80690921D01*
X81255249Y-80690792D01*
X81254684Y-80691290D01*
X81248943Y-80694388D01*
X81241874Y-80702035D01*
X81241873Y-80702036D01*
X81212146Y-80734195D01*
X81208716Y-80737761D01*
X80488521Y-81457956D01*
X80469505Y-81473315D01*
X80468444Y-81474281D01*
X80459696Y-81479929D01*
X80453250Y-81488106D01*
X80438771Y-81506472D01*
X80434794Y-81510947D01*
X80434865Y-81511008D01*
X80431512Y-81514965D01*
X80427829Y-81518648D01*
X80424803Y-81522883D01*
X80424801Y-81522885D01*
X80416547Y-81534436D01*
X80412984Y-81539182D01*
X80381066Y-81579670D01*
X80378015Y-81588357D01*
X80372666Y-81595843D01*
X80369683Y-81605819D01*
X80369682Y-81605820D01*
X80357902Y-81645211D01*
X80356067Y-81650858D01*
X80345394Y-81681250D01*
X80303951Y-81738895D01*
X80237921Y-81764983D01*
X80226512Y-81765501D01*
X80194934Y-81765501D01*
X80159182Y-81772612D01*
X80132874Y-81777844D01*
X80132872Y-81777845D01*
X80120699Y-81780266D01*
X80110379Y-81787161D01*
X80110378Y-81787162D01*
X80061566Y-81819778D01*
X80036516Y-81836516D01*
X79980266Y-81920699D01*
X79965500Y-81994933D01*
X79965501Y-83545066D01*
X79980266Y-83619301D01*
X80036516Y-83703484D01*
X80064091Y-83721909D01*
X80105780Y-83749765D01*
X80120699Y-83759734D01*
X80194933Y-83774500D01*
X80364718Y-83774500D01*
X81212986Y-83774499D01*
X81281107Y-83794501D01*
X81327600Y-83848157D01*
X81337704Y-83918431D01*
X81308211Y-83983011D01*
X81302081Y-83989594D01*
X79070802Y-86220873D01*
X79059713Y-86230728D01*
X79033445Y-86251436D01*
X79028090Y-86259183D01*
X79028089Y-86259185D01*
X79019613Y-86271449D01*
X79003417Y-86294884D01*
X79000516Y-86299081D01*
X78998213Y-86302304D01*
X78963782Y-86348919D01*
X78961418Y-86355650D01*
X78957364Y-86361516D01*
X78954524Y-86370497D01*
X78939906Y-86416719D01*
X78938653Y-86420475D01*
X78922565Y-86466286D01*
X78922564Y-86466291D01*
X78919445Y-86475173D01*
X78919165Y-86482302D01*
X78917015Y-86489100D01*
X78916500Y-86495643D01*
X78916500Y-86547659D01*
X78916403Y-86552605D01*
X78914192Y-86608884D01*
X78916057Y-86615919D01*
X78916500Y-86623965D01*
X78916500Y-90589500D01*
X78896498Y-90657621D01*
X78842842Y-90704114D01*
X78790500Y-90715500D01*
X77483762Y-90715501D01*
X77409934Y-90715501D01*
X77374182Y-90722612D01*
X77347874Y-90727844D01*
X77347872Y-90727845D01*
X77335699Y-90730266D01*
X77325379Y-90737161D01*
X77325378Y-90737162D01*
X77251516Y-90786516D01*
X77250226Y-90784586D01*
X77202548Y-90810621D01*
X77175765Y-90813500D01*
X76329136Y-90813500D01*
X76304847Y-90810915D01*
X76303400Y-90810847D01*
X76293220Y-90808655D01*
X76260356Y-90812545D01*
X76259660Y-90812627D01*
X76253679Y-90812980D01*
X76253687Y-90813072D01*
X76248508Y-90813500D01*
X76243308Y-90813500D01*
X76238181Y-90814353D01*
X76238173Y-90814354D01*
X76224151Y-90816688D01*
X76218275Y-90817525D01*
X76177431Y-90822359D01*
X76177429Y-90822360D01*
X76167092Y-90823583D01*
X76158795Y-90827567D01*
X76149717Y-90829078D01*
X76140555Y-90834022D01*
X76140551Y-90834023D01*
X76104356Y-90853553D01*
X76099072Y-90856246D01*
X76052602Y-90878560D01*
X76048308Y-90882170D01*
X76046376Y-90884102D01*
X76044427Y-90885889D01*
X76044374Y-90885918D01*
X76044255Y-90885788D01*
X76043687Y-90886289D01*
X76037943Y-90889388D01*
X76030876Y-90897033D01*
X76001146Y-90929195D01*
X75997716Y-90932762D01*
X75473595Y-91456882D01*
X75411283Y-91490907D01*
X75340467Y-91485842D01*
X75283632Y-91443295D01*
X75258821Y-91376775D01*
X75258500Y-91367786D01*
X75258500Y-90106739D01*
X75278502Y-90038618D01*
X75332158Y-89992125D01*
X75402432Y-89982021D01*
X75424167Y-89987146D01*
X75538707Y-90025137D01*
X75552086Y-90028005D01*
X75646438Y-90037672D01*
X75652854Y-90038000D01*
X75752885Y-90038000D01*
X75768124Y-90033525D01*
X75769329Y-90032135D01*
X75771000Y-90024452D01*
X75771000Y-90019884D01*
X76279000Y-90019884D01*
X76283475Y-90035123D01*
X76284865Y-90036328D01*
X76292548Y-90037999D01*
X76397095Y-90037999D01*
X76403614Y-90037662D01*
X76499206Y-90027743D01*
X76512600Y-90024851D01*
X76666784Y-89973412D01*
X76679962Y-89967239D01*
X76817807Y-89881937D01*
X76829208Y-89872901D01*
X76943739Y-89758171D01*
X76952751Y-89746760D01*
X77037816Y-89608757D01*
X77043963Y-89595576D01*
X77095138Y-89441290D01*
X77098005Y-89427914D01*
X77107672Y-89333562D01*
X77108000Y-89327146D01*
X77108000Y-89102115D01*
X77103525Y-89086876D01*
X77102135Y-89085671D01*
X77094452Y-89084000D01*
X76297115Y-89084000D01*
X76281876Y-89088475D01*
X76280671Y-89089865D01*
X76279000Y-89097548D01*
X76279000Y-90019884D01*
X75771000Y-90019884D01*
X75771000Y-88557885D01*
X76279000Y-88557885D01*
X76283475Y-88573124D01*
X76284865Y-88574329D01*
X76292548Y-88576000D01*
X77089884Y-88576000D01*
X77105123Y-88571525D01*
X77106328Y-88570135D01*
X77107999Y-88562452D01*
X77107999Y-88332905D01*
X77107662Y-88326386D01*
X77097743Y-88230794D01*
X77094851Y-88217400D01*
X77043412Y-88063216D01*
X77037239Y-88050038D01*
X76951937Y-87912193D01*
X76942901Y-87900792D01*
X76828171Y-87786261D01*
X76816760Y-87777249D01*
X76678757Y-87692184D01*
X76665576Y-87686037D01*
X76511290Y-87634862D01*
X76497914Y-87631995D01*
X76403562Y-87622328D01*
X76397145Y-87622000D01*
X76297115Y-87622000D01*
X76281876Y-87626475D01*
X76280671Y-87627865D01*
X76279000Y-87635548D01*
X76279000Y-88557885D01*
X75771000Y-88557885D01*
X75771000Y-87640116D01*
X75766525Y-87624877D01*
X75765135Y-87623672D01*
X75757452Y-87622001D01*
X75652905Y-87622001D01*
X75646386Y-87622338D01*
X75550794Y-87632257D01*
X75537400Y-87635149D01*
X75424376Y-87672856D01*
X75353426Y-87675440D01*
X75292342Y-87639256D01*
X75260518Y-87575792D01*
X75258500Y-87553332D01*
X75258500Y-86885740D01*
X75261087Y-86861424D01*
X75261154Y-86860001D01*
X75263346Y-86849820D01*
X75259373Y-86816252D01*
X75259021Y-86810278D01*
X75258928Y-86810286D01*
X75258500Y-86805108D01*
X75258500Y-86799908D01*
X75257104Y-86791521D01*
X75255314Y-86780765D01*
X75254477Y-86774886D01*
X75249642Y-86734033D01*
X75249642Y-86734032D01*
X75248418Y-86723693D01*
X75244433Y-86715394D01*
X75242922Y-86706317D01*
X75218456Y-86660974D01*
X75215760Y-86655683D01*
X75196873Y-86616349D01*
X75196871Y-86616345D01*
X75193441Y-86609203D01*
X75189831Y-86604908D01*
X75187904Y-86602981D01*
X75186109Y-86601024D01*
X75186078Y-86600966D01*
X75186207Y-86600848D01*
X75185710Y-86600284D01*
X75182612Y-86594543D01*
X75174577Y-86587115D01*
X75142805Y-86557746D01*
X75139239Y-86554316D01*
X74988551Y-86403628D01*
X74954525Y-86341316D01*
X74957228Y-86303527D01*
X74936548Y-86308038D01*
X74870014Y-86283264D01*
X74856372Y-86271449D01*
X74659357Y-86074434D01*
X74625331Y-86012122D01*
X74630396Y-85941307D01*
X74674390Y-85883403D01*
X74675817Y-85882366D01*
X74754262Y-85825372D01*
X74821128Y-85801515D01*
X74890279Y-85817594D01*
X74939760Y-85868508D01*
X74949410Y-85900062D01*
X74951068Y-85899668D01*
X74956521Y-85922604D01*
X75001676Y-86043054D01*
X75010214Y-86058649D01*
X75046293Y-86106789D01*
X75071141Y-86173296D01*
X75067687Y-86189216D01*
X75068657Y-86188854D01*
X75138031Y-86203945D01*
X75153211Y-86213707D01*
X75201351Y-86249786D01*
X75216946Y-86258324D01*
X75337394Y-86303478D01*
X75352649Y-86307105D01*
X75403514Y-86312631D01*
X75410328Y-86313000D01*
X75857885Y-86313000D01*
X75873124Y-86308525D01*
X75874329Y-86307135D01*
X75876000Y-86299452D01*
X75876000Y-86294884D01*
X76384000Y-86294884D01*
X76388475Y-86310123D01*
X76389865Y-86311328D01*
X76397548Y-86312999D01*
X76849669Y-86312999D01*
X76856490Y-86312629D01*
X76907352Y-86307105D01*
X76922604Y-86303479D01*
X77043054Y-86258324D01*
X77058649Y-86249786D01*
X77160724Y-86173285D01*
X77173285Y-86160724D01*
X77249786Y-86058649D01*
X77258324Y-86043054D01*
X77303478Y-85922606D01*
X77307105Y-85907351D01*
X77312631Y-85856486D01*
X77313000Y-85849672D01*
X77313000Y-85402115D01*
X77308525Y-85386876D01*
X77307135Y-85385671D01*
X77299452Y-85384000D01*
X76402115Y-85384000D01*
X76386876Y-85388475D01*
X76385671Y-85389865D01*
X76384000Y-85397548D01*
X76384000Y-86294884D01*
X75876000Y-86294884D01*
X75876000Y-84857885D01*
X76384000Y-84857885D01*
X76388475Y-84873124D01*
X76389865Y-84874329D01*
X76397548Y-84876000D01*
X77294884Y-84876000D01*
X77310123Y-84871525D01*
X77311328Y-84870135D01*
X77312999Y-84862452D01*
X77312999Y-84410331D01*
X77312629Y-84403510D01*
X77307105Y-84352648D01*
X77303479Y-84337396D01*
X77258324Y-84216946D01*
X77249786Y-84201351D01*
X77173285Y-84099276D01*
X77160724Y-84086715D01*
X77058649Y-84010214D01*
X77043054Y-84001676D01*
X76922606Y-83956522D01*
X76907351Y-83952895D01*
X76856486Y-83947369D01*
X76849672Y-83947000D01*
X76402115Y-83947000D01*
X76386876Y-83951475D01*
X76385671Y-83952865D01*
X76384000Y-83960548D01*
X76384000Y-84857885D01*
X75876000Y-84857885D01*
X75876000Y-83965116D01*
X75871525Y-83949877D01*
X75870135Y-83948672D01*
X75862452Y-83947001D01*
X75410331Y-83947001D01*
X75403510Y-83947371D01*
X75352648Y-83952895D01*
X75337396Y-83956521D01*
X75216946Y-84001676D01*
X75201351Y-84010214D01*
X75099276Y-84086715D01*
X75086715Y-84099276D01*
X75010214Y-84201351D01*
X75001676Y-84216946D01*
X74956522Y-84337394D01*
X74951068Y-84360331D01*
X74948058Y-84359615D01*
X74926316Y-84411892D01*
X74867939Y-84452299D01*
X74796984Y-84454731D01*
X74754260Y-84434626D01*
X74602652Y-84324476D01*
X74602651Y-84324475D01*
X74597310Y-84320595D01*
X74591281Y-84317911D01*
X74591278Y-84317909D01*
X74424849Y-84243811D01*
X74424846Y-84243810D01*
X74418813Y-84241124D01*
X74305066Y-84216946D01*
X74234151Y-84201872D01*
X74234146Y-84201872D01*
X74227694Y-84200500D01*
X74032306Y-84200500D01*
X74025854Y-84201872D01*
X74025849Y-84201872D01*
X73954934Y-84216946D01*
X73841187Y-84241124D01*
X73835154Y-84243810D01*
X73835151Y-84243811D01*
X73668722Y-84317909D01*
X73668719Y-84317911D01*
X73662690Y-84320595D01*
X73657349Y-84324475D01*
X73657348Y-84324476D01*
X73528960Y-84417756D01*
X73504617Y-84435442D01*
X73500196Y-84440352D01*
X73500195Y-84440353D01*
X73392576Y-84559877D01*
X73373877Y-84580644D01*
X73359030Y-84606360D01*
X73288692Y-84728189D01*
X73276182Y-84749856D01*
X73269701Y-84769804D01*
X73237584Y-84868651D01*
X73215804Y-84935682D01*
X73195380Y-85130000D01*
X73196070Y-85136565D01*
X73212932Y-85296989D01*
X73215804Y-85324318D01*
X73276182Y-85510144D01*
X73279485Y-85515866D01*
X73279486Y-85515867D01*
X73302368Y-85555499D01*
X73373877Y-85679356D01*
X73378295Y-85684263D01*
X73378296Y-85684264D01*
X73500195Y-85819647D01*
X73504617Y-85824558D01*
X73509959Y-85828439D01*
X73509961Y-85828441D01*
X73639565Y-85922604D01*
X73662690Y-85939405D01*
X73668719Y-85942089D01*
X73668722Y-85942091D01*
X73670865Y-85943045D01*
X73671904Y-85943928D01*
X73674443Y-85945394D01*
X73674175Y-85945858D01*
X73724960Y-85989026D01*
X73744733Y-86061373D01*
X73743655Y-86066380D01*
X73744878Y-86076715D01*
X73744878Y-86076718D01*
X73747627Y-86099942D01*
X73747979Y-86105920D01*
X73748072Y-86105912D01*
X73748500Y-86111090D01*
X73748500Y-86116292D01*
X73749354Y-86121422D01*
X73751686Y-86135432D01*
X73752522Y-86141304D01*
X73758582Y-86192507D01*
X73762567Y-86200806D01*
X73764078Y-86209883D01*
X73788558Y-86255251D01*
X73791239Y-86260514D01*
X73810127Y-86299850D01*
X73810130Y-86299854D01*
X73813560Y-86306998D01*
X73817170Y-86311292D01*
X73819102Y-86313224D01*
X73820889Y-86315173D01*
X73820918Y-86315226D01*
X73820788Y-86315345D01*
X73821289Y-86315913D01*
X73824388Y-86321657D01*
X73832033Y-86328724D01*
X73864209Y-86358467D01*
X73867775Y-86361897D01*
X74458595Y-86952717D01*
X74492621Y-87015029D01*
X74495500Y-87041812D01*
X74495500Y-87751121D01*
X74475498Y-87819242D01*
X74421842Y-87865735D01*
X74355891Y-87876384D01*
X74347756Y-87875500D01*
X73602244Y-87875500D01*
X73598848Y-87875869D01*
X73598847Y-87875869D01*
X73548403Y-87881349D01*
X73548402Y-87881349D01*
X73540552Y-87882202D01*
X73533159Y-87884974D01*
X73533157Y-87884974D01*
X73504049Y-87895886D01*
X73405236Y-87932929D01*
X73398057Y-87938309D01*
X73398054Y-87938311D01*
X73372285Y-87957624D01*
X73289596Y-88019596D01*
X73284215Y-88026776D01*
X73208311Y-88128054D01*
X73208309Y-88128057D01*
X73202929Y-88135236D01*
X73152202Y-88270552D01*
X73151349Y-88278402D01*
X73151349Y-88278403D01*
X73146469Y-88323327D01*
X73145500Y-88332244D01*
X73145500Y-89327756D01*
X73145869Y-89331152D01*
X73145869Y-89331153D01*
X73147491Y-89346079D01*
X73152202Y-89389448D01*
X73154974Y-89396841D01*
X73154974Y-89396843D01*
X73156148Y-89399975D01*
X73202929Y-89524764D01*
X73208309Y-89531943D01*
X73208311Y-89531946D01*
X73255999Y-89595576D01*
X73289596Y-89640404D01*
X73296776Y-89645785D01*
X73398054Y-89721689D01*
X73398057Y-89721691D01*
X73405236Y-89727071D01*
X73413639Y-89730221D01*
X73448229Y-89743188D01*
X73504994Y-89785829D01*
X73529694Y-89852390D01*
X73530000Y-89861170D01*
X73530000Y-93091679D01*
X73509998Y-93159800D01*
X73456342Y-93206293D01*
X73386068Y-93216397D01*
X73328435Y-93192505D01*
X73289934Y-93163650D01*
X73247419Y-93106791D01*
X73239499Y-93062824D01*
X73239499Y-92894934D01*
X73229483Y-92844576D01*
X73229484Y-92795419D01*
X73239500Y-92745067D01*
X73239499Y-92244934D01*
X73229483Y-92194576D01*
X73229484Y-92145421D01*
X73239500Y-92095067D01*
X73239499Y-91594934D01*
X73229483Y-91544576D01*
X73229484Y-91495421D01*
X73239500Y-91445067D01*
X73239499Y-90944934D01*
X73228239Y-90888320D01*
X73227156Y-90882874D01*
X73227155Y-90882872D01*
X73224734Y-90870699D01*
X73214218Y-90854960D01*
X73175377Y-90796832D01*
X73168484Y-90786516D01*
X73084301Y-90730266D01*
X73010067Y-90715500D01*
X72260122Y-90715500D01*
X71509934Y-90715501D01*
X71474182Y-90722612D01*
X71447874Y-90727844D01*
X71447872Y-90727845D01*
X71435699Y-90730266D01*
X71425379Y-90737162D01*
X71425377Y-90737163D01*
X71388986Y-90761479D01*
X71321233Y-90782695D01*
X71252766Y-90763913D01*
X71223531Y-90738964D01*
X71200916Y-90712719D01*
X71195056Y-90705918D01*
X71073790Y-90627317D01*
X71056921Y-90622272D01*
X70943938Y-90588482D01*
X70943936Y-90588482D01*
X70935337Y-90585910D01*
X70926363Y-90585855D01*
X70926361Y-90585855D01*
X70863082Y-90585469D01*
X70790827Y-90585028D01*
X70782196Y-90587495D01*
X70782194Y-90587495D01*
X70660509Y-90622272D01*
X70660505Y-90622274D01*
X70651879Y-90624739D01*
X70644292Y-90629526D01*
X70644290Y-90629527D01*
X70549494Y-90689339D01*
X70529661Y-90701853D01*
X70523718Y-90708582D01*
X70523717Y-90708583D01*
X70461953Y-90778518D01*
X70401868Y-90816336D01*
X70330874Y-90815666D01*
X70278417Y-90784205D01*
X70278313Y-90784101D01*
X70244287Y-90721789D01*
X70249352Y-90650974D01*
X70254007Y-90640089D01*
X70285560Y-90574962D01*
X70309536Y-90432453D01*
X70309688Y-90420000D01*
X70289201Y-90276948D01*
X70229388Y-90145395D01*
X70223530Y-90138596D01*
X70223527Y-90138592D01*
X70140916Y-90042718D01*
X70140913Y-90042716D01*
X70135056Y-90035918D01*
X70059810Y-89987146D01*
X70021324Y-89962200D01*
X70021322Y-89962199D01*
X70013790Y-89957317D01*
X69985158Y-89948754D01*
X69883938Y-89918482D01*
X69883936Y-89918482D01*
X69875337Y-89915910D01*
X69866363Y-89915855D01*
X69866361Y-89915855D01*
X69803082Y-89915469D01*
X69730827Y-89915028D01*
X69722196Y-89917495D01*
X69722194Y-89917495D01*
X69600509Y-89952272D01*
X69600505Y-89952274D01*
X69591879Y-89954739D01*
X69584292Y-89959526D01*
X69584290Y-89959527D01*
X69481391Y-90024452D01*
X69469661Y-90031853D01*
X69463718Y-90038582D01*
X69463717Y-90038583D01*
X69403524Y-90106739D01*
X69373999Y-90140170D01*
X69370185Y-90148293D01*
X69370184Y-90148295D01*
X69340524Y-90211469D01*
X69312583Y-90270982D01*
X69311203Y-90279846D01*
X69311202Y-90279849D01*
X69294908Y-90384501D01*
X69290350Y-90413773D01*
X69291514Y-90422675D01*
X69291514Y-90422678D01*
X69303157Y-90511709D01*
X69309088Y-90557065D01*
X69367289Y-90689339D01*
X69373061Y-90696206D01*
X69373065Y-90696212D01*
X69439640Y-90775412D01*
X69468161Y-90840427D01*
X69457005Y-90910542D01*
X69409713Y-90963494D01*
X69341300Y-90982473D01*
X69298964Y-90974470D01*
X69239342Y-90952119D01*
X69178415Y-90945500D01*
X68887543Y-90945500D01*
X68596586Y-90945501D01*
X68593192Y-90945870D01*
X68593186Y-90945870D01*
X68543517Y-90951265D01*
X68543514Y-90951266D01*
X68535658Y-90952119D01*
X68528256Y-90954894D01*
X68528255Y-90954894D01*
X68447068Y-90985329D01*
X68402018Y-91002217D01*
X68394835Y-91007601D01*
X68394834Y-91007601D01*
X68299445Y-91079092D01*
X68287811Y-91087811D01*
X68282429Y-91094992D01*
X68226937Y-91169035D01*
X68202217Y-91202018D01*
X68199065Y-91210426D01*
X68157913Y-91320203D01*
X68152119Y-91335658D01*
X68145500Y-91396585D01*
X68145501Y-92403414D01*
X68145870Y-92406808D01*
X68145870Y-92406814D01*
X68146006Y-92408060D01*
X68152119Y-92464342D01*
X68154894Y-92471744D01*
X68154894Y-92471745D01*
X68184651Y-92551124D01*
X68202217Y-92597982D01*
X68207601Y-92605165D01*
X68207601Y-92605166D01*
X68229955Y-92634992D01*
X68287811Y-92712189D01*
X68294992Y-92717571D01*
X68340285Y-92751516D01*
X68402018Y-92797783D01*
X68410426Y-92800935D01*
X68528260Y-92845108D01*
X68528262Y-92845109D01*
X68535658Y-92847881D01*
X68596585Y-92854500D01*
X68887457Y-92854500D01*
X69178414Y-92854499D01*
X69181808Y-92854130D01*
X69181814Y-92854130D01*
X69231484Y-92848735D01*
X69231488Y-92848734D01*
X69239342Y-92847881D01*
X69246742Y-92845107D01*
X69254425Y-92843280D01*
X69255178Y-92846447D01*
X69311056Y-92842350D01*
X69320581Y-92844798D01*
X69361721Y-92857101D01*
X69367342Y-92858927D01*
X69416002Y-92876016D01*
X69421591Y-92876500D01*
X69424304Y-92876500D01*
X69426969Y-92876615D01*
X69427032Y-92876634D01*
X69427025Y-92876808D01*
X69427771Y-92876855D01*
X69434024Y-92878725D01*
X69483883Y-92876766D01*
X69488178Y-92876597D01*
X69493125Y-92876500D01*
X70079488Y-92876500D01*
X70149307Y-92897613D01*
X70228101Y-92950063D01*
X70228103Y-92950064D01*
X70235574Y-92955037D01*
X70244138Y-92957713D01*
X70244141Y-92957714D01*
X70295258Y-92973684D01*
X70373510Y-92998132D01*
X70517998Y-93000780D01*
X70537530Y-92995455D01*
X70648763Y-92965130D01*
X70648765Y-92965129D01*
X70657422Y-92962769D01*
X70767590Y-92895125D01*
X70833519Y-92876500D01*
X71154500Y-92876500D01*
X71222621Y-92896502D01*
X71269114Y-92950158D01*
X71280500Y-93002500D01*
X71280500Y-93062825D01*
X71260498Y-93130946D01*
X71230065Y-93163652D01*
X71179272Y-93201719D01*
X71166715Y-93214276D01*
X71090214Y-93316351D01*
X71081676Y-93331946D01*
X71036522Y-93452394D01*
X71032895Y-93467649D01*
X71027369Y-93518514D01*
X71027000Y-93525328D01*
X71027000Y-93551885D01*
X71031475Y-93567124D01*
X71032865Y-93568329D01*
X71040548Y-93570000D01*
X71338011Y-93570000D01*
X71408014Y-93591236D01*
X71425379Y-93602839D01*
X71425382Y-93602840D01*
X71435699Y-93609734D01*
X71447868Y-93612155D01*
X71447869Y-93612155D01*
X71473806Y-93617314D01*
X71509933Y-93624500D01*
X71524054Y-93624500D01*
X72359001Y-93624499D01*
X72427121Y-93644501D01*
X72473614Y-93698157D01*
X72485000Y-93750499D01*
X72485000Y-93839500D01*
X72464998Y-93907621D01*
X72411342Y-93954114D01*
X72359000Y-93965500D01*
X71524060Y-93965501D01*
X71509934Y-93965501D01*
X71435699Y-93980266D01*
X71425379Y-93987161D01*
X71425378Y-93987162D01*
X71408014Y-93998764D01*
X71338011Y-94020000D01*
X71045116Y-94020000D01*
X71029877Y-94024475D01*
X71028672Y-94025865D01*
X71027001Y-94033548D01*
X71027001Y-94034486D01*
X71026214Y-94037167D01*
X71024122Y-94046783D01*
X71023434Y-94046633D01*
X71006999Y-94102607D01*
X70953343Y-94149100D01*
X70883069Y-94159204D01*
X70818489Y-94129710D01*
X70811906Y-94123581D01*
X70185127Y-93496802D01*
X70175272Y-93485713D01*
X70162334Y-93469301D01*
X70154564Y-93459445D01*
X70146817Y-93454090D01*
X70146815Y-93454089D01*
X70106919Y-93426516D01*
X70103696Y-93424213D01*
X70064660Y-93395380D01*
X70057081Y-93389782D01*
X70050350Y-93387418D01*
X70044484Y-93383364D01*
X69989266Y-93365901D01*
X69985525Y-93364653D01*
X69939714Y-93348565D01*
X69939709Y-93348564D01*
X69930827Y-93345445D01*
X69923698Y-93345165D01*
X69916900Y-93343015D01*
X69910357Y-93342500D01*
X69858341Y-93342500D01*
X69853395Y-93342403D01*
X69853133Y-93342393D01*
X69797116Y-93340192D01*
X69790081Y-93342057D01*
X69782035Y-93342500D01*
X67799400Y-93342500D01*
X67731279Y-93322498D01*
X67684786Y-93268842D01*
X67673400Y-93216500D01*
X67673400Y-92672102D01*
X67688879Y-92611595D01*
X67692399Y-92605166D01*
X67697783Y-92597982D01*
X67715349Y-92551124D01*
X67745108Y-92471740D01*
X67745109Y-92471738D01*
X67747881Y-92464342D01*
X67754500Y-92403415D01*
X67754499Y-91396586D01*
X67753417Y-91386626D01*
X67748735Y-91343517D01*
X67748734Y-91343511D01*
X67747881Y-91335658D01*
X67742088Y-91320203D01*
X67700935Y-91210426D01*
X67697783Y-91202018D01*
X67692398Y-91194833D01*
X67688879Y-91188405D01*
X67673400Y-91127898D01*
X67673400Y-90000944D01*
X67693402Y-89932823D01*
X67710305Y-89911849D01*
X68313055Y-89309099D01*
X68375367Y-89275073D01*
X68446182Y-89280138D01*
X68503018Y-89322685D01*
X68520132Y-89353966D01*
X68527929Y-89374764D01*
X68533309Y-89381943D01*
X68533311Y-89381946D01*
X68590878Y-89458757D01*
X68614596Y-89490404D01*
X68621776Y-89495785D01*
X68723054Y-89571689D01*
X68723057Y-89571691D01*
X68730236Y-89577071D01*
X68815963Y-89609208D01*
X68858157Y-89625026D01*
X68858159Y-89625026D01*
X68865552Y-89627798D01*
X68873402Y-89628651D01*
X68873403Y-89628651D01*
X68915498Y-89633224D01*
X68927244Y-89634500D01*
X69647756Y-89634500D01*
X69659502Y-89633224D01*
X69701597Y-89628651D01*
X69701598Y-89628651D01*
X69709448Y-89627798D01*
X69716841Y-89625026D01*
X69716843Y-89625026D01*
X69759037Y-89609208D01*
X69844764Y-89577071D01*
X69851943Y-89571691D01*
X69851946Y-89571689D01*
X69953224Y-89495785D01*
X69960404Y-89490404D01*
X69984122Y-89458757D01*
X70041689Y-89381946D01*
X70041691Y-89381943D01*
X70047071Y-89374764D01*
X70082297Y-89280798D01*
X70095026Y-89246843D01*
X70095026Y-89246841D01*
X70097798Y-89239448D01*
X70102954Y-89191992D01*
X70104131Y-89181153D01*
X70104131Y-89181152D01*
X70104500Y-89177756D01*
X70104500Y-88773344D01*
X70124502Y-88705223D01*
X70178158Y-88658730D01*
X70248432Y-88648626D01*
X70313012Y-88678120D01*
X70319595Y-88684249D01*
X70523393Y-88888047D01*
X70529247Y-88894313D01*
X70553320Y-88921908D01*
X70564524Y-88934752D01*
X70609385Y-88966281D01*
X70613093Y-88968887D01*
X70618386Y-88972818D01*
X70665122Y-89009463D01*
X70672050Y-89012591D01*
X70678206Y-89016319D01*
X70682825Y-89018954D01*
X70689181Y-89022362D01*
X70695397Y-89026731D01*
X70702476Y-89029491D01*
X70750698Y-89048292D01*
X70756779Y-89050848D01*
X70760653Y-89052597D01*
X70810912Y-89075290D01*
X70818386Y-89076675D01*
X70825220Y-89078817D01*
X70830368Y-89080284D01*
X70837353Y-89082077D01*
X70844434Y-89084838D01*
X70851971Y-89085830D01*
X70851970Y-89085830D01*
X70903289Y-89092586D01*
X70909805Y-89093618D01*
X70960728Y-89103056D01*
X70960730Y-89103056D01*
X70968197Y-89104440D01*
X70975777Y-89104003D01*
X70975778Y-89104003D01*
X71025968Y-89101109D01*
X71033221Y-89100900D01*
X72030112Y-89100900D01*
X72148805Y-89086537D01*
X72169235Y-89078817D01*
X72291339Y-89032678D01*
X72291342Y-89032677D01*
X72298441Y-89029994D01*
X72430271Y-88939389D01*
X72488267Y-88874296D01*
X72531630Y-88825627D01*
X72531632Y-88825624D01*
X72536683Y-88819955D01*
X72543132Y-88807776D01*
X72607981Y-88685297D01*
X72611535Y-88678585D01*
X72631666Y-88598439D01*
X72648653Y-88530812D01*
X72648653Y-88530808D01*
X72650504Y-88523441D01*
X72651342Y-88363480D01*
X72643028Y-88328847D01*
X72615771Y-88215317D01*
X72615770Y-88215315D01*
X72613999Y-88207937D01*
X72554421Y-88092507D01*
X72544115Y-88072539D01*
X72544115Y-88072538D01*
X72540632Y-88065791D01*
X72531118Y-88054884D01*
X72440470Y-87950973D01*
X72435476Y-87945248D01*
X72377499Y-87904501D01*
X72310820Y-87857638D01*
X72310818Y-87857637D01*
X72304603Y-87853269D01*
X72195268Y-87810641D01*
X72162646Y-87797922D01*
X72162643Y-87797921D01*
X72155566Y-87795162D01*
X72148033Y-87794170D01*
X72148032Y-87794170D01*
X72037648Y-87779638D01*
X72037647Y-87779638D01*
X72033561Y-87779100D01*
X71335943Y-87779100D01*
X71267822Y-87759098D01*
X71246848Y-87742195D01*
X70486614Y-86981961D01*
X70480760Y-86975695D01*
X70471794Y-86965417D01*
X70445476Y-86935248D01*
X70396898Y-86901107D01*
X70391604Y-86897175D01*
X70359918Y-86872329D01*
X70344879Y-86860537D01*
X70337955Y-86857411D01*
X70331824Y-86853698D01*
X70327204Y-86851062D01*
X70320822Y-86847640D01*
X70314603Y-86843269D01*
X70259286Y-86821701D01*
X70253207Y-86819146D01*
X70206012Y-86797837D01*
X70206010Y-86797837D01*
X70199088Y-86794711D01*
X70192502Y-86793490D01*
X70133798Y-86754245D01*
X70105478Y-86689141D01*
X70104500Y-86673469D01*
X70104500Y-86182244D01*
X70097798Y-86120552D01*
X70047071Y-85985236D01*
X70041691Y-85978057D01*
X70041689Y-85978054D01*
X69963574Y-85873826D01*
X69938726Y-85807319D01*
X69938400Y-85798261D01*
X69938400Y-84788396D01*
X69958402Y-84720275D01*
X69963574Y-84712831D01*
X70031689Y-84621946D01*
X70031691Y-84621943D01*
X70037071Y-84614764D01*
X70071429Y-84523113D01*
X70085026Y-84486843D01*
X70085026Y-84486841D01*
X70087798Y-84479448D01*
X70093001Y-84431559D01*
X70094131Y-84421153D01*
X70094131Y-84421152D01*
X70094500Y-84417756D01*
X70094500Y-81422244D01*
X70092396Y-81402874D01*
X70088651Y-81368403D01*
X70088651Y-81368402D01*
X70087798Y-81360552D01*
X70037071Y-81225236D01*
X70031691Y-81218057D01*
X70031689Y-81218054D01*
X69955785Y-81116776D01*
X69950404Y-81109596D01*
X69929977Y-81094287D01*
X69841946Y-81028311D01*
X69841943Y-81028309D01*
X69834764Y-81022929D01*
X69745046Y-80989296D01*
X69706843Y-80974974D01*
X69706841Y-80974974D01*
X69699448Y-80972202D01*
X69691598Y-80971349D01*
X69691597Y-80971349D01*
X69641153Y-80965869D01*
X69641152Y-80965869D01*
X69637756Y-80965500D01*
X68917244Y-80965500D01*
X68913848Y-80965869D01*
X68913847Y-80965869D01*
X68863403Y-80971349D01*
X68863402Y-80971349D01*
X68855552Y-80972202D01*
X68848159Y-80974974D01*
X68848157Y-80974974D01*
X68809954Y-80989296D01*
X68720236Y-81022929D01*
X68713057Y-81028309D01*
X68713054Y-81028311D01*
X68625023Y-81094287D01*
X68604596Y-81109596D01*
X68599215Y-81116776D01*
X68523311Y-81218054D01*
X68523309Y-81218057D01*
X68517929Y-81225236D01*
X68467202Y-81360552D01*
X68466349Y-81368402D01*
X68466349Y-81368403D01*
X68462604Y-81402874D01*
X68460500Y-81422244D01*
X68460500Y-84417756D01*
X68460869Y-84421152D01*
X68460869Y-84421153D01*
X68462000Y-84431559D01*
X68467202Y-84479448D01*
X68469974Y-84486841D01*
X68469974Y-84486843D01*
X68483571Y-84523113D01*
X68517929Y-84614764D01*
X68523309Y-84621943D01*
X68523311Y-84621946D01*
X68591426Y-84712831D01*
X68616274Y-84779338D01*
X68616600Y-84788396D01*
X68616600Y-85824947D01*
X68596598Y-85893068D01*
X68591426Y-85900512D01*
X68533311Y-85978054D01*
X68533309Y-85978057D01*
X68527929Y-85985236D01*
X68477202Y-86120552D01*
X68470500Y-86182244D01*
X68470500Y-87230156D01*
X68450498Y-87298277D01*
X68433595Y-87319251D01*
X66564461Y-89188386D01*
X66558196Y-89194239D01*
X66517748Y-89229524D01*
X66483739Y-89277914D01*
X66483609Y-89278099D01*
X66479677Y-89283393D01*
X66443037Y-89330121D01*
X66439911Y-89337045D01*
X66436198Y-89343176D01*
X66433562Y-89347796D01*
X66430140Y-89354178D01*
X66425769Y-89360397D01*
X66420168Y-89374764D01*
X66404202Y-89415713D01*
X66401646Y-89421792D01*
X66377211Y-89475912D01*
X66375825Y-89483388D01*
X66373670Y-89490266D01*
X66372210Y-89495391D01*
X66370422Y-89502355D01*
X66367662Y-89509434D01*
X66360987Y-89560144D01*
X66359914Y-89568292D01*
X66358884Y-89574798D01*
X66348060Y-89633197D01*
X66348497Y-89640777D01*
X66348497Y-89640778D01*
X66351391Y-89690967D01*
X66351600Y-89698220D01*
X66351600Y-91127898D01*
X66336121Y-91188405D01*
X66332602Y-91194833D01*
X66327217Y-91202018D01*
X66324065Y-91210426D01*
X66282913Y-91320203D01*
X66277119Y-91335658D01*
X66270500Y-91396585D01*
X66270501Y-92403414D01*
X66270870Y-92406808D01*
X66270870Y-92406814D01*
X66271006Y-92408060D01*
X66277119Y-92464342D01*
X66279894Y-92471744D01*
X66279894Y-92471745D01*
X66309651Y-92551124D01*
X66327217Y-92597982D01*
X66332601Y-92605166D01*
X66336121Y-92611595D01*
X66351600Y-92672102D01*
X66351600Y-94100823D01*
X66331598Y-94168944D01*
X66326426Y-94176387D01*
X66307217Y-94202018D01*
X66304065Y-94210426D01*
X66262256Y-94321956D01*
X66257119Y-94335658D01*
X66253337Y-94370472D01*
X66251835Y-94384301D01*
X66250500Y-94396585D01*
X66250501Y-95403414D01*
X66250870Y-95406808D01*
X66250870Y-95406814D01*
X66255301Y-95447601D01*
X66257119Y-95464342D01*
X66259894Y-95471744D01*
X66259894Y-95471745D01*
X66295891Y-95567769D01*
X66307217Y-95597982D01*
X66312601Y-95605165D01*
X66312601Y-95605166D01*
X66348716Y-95653354D01*
X66392811Y-95712189D01*
X66399992Y-95717571D01*
X66469509Y-95769671D01*
X66507018Y-95797783D01*
X66515426Y-95800935D01*
X66633260Y-95845108D01*
X66633262Y-95845109D01*
X66640658Y-95847881D01*
X66701585Y-95854500D01*
X66992457Y-95854500D01*
X67283414Y-95854499D01*
X67286810Y-95854130D01*
X67286812Y-95854130D01*
X67297435Y-95852976D01*
X67335307Y-95848862D01*
X67405187Y-95861390D01*
X67438007Y-95885029D01*
X67520651Y-95967674D01*
X67601596Y-96048619D01*
X67635621Y-96110931D01*
X67638500Y-96137714D01*
X67638500Y-96423098D01*
X67618498Y-96491219D01*
X67564842Y-96537712D01*
X67494568Y-96547816D01*
X67468278Y-96541082D01*
X67364342Y-96502119D01*
X67303415Y-96495500D01*
X67012543Y-96495500D01*
X66721586Y-96495501D01*
X66718192Y-96495870D01*
X66718186Y-96495870D01*
X66668517Y-96501265D01*
X66668514Y-96501266D01*
X66660658Y-96502119D01*
X66653256Y-96504894D01*
X66653255Y-96504894D01*
X66557279Y-96540873D01*
X66527018Y-96552217D01*
X66519835Y-96557601D01*
X66519834Y-96557601D01*
X66474575Y-96591521D01*
X66412811Y-96637811D01*
X66327217Y-96752018D01*
X66324065Y-96760426D01*
X66284898Y-96864908D01*
X66277119Y-96885658D01*
X66270500Y-96946585D01*
X66270501Y-97953414D01*
X66270870Y-97956808D01*
X66270870Y-97956814D01*
X66276042Y-98004424D01*
X66277119Y-98014342D01*
X66279894Y-98021744D01*
X66279894Y-98021745D01*
X66309575Y-98100921D01*
X66327217Y-98147982D01*
X66332601Y-98155165D01*
X66332601Y-98155166D01*
X66358027Y-98189092D01*
X66412811Y-98262189D01*
X66517066Y-98340324D01*
X66559580Y-98397184D01*
X66567500Y-98441150D01*
X66567500Y-99017661D01*
X66547498Y-99085782D01*
X66493842Y-99132275D01*
X66466081Y-99141240D01*
X66420699Y-99150266D01*
X66410379Y-99157161D01*
X66410378Y-99157162D01*
X66369447Y-99184512D01*
X66336516Y-99206516D01*
X66280266Y-99290699D01*
X66265500Y-99364933D01*
X66265501Y-100215066D01*
X66280266Y-100289301D01*
X66287161Y-100299620D01*
X66287162Y-100299622D01*
X66293055Y-100308441D01*
X66336516Y-100373484D01*
X66346832Y-100380377D01*
X66399433Y-100415524D01*
X66420699Y-100429734D01*
X66494933Y-100444500D01*
X66969923Y-100444500D01*
X67445066Y-100444499D01*
X67480818Y-100437388D01*
X67507126Y-100432156D01*
X67507128Y-100432155D01*
X67519301Y-100429734D01*
X67529621Y-100422839D01*
X67529622Y-100422838D01*
X67593168Y-100380377D01*
X67603484Y-100373484D01*
X67659734Y-100289301D01*
X67674500Y-100215067D01*
X67674499Y-99364934D01*
X67667388Y-99329182D01*
X67662156Y-99302874D01*
X67662155Y-99302872D01*
X67659734Y-99290699D01*
X67619080Y-99229856D01*
X67610377Y-99216832D01*
X67603484Y-99206516D01*
X67519301Y-99150266D01*
X67520881Y-99147902D01*
X67479998Y-99114953D01*
X67457500Y-99043097D01*
X67457500Y-98493153D01*
X67477502Y-98425032D01*
X67531158Y-98378539D01*
X67601432Y-98368435D01*
X67666012Y-98397929D01*
X67697083Y-98438610D01*
X67703560Y-98452098D01*
X67707170Y-98456392D01*
X67709102Y-98458324D01*
X67710889Y-98460273D01*
X67710918Y-98460326D01*
X67710788Y-98460445D01*
X67711289Y-98461013D01*
X67714388Y-98466757D01*
X67722033Y-98473824D01*
X67754195Y-98503554D01*
X67757762Y-98506984D01*
X68272260Y-99021483D01*
X68287614Y-99040494D01*
X68288580Y-99041556D01*
X68294229Y-99050304D01*
X68302404Y-99056748D01*
X68302406Y-99056751D01*
X68320772Y-99071229D01*
X68325247Y-99075206D01*
X68325308Y-99075135D01*
X68329265Y-99078488D01*
X68332948Y-99082171D01*
X68337183Y-99085197D01*
X68337185Y-99085199D01*
X68348736Y-99093453D01*
X68353482Y-99097016D01*
X68393970Y-99128934D01*
X68402657Y-99131985D01*
X68410143Y-99137334D01*
X68420119Y-99140317D01*
X68420120Y-99140318D01*
X68459511Y-99152098D01*
X68465143Y-99153928D01*
X68513802Y-99171016D01*
X68519391Y-99171500D01*
X68522102Y-99171500D01*
X68524769Y-99171615D01*
X68524832Y-99171634D01*
X68524825Y-99171808D01*
X68525571Y-99171855D01*
X68531824Y-99173725D01*
X68585988Y-99171597D01*
X68590934Y-99171500D01*
X70874722Y-99171500D01*
X70942843Y-99191502D01*
X70989336Y-99245158D01*
X71000501Y-99290535D01*
X71000501Y-99293414D01*
X71007119Y-99354342D01*
X71009894Y-99361744D01*
X71009894Y-99361745D01*
X71032574Y-99422246D01*
X71057217Y-99487982D01*
X71062601Y-99495165D01*
X71062601Y-99495166D01*
X71127709Y-99582039D01*
X71142811Y-99602189D01*
X71149992Y-99607571D01*
X71215071Y-99656345D01*
X71257018Y-99687783D01*
X71265426Y-99690935D01*
X71283694Y-99697783D01*
X71376227Y-99732471D01*
X71389690Y-99737518D01*
X71446455Y-99780158D01*
X71471156Y-99846720D01*
X71455949Y-99916069D01*
X71405664Y-99966188D01*
X71345462Y-99981500D01*
X69995140Y-99981500D01*
X69970824Y-99978913D01*
X69969401Y-99978846D01*
X69959220Y-99976654D01*
X69925681Y-99980624D01*
X69925652Y-99980627D01*
X69919678Y-99980979D01*
X69919686Y-99981072D01*
X69914508Y-99981500D01*
X69909308Y-99981500D01*
X69904179Y-99982354D01*
X69904176Y-99982354D01*
X69890165Y-99984686D01*
X69884286Y-99985523D01*
X69843433Y-99990358D01*
X69843432Y-99990358D01*
X69833093Y-99991582D01*
X69824794Y-99995567D01*
X69815717Y-99997078D01*
X69786422Y-100012885D01*
X69770376Y-100021543D01*
X69765083Y-100024240D01*
X69725749Y-100043127D01*
X69725745Y-100043129D01*
X69718603Y-100046559D01*
X69714308Y-100050169D01*
X69712381Y-100052096D01*
X69710424Y-100053891D01*
X69710366Y-100053922D01*
X69710248Y-100053793D01*
X69709684Y-100054290D01*
X69703943Y-100057388D01*
X69696872Y-100065038D01*
X69696870Y-100065039D01*
X69681989Y-100081137D01*
X69621061Y-100117583D01*
X69550101Y-100115303D01*
X69541433Y-100111070D01*
X69541085Y-100111910D01*
X69529621Y-100107161D01*
X69519301Y-100100266D01*
X69445067Y-100085500D01*
X68970077Y-100085500D01*
X68494934Y-100085501D01*
X68462259Y-100092000D01*
X68432874Y-100097844D01*
X68432872Y-100097845D01*
X68420699Y-100100266D01*
X68410379Y-100107161D01*
X68410378Y-100107162D01*
X68372290Y-100132612D01*
X68336516Y-100156516D01*
X68280266Y-100240699D01*
X68265500Y-100314933D01*
X68265501Y-101165066D01*
X68269993Y-101187649D01*
X68275512Y-101215397D01*
X68280266Y-101239301D01*
X68287161Y-101249620D01*
X68287162Y-101249622D01*
X68323824Y-101304489D01*
X68336516Y-101323484D01*
X68420699Y-101379734D01*
X68494933Y-101394500D01*
X68969923Y-101394500D01*
X69445066Y-101394499D01*
X69480818Y-101387388D01*
X69507126Y-101382156D01*
X69507128Y-101382155D01*
X69519301Y-101379734D01*
X69529621Y-101372839D01*
X69529622Y-101372838D01*
X69593168Y-101330377D01*
X69603484Y-101323484D01*
X69659734Y-101239301D01*
X69670336Y-101186002D01*
X69674290Y-101166124D01*
X69707198Y-101103215D01*
X69743327Y-101077123D01*
X69779246Y-101059875D01*
X69779250Y-101059872D01*
X69786398Y-101056440D01*
X69790692Y-101052830D01*
X69792624Y-101050898D01*
X69794573Y-101049111D01*
X69794626Y-101049082D01*
X69794745Y-101049212D01*
X69795313Y-101048711D01*
X69801057Y-101045612D01*
X69837868Y-101005790D01*
X69841297Y-101002225D01*
X70062117Y-100781405D01*
X70124429Y-100747379D01*
X70151212Y-100744500D01*
X70634777Y-100744500D01*
X70702898Y-100764502D01*
X70749391Y-100818158D01*
X70760121Y-100883345D01*
X70757327Y-100910606D01*
X70757000Y-100917016D01*
X70757000Y-101147885D01*
X70761475Y-101163124D01*
X70762865Y-101164329D01*
X70770548Y-101166000D01*
X71880500Y-101166000D01*
X71948621Y-101186002D01*
X71995114Y-101239658D01*
X72006500Y-101292000D01*
X72006500Y-102609884D01*
X72010975Y-102625123D01*
X72012365Y-102626328D01*
X72020048Y-102627999D01*
X72042933Y-102627999D01*
X72049452Y-102627662D01*
X72144170Y-102617834D01*
X72157564Y-102614942D01*
X72310365Y-102563964D01*
X72323543Y-102557790D01*
X72460149Y-102473256D01*
X72471550Y-102464220D01*
X72585051Y-102350521D01*
X72594063Y-102339110D01*
X72678365Y-102202346D01*
X72684509Y-102189169D01*
X72705866Y-102124779D01*
X72746296Y-102066419D01*
X72811860Y-102039182D01*
X72881742Y-102051715D01*
X72935980Y-102103939D01*
X72939065Y-102109575D01*
X72942217Y-102117982D01*
X72947601Y-102125165D01*
X72947601Y-102125166D01*
X72999945Y-102195008D01*
X73027811Y-102232189D01*
X73034992Y-102237571D01*
X73094806Y-102282399D01*
X73142018Y-102317783D01*
X73150426Y-102320935D01*
X73268260Y-102365108D01*
X73268262Y-102365109D01*
X73275658Y-102367881D01*
X73336585Y-102374500D01*
X73627457Y-102374500D01*
X73918414Y-102374499D01*
X73921810Y-102374130D01*
X73921812Y-102374130D01*
X73928195Y-102373437D01*
X73970307Y-102368862D01*
X74040187Y-102381390D01*
X74073008Y-102405030D01*
X74698882Y-103030905D01*
X74732907Y-103093217D01*
X74727842Y-103164033D01*
X74685295Y-103220868D01*
X74618775Y-103245679D01*
X74609786Y-103246000D01*
X71537425Y-103246000D01*
X71512847Y-103243579D01*
X71500000Y-103241024D01*
X71487828Y-103243445D01*
X71476597Y-103245679D01*
X71474983Y-103246000D01*
X71400894Y-103260737D01*
X71390577Y-103267631D01*
X71390576Y-103267631D01*
X71371819Y-103280164D01*
X71316876Y-103316876D01*
X71260737Y-103400894D01*
X71241024Y-103500000D01*
X71243445Y-103512170D01*
X71243579Y-103512844D01*
X71246000Y-103537425D01*
X71246000Y-106120000D01*
X71225998Y-106188121D01*
X71172342Y-106234614D01*
X71120000Y-106246000D01*
X54769806Y-106246000D01*
X54701685Y-106225998D01*
X54655192Y-106172342D01*
X54645088Y-106102068D01*
X54660123Y-106057988D01*
X54763832Y-105874554D01*
X54763840Y-105874538D01*
X54765517Y-105871572D01*
X54778661Y-105841016D01*
X54896251Y-105567662D01*
X54896254Y-105567653D01*
X54897599Y-105564527D01*
X54940841Y-105423694D01*
X54994706Y-105248266D01*
X54994708Y-105248257D01*
X54995708Y-105245001D01*
X55033753Y-105046730D01*
X55058052Y-104920098D01*
X55058052Y-104920095D01*
X55058696Y-104916741D01*
X55085823Y-104583595D01*
X55079348Y-104344560D01*
X55076865Y-104252885D01*
X55076864Y-104252876D01*
X55076772Y-104249469D01*
X55044394Y-104011832D01*
X55032109Y-103921662D01*
X55032108Y-103921658D01*
X55031648Y-103918280D01*
X54950981Y-103593911D01*
X54863115Y-103354742D01*
X54836895Y-103283372D01*
X54836894Y-103283369D01*
X54835717Y-103280166D01*
X54818921Y-103246299D01*
X54718088Y-103042989D01*
X54687206Y-102980722D01*
X54507773Y-102700000D01*
X57890517Y-102700000D01*
X57910411Y-102927389D01*
X57911835Y-102932703D01*
X57911835Y-102932704D01*
X57955131Y-103094287D01*
X57969488Y-103147870D01*
X57971810Y-103152850D01*
X57971811Y-103152852D01*
X58063628Y-103349754D01*
X58063629Y-103349755D01*
X58065954Y-103354741D01*
X58196878Y-103541719D01*
X58358281Y-103703122D01*
X58545259Y-103834046D01*
X58550241Y-103836369D01*
X58550246Y-103836372D01*
X58733147Y-103921660D01*
X58752130Y-103930512D01*
X58757438Y-103931934D01*
X58757440Y-103931935D01*
X58761710Y-103933079D01*
X58972611Y-103989589D01*
X59071972Y-103998282D01*
X59140320Y-104004262D01*
X59140327Y-104004262D01*
X59143044Y-104004500D01*
X59256956Y-104004500D01*
X59259673Y-104004262D01*
X59259680Y-104004262D01*
X59328028Y-103998282D01*
X59427389Y-103989589D01*
X59638290Y-103933079D01*
X59642560Y-103931935D01*
X59642562Y-103931934D01*
X59647870Y-103930512D01*
X59666853Y-103921660D01*
X59762708Y-103876962D01*
X62827158Y-103876962D01*
X62858656Y-104000985D01*
X62862497Y-104011832D01*
X62948685Y-104198789D01*
X62954436Y-104208750D01*
X63073254Y-104376873D01*
X63080720Y-104385615D01*
X63228191Y-104529275D01*
X63237124Y-104536509D01*
X63408299Y-104650884D01*
X63418409Y-104656374D01*
X63607566Y-104737642D01*
X63618499Y-104741194D01*
X63708332Y-104761521D01*
X63722405Y-104760632D01*
X63726000Y-104751233D01*
X63726000Y-104750512D01*
X64234000Y-104750512D01*
X64237966Y-104764018D01*
X64251883Y-104766011D01*
X64262817Y-104763386D01*
X64457763Y-104697210D01*
X64468272Y-104692531D01*
X64647882Y-104591944D01*
X64657375Y-104585420D01*
X64815653Y-104453782D01*
X64823782Y-104445653D01*
X64955420Y-104287375D01*
X64961944Y-104277882D01*
X65062531Y-104098272D01*
X65067210Y-104087763D01*
X65133386Y-103892817D01*
X65136017Y-103881857D01*
X65134040Y-103867992D01*
X65120474Y-103864000D01*
X64252115Y-103864000D01*
X64236876Y-103868475D01*
X64235671Y-103869865D01*
X64234000Y-103877548D01*
X64234000Y-104750512D01*
X63726000Y-104750512D01*
X63726000Y-103882115D01*
X63721525Y-103866876D01*
X63720135Y-103865671D01*
X63712452Y-103864000D01*
X62841981Y-103864000D01*
X62828450Y-103867973D01*
X62827158Y-103876962D01*
X59762708Y-103876962D01*
X59849754Y-103836372D01*
X59849759Y-103836369D01*
X59854741Y-103834046D01*
X60041719Y-103703122D01*
X60203122Y-103541719D01*
X60334046Y-103354742D01*
X60336369Y-103349760D01*
X60336372Y-103349755D01*
X60428189Y-103152852D01*
X60428190Y-103152851D01*
X60430512Y-103147870D01*
X60444870Y-103094287D01*
X60488165Y-102932704D01*
X60488165Y-102932703D01*
X60489589Y-102927389D01*
X60509483Y-102700000D01*
X60489589Y-102472611D01*
X60486933Y-102462699D01*
X60431935Y-102257440D01*
X60431934Y-102257438D01*
X60430512Y-102252130D01*
X60408369Y-102204644D01*
X60336372Y-102050246D01*
X60336369Y-102050241D01*
X60334046Y-102045259D01*
X60253531Y-101930272D01*
X60206281Y-101862792D01*
X60206279Y-101862789D01*
X60203122Y-101858281D01*
X60041719Y-101696878D01*
X60028395Y-101687548D01*
X59935464Y-101622477D01*
X59854741Y-101565954D01*
X59849759Y-101563631D01*
X59849754Y-101563628D01*
X59652852Y-101471811D01*
X59652850Y-101471810D01*
X59647870Y-101469488D01*
X59642562Y-101468066D01*
X59642560Y-101468065D01*
X59432704Y-101411835D01*
X59432703Y-101411835D01*
X59427389Y-101410411D01*
X59328028Y-101401718D01*
X59259680Y-101395738D01*
X59259673Y-101395738D01*
X59256956Y-101395500D01*
X59143044Y-101395500D01*
X59140327Y-101395738D01*
X59140320Y-101395738D01*
X59071972Y-101401718D01*
X58972611Y-101410411D01*
X58967297Y-101411835D01*
X58967296Y-101411835D01*
X58757440Y-101468065D01*
X58757438Y-101468066D01*
X58752130Y-101469488D01*
X58747150Y-101471810D01*
X58747148Y-101471811D01*
X58550246Y-101563628D01*
X58550241Y-101563631D01*
X58545259Y-101565954D01*
X58464536Y-101622477D01*
X58371606Y-101687548D01*
X58358281Y-101696878D01*
X58196878Y-101858281D01*
X58193721Y-101862790D01*
X58193719Y-101862792D01*
X58151608Y-101922933D01*
X58065954Y-102045258D01*
X58063631Y-102050240D01*
X58063628Y-102050245D01*
X57976277Y-102237571D01*
X57969488Y-102252130D01*
X57968066Y-102257438D01*
X57968065Y-102257440D01*
X57913067Y-102462699D01*
X57910411Y-102472611D01*
X57890517Y-102700000D01*
X54507773Y-102700000D01*
X54507191Y-102699090D01*
X54505052Y-102696429D01*
X54505047Y-102696422D01*
X54299925Y-102441239D01*
X54299923Y-102441237D01*
X54297781Y-102438572D01*
X54061431Y-102202222D01*
X54058764Y-102200078D01*
X53803581Y-101994956D01*
X53803574Y-101994951D01*
X53800913Y-101992812D01*
X53519281Y-101812797D01*
X53275949Y-101692115D01*
X53222898Y-101665804D01*
X53222896Y-101665803D01*
X53219837Y-101664286D01*
X53206489Y-101659382D01*
X52989512Y-101579669D01*
X52906092Y-101549022D01*
X52581723Y-101468355D01*
X52578345Y-101467895D01*
X52578341Y-101467894D01*
X52253918Y-101423692D01*
X52253917Y-101423692D01*
X52250534Y-101423231D01*
X52247127Y-101423139D01*
X52247118Y-101423138D01*
X52078566Y-101418573D01*
X51916408Y-101414180D01*
X51583262Y-101441307D01*
X51579908Y-101441951D01*
X51579905Y-101441951D01*
X51424291Y-101471811D01*
X51255002Y-101504295D01*
X51251746Y-101505295D01*
X51251737Y-101505297D01*
X50952848Y-101597070D01*
X50935476Y-101602404D01*
X50932350Y-101603749D01*
X50932341Y-101603752D01*
X50706797Y-101700775D01*
X50628431Y-101734486D01*
X50625467Y-101736162D01*
X50625463Y-101736164D01*
X50442012Y-101839882D01*
X50372868Y-101855996D01*
X50305989Y-101832170D01*
X50262608Y-101775969D01*
X50254000Y-101730198D01*
X50254000Y-95706962D01*
X54167158Y-95706962D01*
X54198656Y-95830985D01*
X54202497Y-95841832D01*
X54288685Y-96028789D01*
X54294436Y-96038750D01*
X54413254Y-96206873D01*
X54420720Y-96215615D01*
X54568191Y-96359275D01*
X54577124Y-96366509D01*
X54748299Y-96480884D01*
X54758409Y-96486374D01*
X54947566Y-96567642D01*
X54958499Y-96571194D01*
X55048332Y-96591521D01*
X55062405Y-96590632D01*
X55066000Y-96581233D01*
X55066000Y-96580512D01*
X55574000Y-96580512D01*
X55577966Y-96594018D01*
X55591883Y-96596011D01*
X55602817Y-96593386D01*
X55797763Y-96527210D01*
X55808272Y-96522531D01*
X55987882Y-96421944D01*
X55997375Y-96415420D01*
X56155653Y-96283782D01*
X56163782Y-96275653D01*
X56295420Y-96117375D01*
X56301944Y-96107882D01*
X56402531Y-95928272D01*
X56407210Y-95917763D01*
X56473386Y-95722817D01*
X56476017Y-95711857D01*
X56474040Y-95697992D01*
X56460474Y-95694000D01*
X55592115Y-95694000D01*
X55576876Y-95698475D01*
X55575671Y-95699865D01*
X55574000Y-95707548D01*
X55574000Y-96580512D01*
X55066000Y-96580512D01*
X55066000Y-95712115D01*
X55061525Y-95696876D01*
X55060135Y-95695671D01*
X55052452Y-95694000D01*
X54181981Y-95694000D01*
X54168450Y-95697973D01*
X54167158Y-95706962D01*
X50254000Y-95706962D01*
X50254000Y-95182799D01*
X54165218Y-95182799D01*
X54171950Y-95186000D01*
X56459485Y-95186000D01*
X56473016Y-95182027D01*
X56474185Y-95173892D01*
X56430725Y-95019794D01*
X56426603Y-95009055D01*
X56335549Y-94824417D01*
X56329538Y-94814608D01*
X56206360Y-94649651D01*
X56198671Y-94641111D01*
X56047490Y-94501361D01*
X56038365Y-94494360D01*
X55880795Y-94394941D01*
X55833856Y-94341674D01*
X55823167Y-94271487D01*
X55852121Y-94206663D01*
X55873967Y-94186445D01*
X55930045Y-94145702D01*
X55940039Y-94138441D01*
X55940041Y-94138439D01*
X55945383Y-94134558D01*
X55950781Y-94128563D01*
X56071704Y-93994264D01*
X56071705Y-93994263D01*
X56076123Y-93989356D01*
X56165992Y-93833699D01*
X56217373Y-93784707D01*
X56275110Y-93770700D01*
X57164501Y-93770700D01*
X57232622Y-93790702D01*
X57279115Y-93844358D01*
X57290501Y-93896700D01*
X57290501Y-93943414D01*
X57290870Y-93946808D01*
X57290870Y-93946814D01*
X57293204Y-93968295D01*
X57297119Y-94004342D01*
X57299894Y-94011744D01*
X57299894Y-94011745D01*
X57326553Y-94082859D01*
X57347217Y-94137982D01*
X57352601Y-94145165D01*
X57352601Y-94145166D01*
X57363122Y-94159204D01*
X57432811Y-94252189D01*
X57439992Y-94257571D01*
X57535134Y-94328876D01*
X57547018Y-94337783D01*
X57555426Y-94340935D01*
X57673260Y-94385108D01*
X57673262Y-94385109D01*
X57680658Y-94387881D01*
X57741585Y-94394500D01*
X58032457Y-94394500D01*
X58323414Y-94394499D01*
X58326808Y-94394130D01*
X58326814Y-94394130D01*
X58376483Y-94388735D01*
X58376486Y-94388734D01*
X58384342Y-94387881D01*
X58398302Y-94382648D01*
X58509574Y-94340935D01*
X58517982Y-94337783D01*
X58529867Y-94328876D01*
X58625008Y-94257571D01*
X58632189Y-94252189D01*
X58701878Y-94159204D01*
X58712399Y-94145166D01*
X58712399Y-94145165D01*
X58717783Y-94137982D01*
X58724631Y-94119714D01*
X58765108Y-94011740D01*
X58765109Y-94011738D01*
X58767881Y-94004342D01*
X58774500Y-93943415D01*
X58774499Y-92936586D01*
X58773830Y-92930423D01*
X58768735Y-92883517D01*
X58768734Y-92883511D01*
X58767881Y-92875658D01*
X58762766Y-92862012D01*
X58720935Y-92750426D01*
X58717783Y-92742018D01*
X58694563Y-92711035D01*
X58637571Y-92634992D01*
X58632189Y-92627811D01*
X58536534Y-92556121D01*
X58525166Y-92547601D01*
X58525165Y-92547601D01*
X58517982Y-92542217D01*
X58502966Y-92536588D01*
X58391740Y-92494892D01*
X58391738Y-92494891D01*
X58384342Y-92492119D01*
X58323415Y-92485500D01*
X58032543Y-92485500D01*
X57741586Y-92485501D01*
X57738192Y-92485870D01*
X57738186Y-92485870D01*
X57688517Y-92491265D01*
X57688514Y-92491266D01*
X57680658Y-92492119D01*
X57673256Y-92494894D01*
X57673255Y-92494894D01*
X57562034Y-92536588D01*
X57547018Y-92542217D01*
X57539835Y-92547601D01*
X57539834Y-92547601D01*
X57528466Y-92556121D01*
X57432811Y-92627811D01*
X57427429Y-92634992D01*
X57370438Y-92711035D01*
X57347217Y-92742018D01*
X57344065Y-92750426D01*
X57302235Y-92862012D01*
X57297119Y-92875658D01*
X57290500Y-92936585D01*
X57290500Y-92983300D01*
X57270498Y-93051421D01*
X57216842Y-93097914D01*
X57164500Y-93109300D01*
X56275110Y-93109300D01*
X56206989Y-93089298D01*
X56165991Y-93046300D01*
X56165530Y-93045500D01*
X56076123Y-92890644D01*
X56069701Y-92883511D01*
X55949805Y-92750353D01*
X55949804Y-92750352D01*
X55945383Y-92745442D01*
X55936352Y-92738880D01*
X55792652Y-92634476D01*
X55792651Y-92634475D01*
X55787310Y-92630595D01*
X55742413Y-92610606D01*
X55688317Y-92564626D01*
X55667668Y-92496698D01*
X55687020Y-92428390D01*
X55740231Y-92381389D01*
X55793661Y-92369499D01*
X56020066Y-92369499D01*
X56057845Y-92361985D01*
X56082126Y-92357156D01*
X56082128Y-92357155D01*
X56094301Y-92354734D01*
X56104621Y-92347839D01*
X56104622Y-92347838D01*
X56168168Y-92305377D01*
X56178484Y-92298484D01*
X56234734Y-92214301D01*
X56249500Y-92140067D01*
X56249499Y-90739934D01*
X56239436Y-90689339D01*
X56237156Y-90677874D01*
X56237155Y-90677872D01*
X56234734Y-90665699D01*
X56212351Y-90632200D01*
X56185377Y-90591832D01*
X56178484Y-90581516D01*
X56094301Y-90525266D01*
X56020067Y-90510500D01*
X55950989Y-90510500D01*
X55882868Y-90490498D01*
X55836375Y-90436842D01*
X55824989Y-90384500D01*
X55824989Y-88010500D01*
X55844991Y-87942379D01*
X55898647Y-87895886D01*
X55950989Y-87884500D01*
X57112201Y-87884499D01*
X57593182Y-87884499D01*
X57661303Y-87904501D01*
X57682277Y-87921404D01*
X61701115Y-91940243D01*
X61735141Y-92002555D01*
X61730076Y-92073371D01*
X61687529Y-92130206D01*
X61621009Y-92155017D01*
X61611256Y-92155336D01*
X61560827Y-92155028D01*
X61552196Y-92157495D01*
X61552194Y-92157495D01*
X61430509Y-92192272D01*
X61430505Y-92192274D01*
X61421879Y-92194739D01*
X61414292Y-92199526D01*
X61414290Y-92199527D01*
X61307249Y-92267065D01*
X61307248Y-92267066D01*
X61299661Y-92271853D01*
X61286543Y-92286707D01*
X61226459Y-92324525D01*
X61192101Y-92329300D01*
X60707449Y-92329300D01*
X60696468Y-92328821D01*
X60669209Y-92326436D01*
X60669208Y-92326436D01*
X60658233Y-92325476D01*
X60621161Y-92335409D01*
X60610447Y-92337784D01*
X60594600Y-92340578D01*
X60583503Y-92342535D01*
X60583502Y-92342535D01*
X60572649Y-92344449D01*
X60563104Y-92349960D01*
X60559611Y-92351231D01*
X60556233Y-92352806D01*
X60545584Y-92355660D01*
X60536553Y-92361984D01*
X60536550Y-92361985D01*
X60514145Y-92377673D01*
X60504875Y-92383579D01*
X60471651Y-92402761D01*
X60464568Y-92411202D01*
X60464567Y-92411203D01*
X60446983Y-92432159D01*
X60439557Y-92440262D01*
X60410064Y-92469755D01*
X60347752Y-92503781D01*
X60276741Y-92498641D01*
X60259342Y-92492119D01*
X60198415Y-92485500D01*
X59907543Y-92485500D01*
X59616586Y-92485501D01*
X59613192Y-92485870D01*
X59613186Y-92485870D01*
X59563517Y-92491265D01*
X59563514Y-92491266D01*
X59555658Y-92492119D01*
X59548256Y-92494894D01*
X59548255Y-92494894D01*
X59437034Y-92536588D01*
X59422018Y-92542217D01*
X59414835Y-92547601D01*
X59414834Y-92547601D01*
X59403466Y-92556121D01*
X59307811Y-92627811D01*
X59302429Y-92634992D01*
X59245438Y-92711035D01*
X59222217Y-92742018D01*
X59219065Y-92750426D01*
X59177235Y-92862012D01*
X59172119Y-92875658D01*
X59165500Y-92936585D01*
X59165501Y-93943414D01*
X59165870Y-93946808D01*
X59165870Y-93946814D01*
X59168204Y-93968295D01*
X59172119Y-94004342D01*
X59174894Y-94011744D01*
X59174894Y-94011745D01*
X59201553Y-94082859D01*
X59222217Y-94137982D01*
X59227601Y-94145165D01*
X59227601Y-94145166D01*
X59238122Y-94159204D01*
X59307811Y-94252189D01*
X59314992Y-94257571D01*
X59410134Y-94328876D01*
X59422018Y-94337783D01*
X59430426Y-94340935D01*
X59548260Y-94385108D01*
X59548262Y-94385109D01*
X59555658Y-94387881D01*
X59616585Y-94394500D01*
X59907457Y-94394500D01*
X60198414Y-94394499D01*
X60201808Y-94394130D01*
X60201814Y-94394130D01*
X60251483Y-94388735D01*
X60251486Y-94388734D01*
X60259342Y-94387881D01*
X60273302Y-94382648D01*
X60384574Y-94340935D01*
X60392982Y-94337783D01*
X60404867Y-94328876D01*
X60500008Y-94257571D01*
X60507189Y-94252189D01*
X60576878Y-94159204D01*
X60587399Y-94145166D01*
X60587399Y-94145165D01*
X60592783Y-94137982D01*
X60599631Y-94119714D01*
X60640108Y-94011740D01*
X60640109Y-94011738D01*
X60642881Y-94004342D01*
X60649500Y-93943415D01*
X60649499Y-93217872D01*
X60669501Y-93149751D01*
X60686404Y-93128776D01*
X60787577Y-93027604D01*
X60849889Y-92993579D01*
X60876672Y-92990700D01*
X61190181Y-92990700D01*
X61258302Y-93010702D01*
X61277431Y-93027529D01*
X61277809Y-93027106D01*
X61284499Y-93033087D01*
X61290276Y-93039960D01*
X61324624Y-93062824D01*
X61403101Y-93115063D01*
X61403103Y-93115064D01*
X61410574Y-93120037D01*
X61419138Y-93122713D01*
X61419141Y-93122714D01*
X61446278Y-93131192D01*
X61548510Y-93163132D01*
X61692998Y-93165780D01*
X61714933Y-93159800D01*
X61823763Y-93130130D01*
X61823765Y-93130129D01*
X61832422Y-93127769D01*
X61955572Y-93052154D01*
X61973406Y-93032452D01*
X62023372Y-92977250D01*
X62052551Y-92945014D01*
X62087408Y-92873069D01*
X62111645Y-92823043D01*
X62111645Y-92823042D01*
X62115560Y-92814962D01*
X62139536Y-92672453D01*
X62139564Y-92670197D01*
X62165307Y-92604801D01*
X62222900Y-92563286D01*
X62293796Y-92559498D01*
X62353893Y-92593021D01*
X63013595Y-93252723D01*
X63047621Y-93315035D01*
X63050500Y-93341818D01*
X63050501Y-93825867D01*
X63050501Y-94310066D01*
X63054753Y-94331442D01*
X63062841Y-94372108D01*
X63065266Y-94384301D01*
X63072161Y-94394620D01*
X63072162Y-94394622D01*
X63076331Y-94400861D01*
X63121516Y-94468484D01*
X63205699Y-94524734D01*
X63279933Y-94539500D01*
X63506337Y-94539500D01*
X63574458Y-94559502D01*
X63620951Y-94613158D01*
X63631055Y-94683432D01*
X63601561Y-94748012D01*
X63557586Y-94780606D01*
X63512690Y-94800595D01*
X63507349Y-94804475D01*
X63507348Y-94804476D01*
X63372634Y-94902352D01*
X63354617Y-94915442D01*
X63350196Y-94920352D01*
X63350195Y-94920353D01*
X63255901Y-95025078D01*
X63223877Y-95060644D01*
X63126182Y-95229856D01*
X63120228Y-95248181D01*
X63083090Y-95362482D01*
X63065804Y-95415682D01*
X63065114Y-95422245D01*
X63065114Y-95422246D01*
X63052152Y-95545573D01*
X63045380Y-95610000D01*
X63046070Y-95616565D01*
X63062858Y-95776285D01*
X63065804Y-95804318D01*
X63067844Y-95810596D01*
X63067844Y-95810597D01*
X63087859Y-95872197D01*
X63126182Y-95990144D01*
X63129485Y-95995866D01*
X63129486Y-95995867D01*
X63158095Y-96045418D01*
X63223877Y-96159356D01*
X63228295Y-96164263D01*
X63228296Y-96164264D01*
X63341830Y-96290357D01*
X63354617Y-96304558D01*
X63359959Y-96308439D01*
X63359961Y-96308441D01*
X63507205Y-96415420D01*
X63512690Y-96419405D01*
X63518719Y-96422089D01*
X63518722Y-96422091D01*
X63682241Y-96494893D01*
X63736337Y-96540873D01*
X63756987Y-96608800D01*
X63737635Y-96677108D01*
X63682241Y-96725107D01*
X63518722Y-96797909D01*
X63518719Y-96797911D01*
X63512690Y-96800595D01*
X63507349Y-96804475D01*
X63507348Y-96804476D01*
X63369895Y-96904342D01*
X63354617Y-96915442D01*
X63350196Y-96920352D01*
X63350195Y-96920353D01*
X63263803Y-97016302D01*
X63223877Y-97060644D01*
X63220576Y-97066362D01*
X63132740Y-97218498D01*
X63126182Y-97229856D01*
X63122582Y-97240935D01*
X63071896Y-97396934D01*
X63065804Y-97415682D01*
X63045380Y-97610000D01*
X63046070Y-97616565D01*
X63061340Y-97761842D01*
X63065804Y-97804318D01*
X63067844Y-97810596D01*
X63067844Y-97810597D01*
X63075936Y-97835501D01*
X63126182Y-97990144D01*
X63129485Y-97995866D01*
X63129486Y-97995867D01*
X63135615Y-98006483D01*
X63223877Y-98159356D01*
X63228295Y-98164263D01*
X63228296Y-98164264D01*
X63344378Y-98293186D01*
X63354617Y-98304558D01*
X63359959Y-98308439D01*
X63359961Y-98308441D01*
X63507348Y-98415524D01*
X63512690Y-98419405D01*
X63518719Y-98422089D01*
X63518722Y-98422091D01*
X63682241Y-98494893D01*
X63736337Y-98540873D01*
X63756987Y-98608800D01*
X63737635Y-98677108D01*
X63682241Y-98725107D01*
X63518722Y-98797909D01*
X63518719Y-98797911D01*
X63512690Y-98800595D01*
X63507349Y-98804475D01*
X63507348Y-98804476D01*
X63362570Y-98909664D01*
X63354617Y-98915442D01*
X63350196Y-98920352D01*
X63350195Y-98920353D01*
X63242098Y-99040408D01*
X63223877Y-99060644D01*
X63171076Y-99152098D01*
X63141167Y-99203902D01*
X63126182Y-99229856D01*
X63065804Y-99415682D01*
X63065114Y-99422245D01*
X63065114Y-99422246D01*
X63053369Y-99533993D01*
X63045380Y-99610000D01*
X63046070Y-99616565D01*
X63062124Y-99769301D01*
X63065804Y-99804318D01*
X63067844Y-99810596D01*
X63067844Y-99810597D01*
X63097815Y-99902838D01*
X63126182Y-99990144D01*
X63129485Y-99995866D01*
X63129486Y-99995867D01*
X63149770Y-100031000D01*
X63223877Y-100159356D01*
X63228295Y-100164263D01*
X63228296Y-100164264D01*
X63350195Y-100299647D01*
X63354617Y-100304558D01*
X63359959Y-100308439D01*
X63359961Y-100308441D01*
X63486452Y-100400342D01*
X63512690Y-100419405D01*
X63518719Y-100422089D01*
X63518722Y-100422091D01*
X63682241Y-100494893D01*
X63736337Y-100540873D01*
X63756987Y-100608800D01*
X63737635Y-100677108D01*
X63682241Y-100725107D01*
X63518722Y-100797909D01*
X63518719Y-100797911D01*
X63512690Y-100800595D01*
X63507349Y-100804475D01*
X63507348Y-100804476D01*
X63394334Y-100886586D01*
X63354617Y-100915442D01*
X63350196Y-100920352D01*
X63350195Y-100920353D01*
X63274887Y-101003992D01*
X63223877Y-101060644D01*
X63220576Y-101066362D01*
X63135054Y-101214490D01*
X63126182Y-101229856D01*
X63119141Y-101251525D01*
X63073079Y-101393293D01*
X63065804Y-101415682D01*
X63065114Y-101422245D01*
X63065114Y-101422246D01*
X63049892Y-101567069D01*
X63045380Y-101610000D01*
X63046070Y-101616565D01*
X63058014Y-101730198D01*
X63065804Y-101804318D01*
X63067844Y-101810596D01*
X63067844Y-101810597D01*
X63096564Y-101898988D01*
X63126182Y-101990144D01*
X63129485Y-101995866D01*
X63129486Y-101995867D01*
X63156698Y-102042999D01*
X63223877Y-102159356D01*
X63228295Y-102164263D01*
X63228296Y-102164264D01*
X63267321Y-102207606D01*
X63354617Y-102304558D01*
X63400482Y-102337881D01*
X63427558Y-102357553D01*
X63470912Y-102413776D01*
X63476987Y-102484512D01*
X63443855Y-102547303D01*
X63417920Y-102567774D01*
X63286639Y-102645878D01*
X63277327Y-102652643D01*
X63122547Y-102788381D01*
X63114630Y-102796724D01*
X62987180Y-102958394D01*
X62980909Y-102968050D01*
X62885060Y-103150229D01*
X62880655Y-103160863D01*
X62825436Y-103338700D01*
X62825218Y-103352799D01*
X62831950Y-103356000D01*
X65119485Y-103356000D01*
X65133016Y-103352027D01*
X65134185Y-103343892D01*
X65090725Y-103189794D01*
X65086603Y-103179055D01*
X64995549Y-102994417D01*
X64989538Y-102984608D01*
X64866360Y-102819651D01*
X64858671Y-102811111D01*
X64707490Y-102671361D01*
X64698365Y-102664360D01*
X64540795Y-102564941D01*
X64493856Y-102511674D01*
X64483167Y-102441487D01*
X64512121Y-102376663D01*
X64533967Y-102356445D01*
X64582842Y-102320935D01*
X64600039Y-102308441D01*
X64600041Y-102308439D01*
X64605383Y-102304558D01*
X64692679Y-102207606D01*
X64731704Y-102164264D01*
X64731705Y-102164263D01*
X64736123Y-102159356D01*
X64750376Y-102134669D01*
X66012001Y-102134669D01*
X66012371Y-102141490D01*
X66017895Y-102192352D01*
X66021521Y-102207604D01*
X66066676Y-102328054D01*
X66075214Y-102343649D01*
X66151715Y-102445724D01*
X66164276Y-102458285D01*
X66266351Y-102534786D01*
X66281946Y-102543324D01*
X66402394Y-102588478D01*
X66417649Y-102592105D01*
X66468514Y-102597631D01*
X66475328Y-102598000D01*
X66697885Y-102598000D01*
X66713124Y-102593525D01*
X66714329Y-102592135D01*
X66716000Y-102584452D01*
X66716000Y-102579884D01*
X67224000Y-102579884D01*
X67228475Y-102595123D01*
X67229865Y-102596328D01*
X67237548Y-102597999D01*
X67464669Y-102597999D01*
X67471490Y-102597629D01*
X67522352Y-102592105D01*
X67537604Y-102588479D01*
X67658054Y-102543324D01*
X67673649Y-102534786D01*
X67775724Y-102458285D01*
X67788285Y-102445724D01*
X67864786Y-102343649D01*
X67873324Y-102328054D01*
X67918478Y-102207606D01*
X67922105Y-102192351D01*
X67927631Y-102141486D01*
X67928000Y-102134672D01*
X67928000Y-101962115D01*
X67923525Y-101946876D01*
X67922135Y-101945671D01*
X67914452Y-101944000D01*
X67242115Y-101944000D01*
X67226876Y-101948475D01*
X67225671Y-101949865D01*
X67224000Y-101957548D01*
X67224000Y-102579884D01*
X66716000Y-102579884D01*
X66716000Y-101962115D01*
X66711525Y-101946876D01*
X66710135Y-101945671D01*
X66702452Y-101944000D01*
X66030116Y-101944000D01*
X66014877Y-101948475D01*
X66013672Y-101949865D01*
X66012001Y-101957548D01*
X66012001Y-102134669D01*
X64750376Y-102134669D01*
X64803302Y-102042999D01*
X64830514Y-101995867D01*
X64830515Y-101995866D01*
X64833818Y-101990144D01*
X64855656Y-101922933D01*
X70757001Y-101922933D01*
X70757338Y-101929452D01*
X70767166Y-102024170D01*
X70770058Y-102037564D01*
X70821036Y-102190365D01*
X70827210Y-102203543D01*
X70911744Y-102340149D01*
X70920780Y-102351550D01*
X71034479Y-102465051D01*
X71045890Y-102474063D01*
X71182654Y-102558365D01*
X71195832Y-102564509D01*
X71348740Y-102615227D01*
X71362106Y-102618093D01*
X71455601Y-102627672D01*
X71462016Y-102628000D01*
X71480385Y-102628000D01*
X71495624Y-102623525D01*
X71496829Y-102622135D01*
X71498500Y-102614452D01*
X71498500Y-101692115D01*
X71494025Y-101676876D01*
X71492635Y-101675671D01*
X71484952Y-101674000D01*
X70775116Y-101674000D01*
X70759877Y-101678475D01*
X70758672Y-101679865D01*
X70757001Y-101687548D01*
X70757001Y-101922933D01*
X64855656Y-101922933D01*
X64863436Y-101898988D01*
X64892156Y-101810597D01*
X64892156Y-101810596D01*
X64894196Y-101804318D01*
X64901987Y-101730198D01*
X64913930Y-101616565D01*
X64914620Y-101610000D01*
X64910108Y-101567069D01*
X64894886Y-101422246D01*
X64894886Y-101422245D01*
X64894428Y-101417885D01*
X66012000Y-101417885D01*
X66016475Y-101433124D01*
X66017865Y-101434329D01*
X66025548Y-101436000D01*
X66697885Y-101436000D01*
X66713124Y-101431525D01*
X66714329Y-101430135D01*
X66716000Y-101422452D01*
X66716000Y-101417885D01*
X67224000Y-101417885D01*
X67228475Y-101433124D01*
X67229865Y-101434329D01*
X67237548Y-101436000D01*
X67909884Y-101436000D01*
X67925123Y-101431525D01*
X67926328Y-101430135D01*
X67927999Y-101422452D01*
X67927999Y-101245331D01*
X67927629Y-101238510D01*
X67922105Y-101187648D01*
X67918479Y-101172396D01*
X67873324Y-101051946D01*
X67864786Y-101036351D01*
X67788285Y-100934276D01*
X67775724Y-100921715D01*
X67673649Y-100845214D01*
X67658054Y-100836676D01*
X67537606Y-100791522D01*
X67522351Y-100787895D01*
X67471486Y-100782369D01*
X67464672Y-100782000D01*
X67242115Y-100782000D01*
X67226876Y-100786475D01*
X67225671Y-100787865D01*
X67224000Y-100795548D01*
X67224000Y-101417885D01*
X66716000Y-101417885D01*
X66716000Y-100800116D01*
X66711525Y-100784877D01*
X66710135Y-100783672D01*
X66702452Y-100782001D01*
X66475331Y-100782001D01*
X66468510Y-100782371D01*
X66417648Y-100787895D01*
X66402396Y-100791521D01*
X66281946Y-100836676D01*
X66266351Y-100845214D01*
X66164276Y-100921715D01*
X66151715Y-100934276D01*
X66075214Y-101036351D01*
X66066676Y-101051946D01*
X66021522Y-101172394D01*
X66017895Y-101187649D01*
X66012369Y-101238514D01*
X66012000Y-101245328D01*
X66012000Y-101417885D01*
X64894428Y-101417885D01*
X64894196Y-101415682D01*
X64886922Y-101393293D01*
X64840859Y-101251525D01*
X64833818Y-101229856D01*
X64824947Y-101214490D01*
X64739424Y-101066362D01*
X64736123Y-101060644D01*
X64685114Y-101003992D01*
X64609805Y-100920353D01*
X64609804Y-100920352D01*
X64605383Y-100915442D01*
X64565667Y-100886586D01*
X64452652Y-100804476D01*
X64452651Y-100804475D01*
X64447310Y-100800595D01*
X64441281Y-100797911D01*
X64441278Y-100797909D01*
X64277759Y-100725107D01*
X64223663Y-100679127D01*
X64203013Y-100611200D01*
X64222365Y-100542892D01*
X64277759Y-100494893D01*
X64441278Y-100422091D01*
X64441281Y-100422089D01*
X64447310Y-100419405D01*
X64473548Y-100400342D01*
X64600039Y-100308441D01*
X64600041Y-100308439D01*
X64605383Y-100304558D01*
X64609805Y-100299647D01*
X64731704Y-100164264D01*
X64731705Y-100164263D01*
X64736123Y-100159356D01*
X64810230Y-100031000D01*
X64830514Y-99995867D01*
X64830515Y-99995866D01*
X64833818Y-99990144D01*
X64862185Y-99902838D01*
X64892156Y-99810597D01*
X64892156Y-99810596D01*
X64894196Y-99804318D01*
X64897877Y-99769301D01*
X64913930Y-99616565D01*
X64914620Y-99610000D01*
X64906631Y-99533993D01*
X64894886Y-99422246D01*
X64894886Y-99422245D01*
X64894196Y-99415682D01*
X64833818Y-99229856D01*
X64818834Y-99203902D01*
X64788924Y-99152098D01*
X64736123Y-99060644D01*
X64717903Y-99040408D01*
X64609805Y-98920353D01*
X64609804Y-98920352D01*
X64605383Y-98915442D01*
X64597431Y-98909664D01*
X64452652Y-98804476D01*
X64452651Y-98804475D01*
X64447310Y-98800595D01*
X64441281Y-98797911D01*
X64441278Y-98797909D01*
X64277759Y-98725107D01*
X64223663Y-98679127D01*
X64203013Y-98611200D01*
X64222365Y-98542892D01*
X64277759Y-98494893D01*
X64441278Y-98422091D01*
X64441281Y-98422089D01*
X64447310Y-98419405D01*
X64452652Y-98415524D01*
X64600039Y-98308441D01*
X64600041Y-98308439D01*
X64605383Y-98304558D01*
X64615622Y-98293186D01*
X64731704Y-98164264D01*
X64731705Y-98164263D01*
X64736123Y-98159356D01*
X64824385Y-98006483D01*
X64830514Y-97995867D01*
X64830515Y-97995866D01*
X64833818Y-97990144D01*
X64884064Y-97835501D01*
X64892156Y-97810597D01*
X64892156Y-97810596D01*
X64894196Y-97804318D01*
X64898661Y-97761842D01*
X64913930Y-97616565D01*
X64914620Y-97610000D01*
X64894196Y-97415682D01*
X64888105Y-97396934D01*
X64837418Y-97240935D01*
X64833818Y-97229856D01*
X64827261Y-97218498D01*
X64739424Y-97066362D01*
X64736123Y-97060644D01*
X64696198Y-97016302D01*
X64609805Y-96920353D01*
X64609804Y-96920352D01*
X64605383Y-96915442D01*
X64590106Y-96904342D01*
X64452652Y-96804476D01*
X64452651Y-96804475D01*
X64447310Y-96800595D01*
X64441281Y-96797911D01*
X64441278Y-96797909D01*
X64277759Y-96725107D01*
X64223663Y-96679127D01*
X64203013Y-96611200D01*
X64222365Y-96542892D01*
X64277759Y-96494893D01*
X64441278Y-96422091D01*
X64441281Y-96422089D01*
X64447310Y-96419405D01*
X64452795Y-96415420D01*
X64600039Y-96308441D01*
X64600041Y-96308439D01*
X64605383Y-96304558D01*
X64618170Y-96290357D01*
X64731704Y-96164264D01*
X64731705Y-96164263D01*
X64736123Y-96159356D01*
X64801905Y-96045418D01*
X64830514Y-95995867D01*
X64830515Y-95995866D01*
X64833818Y-95990144D01*
X64872141Y-95872197D01*
X64892156Y-95810597D01*
X64892156Y-95810596D01*
X64894196Y-95804318D01*
X64897143Y-95776285D01*
X64913930Y-95616565D01*
X64914620Y-95610000D01*
X64907848Y-95545573D01*
X64894886Y-95422246D01*
X64894886Y-95422245D01*
X64894196Y-95415682D01*
X64876911Y-95362482D01*
X64839772Y-95248181D01*
X64833818Y-95229856D01*
X64736123Y-95060644D01*
X64704100Y-95025078D01*
X64609805Y-94920353D01*
X64609804Y-94920352D01*
X64605383Y-94915442D01*
X64587367Y-94902352D01*
X64452652Y-94804476D01*
X64452651Y-94804475D01*
X64447310Y-94800595D01*
X64402413Y-94780606D01*
X64348317Y-94734626D01*
X64327668Y-94666698D01*
X64347020Y-94598390D01*
X64400231Y-94551389D01*
X64453661Y-94539499D01*
X64680066Y-94539499D01*
X64715818Y-94532388D01*
X64742126Y-94527156D01*
X64742128Y-94527155D01*
X64754301Y-94524734D01*
X64764621Y-94517839D01*
X64764622Y-94517838D01*
X64828168Y-94475377D01*
X64838484Y-94468484D01*
X64886526Y-94396585D01*
X64887839Y-94394620D01*
X64894734Y-94384301D01*
X64909500Y-94310067D01*
X64909499Y-92909934D01*
X64901811Y-92871281D01*
X64897156Y-92847874D01*
X64897155Y-92847872D01*
X64894734Y-92835699D01*
X64886278Y-92823043D01*
X64845377Y-92761832D01*
X64838484Y-92751516D01*
X64754301Y-92695266D01*
X64680067Y-92680500D01*
X64595234Y-92680500D01*
X63931818Y-92680501D01*
X63863697Y-92660499D01*
X63842723Y-92643596D01*
X60376222Y-89177095D01*
X63942001Y-89177095D01*
X63942338Y-89183614D01*
X63952257Y-89279206D01*
X63955149Y-89292600D01*
X64006588Y-89446784D01*
X64012761Y-89459962D01*
X64098063Y-89597807D01*
X64107099Y-89609208D01*
X64221829Y-89723739D01*
X64233240Y-89732751D01*
X64371243Y-89817816D01*
X64384424Y-89823963D01*
X64538710Y-89875138D01*
X64552086Y-89878005D01*
X64646438Y-89887672D01*
X64652854Y-89888000D01*
X64740385Y-89888000D01*
X64755624Y-89883525D01*
X64756829Y-89882135D01*
X64758500Y-89874452D01*
X64758500Y-89869884D01*
X65266500Y-89869884D01*
X65270975Y-89885123D01*
X65272365Y-89886328D01*
X65280048Y-89887999D01*
X65372095Y-89887999D01*
X65378614Y-89887662D01*
X65474206Y-89877743D01*
X65487600Y-89874851D01*
X65641784Y-89823412D01*
X65654962Y-89817239D01*
X65792807Y-89731937D01*
X65804208Y-89722901D01*
X65918739Y-89608171D01*
X65927751Y-89596760D01*
X66012816Y-89458757D01*
X66018963Y-89445576D01*
X66070138Y-89291290D01*
X66073005Y-89277914D01*
X66082672Y-89183562D01*
X66083000Y-89177146D01*
X66083000Y-87952115D01*
X66078525Y-87936876D01*
X66077135Y-87935671D01*
X66069452Y-87934000D01*
X65284615Y-87934000D01*
X65269376Y-87938475D01*
X65268171Y-87939865D01*
X65266500Y-87947548D01*
X65266500Y-89869884D01*
X64758500Y-89869884D01*
X64758500Y-87952115D01*
X64754025Y-87936876D01*
X64752635Y-87935671D01*
X64744952Y-87934000D01*
X63960116Y-87934000D01*
X63944877Y-87938475D01*
X63943672Y-87939865D01*
X63942001Y-87947548D01*
X63942001Y-89177095D01*
X60376222Y-89177095D01*
X58561405Y-87362278D01*
X58527379Y-87299966D01*
X58524500Y-87273183D01*
X58524499Y-85811123D01*
X58524499Y-85804934D01*
X58524499Y-85804933D01*
X59515500Y-85804933D01*
X59515501Y-87655066D01*
X59530266Y-87729301D01*
X59537161Y-87739620D01*
X59537162Y-87739622D01*
X59568326Y-87786261D01*
X59586516Y-87813484D01*
X59670699Y-87869734D01*
X59744933Y-87884500D01*
X61019793Y-87884500D01*
X62295066Y-87884499D01*
X62330818Y-87877388D01*
X62357126Y-87872156D01*
X62357128Y-87872155D01*
X62369301Y-87869734D01*
X62379621Y-87862839D01*
X62379622Y-87862838D01*
X62443168Y-87820377D01*
X62453484Y-87813484D01*
X62509734Y-87729301D01*
X62524500Y-87655067D01*
X62524500Y-87407885D01*
X63942000Y-87407885D01*
X63946475Y-87423124D01*
X63947865Y-87424329D01*
X63955548Y-87426000D01*
X64740385Y-87426000D01*
X64755624Y-87421525D01*
X64756829Y-87420135D01*
X64758500Y-87412452D01*
X64758500Y-87407885D01*
X65266500Y-87407885D01*
X65270975Y-87423124D01*
X65272365Y-87424329D01*
X65280048Y-87426000D01*
X66064884Y-87426000D01*
X66080123Y-87421525D01*
X66081328Y-87420135D01*
X66082999Y-87412452D01*
X66082999Y-86182905D01*
X66082662Y-86176386D01*
X66072743Y-86080794D01*
X66069851Y-86067400D01*
X66018412Y-85913216D01*
X66012239Y-85900038D01*
X65926937Y-85762193D01*
X65917901Y-85750792D01*
X65803171Y-85636261D01*
X65791760Y-85627249D01*
X65653757Y-85542184D01*
X65640576Y-85536037D01*
X65486290Y-85484862D01*
X65472914Y-85481995D01*
X65378562Y-85472328D01*
X65372145Y-85472000D01*
X65284615Y-85472000D01*
X65269376Y-85476475D01*
X65268171Y-85477865D01*
X65266500Y-85485548D01*
X65266500Y-87407885D01*
X64758500Y-87407885D01*
X64758500Y-85490116D01*
X64754025Y-85474877D01*
X64752635Y-85473672D01*
X64744952Y-85472001D01*
X64652905Y-85472001D01*
X64646386Y-85472338D01*
X64550794Y-85482257D01*
X64537400Y-85485149D01*
X64383216Y-85536588D01*
X64370038Y-85542761D01*
X64232193Y-85628063D01*
X64220792Y-85637099D01*
X64106261Y-85751829D01*
X64097249Y-85763240D01*
X64012184Y-85901243D01*
X64006037Y-85914424D01*
X63954862Y-86068710D01*
X63951995Y-86082086D01*
X63942328Y-86176438D01*
X63942000Y-86182855D01*
X63942000Y-87407885D01*
X62524500Y-87407885D01*
X62524499Y-86384845D01*
X62544501Y-86316724D01*
X62561404Y-86295750D01*
X64139978Y-84717177D01*
X64202290Y-84683151D01*
X64273106Y-84688216D01*
X64318168Y-84717177D01*
X64324215Y-84723224D01*
X64329596Y-84730404D01*
X64336776Y-84735785D01*
X64438054Y-84811689D01*
X64438057Y-84811691D01*
X64445236Y-84817071D01*
X64498115Y-84836894D01*
X64573157Y-84865026D01*
X64573159Y-84865026D01*
X64580552Y-84867798D01*
X64588402Y-84868651D01*
X64588403Y-84868651D01*
X64638847Y-84874131D01*
X64642244Y-84874500D01*
X65362756Y-84874500D01*
X65366153Y-84874131D01*
X65416597Y-84868651D01*
X65416598Y-84868651D01*
X65424448Y-84867798D01*
X65431841Y-84865026D01*
X65431843Y-84865026D01*
X65506885Y-84836894D01*
X65559764Y-84817071D01*
X65566943Y-84811691D01*
X65566946Y-84811689D01*
X65668224Y-84735785D01*
X65675404Y-84730404D01*
X65739346Y-84645086D01*
X65756689Y-84621946D01*
X65756691Y-84621943D01*
X65762071Y-84614764D01*
X65796429Y-84523113D01*
X65810026Y-84486843D01*
X65810026Y-84486841D01*
X65812798Y-84479448D01*
X65818001Y-84431559D01*
X65819131Y-84421153D01*
X65819131Y-84421152D01*
X65819500Y-84417756D01*
X65819500Y-81422244D01*
X65817396Y-81402874D01*
X65813651Y-81368403D01*
X65813651Y-81368402D01*
X65812798Y-81360552D01*
X65762071Y-81225236D01*
X65756691Y-81218057D01*
X65756689Y-81218054D01*
X65680785Y-81116776D01*
X65675404Y-81109596D01*
X65654977Y-81094287D01*
X65566946Y-81028311D01*
X65566943Y-81028309D01*
X65559764Y-81022929D01*
X65470046Y-80989296D01*
X65431843Y-80974974D01*
X65431841Y-80974974D01*
X65424448Y-80972202D01*
X65416598Y-80971349D01*
X65416597Y-80971349D01*
X65366153Y-80965869D01*
X65366152Y-80965869D01*
X65362756Y-80965500D01*
X64642244Y-80965500D01*
X64638848Y-80965869D01*
X64638847Y-80965869D01*
X64588403Y-80971349D01*
X64588402Y-80971349D01*
X64580552Y-80972202D01*
X64573159Y-80974974D01*
X64573157Y-80974974D01*
X64534954Y-80989296D01*
X64445236Y-81022929D01*
X64438057Y-81028309D01*
X64438054Y-81028311D01*
X64350023Y-81094287D01*
X64329596Y-81109596D01*
X64324215Y-81116776D01*
X64248311Y-81218054D01*
X64248309Y-81218057D01*
X64242929Y-81225236D01*
X64192202Y-81360552D01*
X64191349Y-81368402D01*
X64191349Y-81368403D01*
X64187604Y-81402874D01*
X64185500Y-81422244D01*
X64185500Y-81923100D01*
X64165498Y-81991221D01*
X64111842Y-82037714D01*
X64059500Y-82049100D01*
X62660499Y-82049100D01*
X62592378Y-82029098D01*
X62545885Y-81975442D01*
X62534499Y-81923100D01*
X62534499Y-81464934D01*
X62519734Y-81390699D01*
X62463484Y-81306516D01*
X62379301Y-81250266D01*
X62305067Y-81235500D01*
X61030207Y-81235500D01*
X59754934Y-81235501D01*
X59719182Y-81242612D01*
X59692874Y-81247844D01*
X59692872Y-81247845D01*
X59680699Y-81250266D01*
X59670379Y-81257161D01*
X59670378Y-81257162D01*
X59609985Y-81297516D01*
X59596516Y-81306516D01*
X59540266Y-81390699D01*
X59525500Y-81464933D01*
X59525501Y-83315066D01*
X59528839Y-83331848D01*
X59537279Y-83374282D01*
X59540266Y-83389301D01*
X59547161Y-83399620D01*
X59547162Y-83399622D01*
X59565388Y-83426898D01*
X59596516Y-83473484D01*
X59680699Y-83529734D01*
X59754933Y-83544500D01*
X61029793Y-83544500D01*
X62305066Y-83544499D01*
X62340818Y-83537388D01*
X62367126Y-83532156D01*
X62367128Y-83532155D01*
X62379301Y-83529734D01*
X62389621Y-83522839D01*
X62389622Y-83522838D01*
X62453168Y-83480377D01*
X62463484Y-83473484D01*
X62494612Y-83426898D01*
X62549089Y-83381370D01*
X62599377Y-83370900D01*
X63312757Y-83370900D01*
X63380878Y-83390902D01*
X63427371Y-83444558D01*
X63437475Y-83514832D01*
X63407981Y-83579412D01*
X63401852Y-83585995D01*
X61449252Y-85538595D01*
X61386940Y-85572621D01*
X61360157Y-85575500D01*
X59921703Y-85575501D01*
X59744934Y-85575501D01*
X59709182Y-85582612D01*
X59682874Y-85587844D01*
X59682872Y-85587845D01*
X59670699Y-85590266D01*
X59660379Y-85597161D01*
X59660378Y-85597162D01*
X59601863Y-85636261D01*
X59586516Y-85646516D01*
X59530266Y-85730699D01*
X59515500Y-85804933D01*
X58524499Y-85804933D01*
X58515963Y-85762018D01*
X58512156Y-85742874D01*
X58512155Y-85742872D01*
X58509734Y-85730699D01*
X58453484Y-85646516D01*
X58369301Y-85590266D01*
X58295067Y-85575500D01*
X58179455Y-85575500D01*
X55950989Y-85575501D01*
X55882868Y-85555499D01*
X55836375Y-85501843D01*
X55824989Y-85449501D01*
X55824989Y-84366329D01*
X55844991Y-84298208D01*
X55861894Y-84277233D01*
X56557724Y-83581404D01*
X56620036Y-83547379D01*
X56646819Y-83544500D01*
X58123738Y-83544499D01*
X58305066Y-83544499D01*
X58340818Y-83537388D01*
X58367126Y-83532156D01*
X58367128Y-83532155D01*
X58379301Y-83529734D01*
X58389621Y-83522839D01*
X58389622Y-83522838D01*
X58453168Y-83480377D01*
X58463484Y-83473484D01*
X58519734Y-83389301D01*
X58534500Y-83315067D01*
X58534499Y-81464934D01*
X58519734Y-81390699D01*
X58463484Y-81306516D01*
X58379301Y-81250266D01*
X58305067Y-81235500D01*
X57030207Y-81235500D01*
X55754934Y-81235501D01*
X55719182Y-81242612D01*
X55692874Y-81247844D01*
X55692872Y-81247845D01*
X55680699Y-81250266D01*
X55670379Y-81257161D01*
X55670378Y-81257162D01*
X55609985Y-81297516D01*
X55596516Y-81306516D01*
X55540266Y-81390699D01*
X55525500Y-81464933D01*
X55525500Y-81471120D01*
X55525501Y-83123182D01*
X55505499Y-83191303D01*
X55488596Y-83212277D01*
X55007185Y-83693688D01*
X54997645Y-83701311D01*
X54997959Y-83701679D01*
X54991123Y-83707497D01*
X54983531Y-83712287D01*
X54977589Y-83719015D01*
X54947896Y-83752636D01*
X54942550Y-83758323D01*
X54931107Y-83769766D01*
X54925522Y-83777218D01*
X54924830Y-83778141D01*
X54918456Y-83785970D01*
X54887111Y-83821462D01*
X54883297Y-83829585D01*
X54881663Y-83832073D01*
X54872675Y-83847034D01*
X54871260Y-83849619D01*
X54865873Y-83856806D01*
X54862722Y-83865212D01*
X54849248Y-83901153D01*
X54845322Y-83910469D01*
X54825208Y-83953311D01*
X54823827Y-83962180D01*
X54822961Y-83965013D01*
X54818531Y-83981900D01*
X54817897Y-83984785D01*
X54814744Y-83993195D01*
X54812577Y-84022353D01*
X54811235Y-84040417D01*
X54810081Y-84050463D01*
X54808789Y-84058763D01*
X54807989Y-84063897D01*
X54807989Y-84079417D01*
X54807643Y-84088754D01*
X54803950Y-84138452D01*
X54805824Y-84147231D01*
X54806387Y-84155489D01*
X54807989Y-84170672D01*
X54807989Y-90384501D01*
X54787987Y-90452622D01*
X54734331Y-90499115D01*
X54681989Y-90510501D01*
X54619934Y-90510501D01*
X54584182Y-90517612D01*
X54557874Y-90522844D01*
X54557872Y-90522845D01*
X54545699Y-90525266D01*
X54535379Y-90532161D01*
X54535378Y-90532162D01*
X54484572Y-90566110D01*
X54461516Y-90581516D01*
X54405266Y-90665699D01*
X54390500Y-90739933D01*
X54390501Y-92140066D01*
X54393712Y-92156208D01*
X54402328Y-92199527D01*
X54405266Y-92214301D01*
X54412161Y-92224620D01*
X54412162Y-92224622D01*
X54446438Y-92275918D01*
X54461516Y-92298484D01*
X54545699Y-92354734D01*
X54619933Y-92369500D01*
X54846337Y-92369500D01*
X54914458Y-92389502D01*
X54960951Y-92443158D01*
X54971055Y-92513432D01*
X54941561Y-92578012D01*
X54897586Y-92610606D01*
X54852690Y-92630595D01*
X54847349Y-92634475D01*
X54847348Y-92634476D01*
X54703649Y-92738880D01*
X54694617Y-92745442D01*
X54690196Y-92750352D01*
X54690195Y-92750353D01*
X54570300Y-92883511D01*
X54563877Y-92890644D01*
X54520872Y-92965130D01*
X54474009Y-93046300D01*
X54466182Y-93059856D01*
X54464140Y-93066141D01*
X54431766Y-93165780D01*
X54405804Y-93245682D01*
X54405114Y-93252245D01*
X54405114Y-93252246D01*
X54391631Y-93380524D01*
X54385380Y-93440000D01*
X54386070Y-93446565D01*
X54403475Y-93612155D01*
X54405804Y-93634318D01*
X54407844Y-93640596D01*
X54407844Y-93640597D01*
X54412812Y-93655887D01*
X54466182Y-93820144D01*
X54469485Y-93825866D01*
X54469486Y-93825867D01*
X54477357Y-93839500D01*
X54563877Y-93989356D01*
X54568295Y-93994263D01*
X54568296Y-93994264D01*
X54689219Y-94128563D01*
X54694617Y-94134558D01*
X54728539Y-94159204D01*
X54767558Y-94187553D01*
X54810912Y-94243776D01*
X54816987Y-94314512D01*
X54783855Y-94377303D01*
X54757920Y-94397774D01*
X54626639Y-94475878D01*
X54617327Y-94482643D01*
X54462547Y-94618381D01*
X54454630Y-94626724D01*
X54327180Y-94788394D01*
X54320909Y-94798050D01*
X54225060Y-94980229D01*
X54220655Y-94990863D01*
X54165436Y-95168700D01*
X54165218Y-95182799D01*
X50254000Y-95182799D01*
X50254000Y-84769804D01*
X50274002Y-84701683D01*
X50327658Y-84655190D01*
X50397932Y-84645086D01*
X50442011Y-84660120D01*
X50628430Y-84765516D01*
X50631566Y-84766865D01*
X50932340Y-84896250D01*
X50932349Y-84896253D01*
X50935475Y-84897598D01*
X50938734Y-84898599D01*
X50938735Y-84898599D01*
X51251736Y-84994705D01*
X51251745Y-84994707D01*
X51255001Y-84995707D01*
X51258352Y-84996350D01*
X51579904Y-85058051D01*
X51579907Y-85058051D01*
X51583261Y-85058695D01*
X51916407Y-85085822D01*
X52078565Y-85081429D01*
X52247117Y-85076864D01*
X52247126Y-85076863D01*
X52250533Y-85076771D01*
X52253917Y-85076310D01*
X52578340Y-85032108D01*
X52578344Y-85032107D01*
X52581722Y-85031647D01*
X52906091Y-84950980D01*
X53140055Y-84865026D01*
X53216630Y-84836894D01*
X53216633Y-84836893D01*
X53219836Y-84835716D01*
X53268964Y-84811351D01*
X53421328Y-84735785D01*
X53519280Y-84687205D01*
X53525623Y-84683151D01*
X53632613Y-84614764D01*
X53800912Y-84507190D01*
X53803573Y-84505051D01*
X53803580Y-84505046D01*
X54058763Y-84299924D01*
X54058765Y-84299922D01*
X54061430Y-84297780D01*
X54297780Y-84061430D01*
X54352629Y-83993195D01*
X54505046Y-83803580D01*
X54505051Y-83803573D01*
X54507190Y-83800912D01*
X54678975Y-83532156D01*
X54685361Y-83522165D01*
X54685361Y-83522164D01*
X54687205Y-83519280D01*
X54817505Y-83256555D01*
X54834198Y-83222897D01*
X54834199Y-83222895D01*
X54835716Y-83219836D01*
X54846199Y-83191303D01*
X54949802Y-82909297D01*
X54950980Y-82906091D01*
X55031647Y-82581722D01*
X55076771Y-82250533D01*
X55077235Y-82233431D01*
X55081990Y-82057880D01*
X55085822Y-81916407D01*
X55058695Y-81583261D01*
X55050238Y-81539185D01*
X54996350Y-81258352D01*
X54995707Y-81255001D01*
X54994707Y-81251745D01*
X54994705Y-81251736D01*
X54898599Y-80938735D01*
X54898599Y-80938734D01*
X54897598Y-80935475D01*
X54896253Y-80932349D01*
X54896250Y-80932340D01*
X54766865Y-80631566D01*
X54765516Y-80628430D01*
X54760176Y-80618984D01*
X54660120Y-80442012D01*
X54644006Y-80372869D01*
X54667831Y-80305989D01*
X54724033Y-80262608D01*
X54769804Y-80254000D01*
X71120000Y-80254000D01*
X71188121Y-80274002D01*
G37*
G04 #@! TD.AperFunction*
G04 #@! TA.AperFunction,Conductor*
G36*
X85162902Y-83734524D02*
G01*
X85170699Y-83739734D01*
X85244933Y-83754500D01*
X85462667Y-83754500D01*
X86271413Y-83754499D01*
X86339534Y-83774501D01*
X86360508Y-83791404D01*
X91034415Y-88465312D01*
X91068441Y-88527624D01*
X91063376Y-88598439D01*
X91020829Y-88655275D01*
X90980470Y-88675405D01*
X90978945Y-88675848D01*
X90968603Y-88677072D01*
X90960306Y-88681056D01*
X90951228Y-88682567D01*
X90942066Y-88687511D01*
X90942062Y-88687512D01*
X90905867Y-88707042D01*
X90900583Y-88709735D01*
X90854113Y-88732049D01*
X90849819Y-88735659D01*
X90847887Y-88737591D01*
X90845938Y-88739378D01*
X90845885Y-88739407D01*
X90845766Y-88739277D01*
X90845198Y-88739778D01*
X90839454Y-88742877D01*
X90832387Y-88750522D01*
X90802645Y-88782697D01*
X90799215Y-88786263D01*
X90444757Y-89140721D01*
X90382445Y-89174747D01*
X90318403Y-89171991D01*
X90252703Y-89151654D01*
X90202960Y-89136256D01*
X90196835Y-89135612D01*
X90196834Y-89135612D01*
X90013176Y-89116309D01*
X90013174Y-89116309D01*
X90007047Y-89115665D01*
X89925018Y-89123130D01*
X89817004Y-89132960D01*
X89817001Y-89132961D01*
X89810865Y-89133519D01*
X89804959Y-89135257D01*
X89804955Y-89135258D01*
X89694116Y-89167880D01*
X89621887Y-89189138D01*
X89616427Y-89191992D01*
X89616428Y-89191992D01*
X89452772Y-89277549D01*
X89452768Y-89277552D01*
X89447312Y-89280404D01*
X89442512Y-89284264D01*
X89442511Y-89284264D01*
X89301321Y-89397783D01*
X89293788Y-89403840D01*
X89167163Y-89554745D01*
X89164195Y-89560144D01*
X89075386Y-89721689D01*
X89072262Y-89727371D01*
X89070398Y-89733246D01*
X89070397Y-89733249D01*
X89053718Y-89785829D01*
X89012697Y-89915142D01*
X88990738Y-90110907D01*
X88991254Y-90117051D01*
X89004925Y-90279849D01*
X89007222Y-90307209D01*
X89029385Y-90384500D01*
X89059780Y-90490498D01*
X89061521Y-90496570D01*
X89151566Y-90671779D01*
X89197922Y-90730266D01*
X89272401Y-90824235D01*
X89299039Y-90890045D01*
X89285868Y-90959810D01*
X89237071Y-91011379D01*
X89173656Y-91028500D01*
X85276571Y-91028500D01*
X85208450Y-91008498D01*
X85161957Y-90954842D01*
X85152992Y-90927080D01*
X85149734Y-90910699D01*
X85141500Y-90898375D01*
X85100377Y-90836832D01*
X85093484Y-90826516D01*
X85009301Y-90770266D01*
X84953919Y-90759250D01*
X84891009Y-90726343D01*
X84855877Y-90664648D01*
X84852500Y-90635671D01*
X84852500Y-89483655D01*
X84872502Y-89415534D01*
X84902935Y-89382829D01*
X84990008Y-89317571D01*
X84997189Y-89312189D01*
X85018768Y-89283396D01*
X85077399Y-89205166D01*
X85077399Y-89205165D01*
X85082783Y-89197982D01*
X85092526Y-89171991D01*
X85130108Y-89071740D01*
X85130109Y-89071738D01*
X85132881Y-89064342D01*
X85139500Y-89003415D01*
X85139499Y-87996586D01*
X85134545Y-87950973D01*
X85133735Y-87943517D01*
X85133734Y-87943511D01*
X85132881Y-87935658D01*
X85110336Y-87875516D01*
X85085935Y-87810426D01*
X85082783Y-87802018D01*
X85074191Y-87790553D01*
X85002571Y-87694992D01*
X84997189Y-87687811D01*
X84969890Y-87667351D01*
X84902935Y-87617171D01*
X84860420Y-87560311D01*
X84852500Y-87516345D01*
X84852500Y-87443655D01*
X84872502Y-87375534D01*
X84902935Y-87342829D01*
X84990008Y-87277571D01*
X84997189Y-87272189D01*
X85082783Y-87157982D01*
X85132881Y-87024342D01*
X85139500Y-86963415D01*
X85139499Y-85956586D01*
X85138334Y-85945858D01*
X85133735Y-85903517D01*
X85133734Y-85903511D01*
X85132881Y-85895658D01*
X85118197Y-85856486D01*
X85085935Y-85770426D01*
X85082783Y-85762018D01*
X85016546Y-85673638D01*
X85002571Y-85654992D01*
X84997189Y-85647811D01*
X84981778Y-85636261D01*
X84890166Y-85567601D01*
X84890165Y-85567601D01*
X84882982Y-85562217D01*
X84813145Y-85536037D01*
X84756740Y-85514892D01*
X84756738Y-85514891D01*
X84749342Y-85512119D01*
X84688415Y-85505500D01*
X84397543Y-85505500D01*
X84106586Y-85505501D01*
X84103192Y-85505870D01*
X84103186Y-85505870D01*
X84053517Y-85511265D01*
X84053514Y-85511266D01*
X84045658Y-85512119D01*
X84038256Y-85514894D01*
X84038255Y-85514894D01*
X83981855Y-85536037D01*
X83912018Y-85562217D01*
X83904835Y-85567601D01*
X83904834Y-85567601D01*
X83813222Y-85636261D01*
X83797811Y-85647811D01*
X83792429Y-85654992D01*
X83778455Y-85673638D01*
X83712217Y-85762018D01*
X83709065Y-85770426D01*
X83676804Y-85856486D01*
X83662119Y-85895658D01*
X83655500Y-85956585D01*
X83655501Y-86963414D01*
X83655870Y-86966808D01*
X83655870Y-86966814D01*
X83660207Y-87006737D01*
X83662119Y-87024342D01*
X83712217Y-87157982D01*
X83797811Y-87272189D01*
X83804992Y-87277571D01*
X83912018Y-87357783D01*
X83909765Y-87360789D01*
X83947417Y-87398858D01*
X83962500Y-87458635D01*
X83962500Y-87501365D01*
X83942498Y-87569486D01*
X83910170Y-87599751D01*
X83912018Y-87602217D01*
X83825111Y-87667351D01*
X83797811Y-87687811D01*
X83792429Y-87694992D01*
X83720810Y-87790553D01*
X83712217Y-87802018D01*
X83709065Y-87810426D01*
X83684665Y-87875516D01*
X83662119Y-87935658D01*
X83655500Y-87996585D01*
X83655501Y-89003414D01*
X83655870Y-89006808D01*
X83655870Y-89006814D01*
X83660789Y-89052093D01*
X83662119Y-89064342D01*
X83664894Y-89071744D01*
X83664894Y-89071745D01*
X83702474Y-89171991D01*
X83712217Y-89197982D01*
X83717601Y-89205165D01*
X83717601Y-89205166D01*
X83776232Y-89283396D01*
X83797811Y-89312189D01*
X83804992Y-89317571D01*
X83912018Y-89397783D01*
X83909765Y-89400789D01*
X83947417Y-89438858D01*
X83962500Y-89498635D01*
X83962500Y-90668305D01*
X83942498Y-90736426D01*
X83906504Y-90773069D01*
X83826516Y-90826516D01*
X83770266Y-90910699D01*
X83767846Y-90922867D01*
X83764871Y-90930048D01*
X83720322Y-90985329D01*
X83652959Y-91007749D01*
X83584168Y-90990190D01*
X83553589Y-90964242D01*
X83553421Y-90964397D01*
X83552190Y-90963055D01*
X83552013Y-90962905D01*
X83549830Y-90960308D01*
X83547903Y-90958381D01*
X83546111Y-90956427D01*
X83546082Y-90956374D01*
X83546212Y-90956255D01*
X83545711Y-90955687D01*
X83542612Y-90949943D01*
X83502805Y-90913146D01*
X83499238Y-90909716D01*
X83201404Y-90611881D01*
X83167379Y-90549569D01*
X83164500Y-90522786D01*
X83164499Y-90041123D01*
X83164499Y-90034934D01*
X83157388Y-89999182D01*
X83152156Y-89972874D01*
X83152155Y-89972872D01*
X83149734Y-89960699D01*
X83132617Y-89935081D01*
X83100377Y-89886832D01*
X83093484Y-89876516D01*
X83009301Y-89820266D01*
X82935067Y-89805500D01*
X82460077Y-89805500D01*
X81984934Y-89805501D01*
X81949182Y-89812612D01*
X81922874Y-89817844D01*
X81922872Y-89817845D01*
X81910699Y-89820266D01*
X81900379Y-89827161D01*
X81900378Y-89827162D01*
X81849483Y-89861170D01*
X81826516Y-89876516D01*
X81770266Y-89960699D01*
X81755500Y-90034933D01*
X81755501Y-90885066D01*
X81758693Y-90901115D01*
X81767595Y-90945870D01*
X81770266Y-90959301D01*
X81777161Y-90969621D01*
X81777162Y-90969622D01*
X81815017Y-91026275D01*
X81826516Y-91043484D01*
X81910699Y-91099734D01*
X81984933Y-91114500D01*
X82052766Y-91114500D01*
X82572786Y-91114499D01*
X82640907Y-91134501D01*
X82661882Y-91151404D01*
X82760028Y-91249551D01*
X82794053Y-91311863D01*
X82788987Y-91382679D01*
X82746440Y-91439515D01*
X82720184Y-91452657D01*
X82715671Y-91457865D01*
X82714000Y-91465548D01*
X82714000Y-92488000D01*
X82693998Y-92556121D01*
X82640342Y-92602614D01*
X82588000Y-92614000D01*
X81520116Y-92614000D01*
X81504877Y-92618475D01*
X81503672Y-92619865D01*
X81502001Y-92627548D01*
X81502001Y-92804669D01*
X81502371Y-92811490D01*
X81507895Y-92862352D01*
X81511521Y-92877604D01*
X81556676Y-92998054D01*
X81565214Y-93013649D01*
X81641715Y-93115724D01*
X81654276Y-93128285D01*
X81756351Y-93204786D01*
X81771948Y-93213325D01*
X81884834Y-93255644D01*
X81941599Y-93298285D01*
X81966299Y-93364847D01*
X81951092Y-93434196D01*
X81934115Y-93456834D01*
X81932811Y-93457811D01*
X81927429Y-93464992D01*
X81861108Y-93553484D01*
X81847217Y-93572018D01*
X81815776Y-93655890D01*
X81773137Y-93712652D01*
X81706575Y-93737353D01*
X81687676Y-93736610D01*
X81685337Y-93735910D01*
X81676363Y-93735855D01*
X81676361Y-93735855D01*
X81613082Y-93735469D01*
X81540827Y-93735028D01*
X81532196Y-93737495D01*
X81532194Y-93737495D01*
X81410509Y-93772272D01*
X81410505Y-93772274D01*
X81401879Y-93774739D01*
X81394292Y-93779526D01*
X81394290Y-93779527D01*
X81291540Y-93844358D01*
X81279661Y-93851853D01*
X81273718Y-93858582D01*
X81273717Y-93858583D01*
X81228902Y-93909327D01*
X81183999Y-93960170D01*
X81180185Y-93968293D01*
X81180184Y-93968295D01*
X81155909Y-94020000D01*
X81122583Y-94090982D01*
X81121203Y-94099846D01*
X81121202Y-94099849D01*
X81105709Y-94199358D01*
X81100350Y-94233773D01*
X81101514Y-94242675D01*
X81101514Y-94242678D01*
X81112706Y-94328260D01*
X81119088Y-94377065D01*
X81177289Y-94509339D01*
X81183063Y-94516208D01*
X81250014Y-94595855D01*
X81270276Y-94619960D01*
X81277747Y-94624933D01*
X81277748Y-94624934D01*
X81383101Y-94695063D01*
X81383103Y-94695064D01*
X81390574Y-94700037D01*
X81399138Y-94702713D01*
X81399141Y-94702714D01*
X81441405Y-94715918D01*
X81528510Y-94743132D01*
X81672998Y-94745780D01*
X81672962Y-94747728D01*
X81731819Y-94757329D01*
X81784587Y-94804827D01*
X81796859Y-94834439D01*
X81797119Y-94834342D01*
X81842692Y-94955910D01*
X81847217Y-94967982D01*
X81852601Y-94975165D01*
X81852601Y-94975166D01*
X81872862Y-95002200D01*
X81932811Y-95082189D01*
X81939992Y-95087571D01*
X82009122Y-95139381D01*
X82047018Y-95167783D01*
X82088331Y-95183270D01*
X82145094Y-95225909D01*
X82169795Y-95292470D01*
X82154589Y-95361819D01*
X82104304Y-95411938D01*
X82088332Y-95419232D01*
X82027018Y-95442217D01*
X82019835Y-95447601D01*
X82019834Y-95447601D01*
X81919992Y-95522429D01*
X81912811Y-95527811D01*
X81907429Y-95534992D01*
X81855419Y-95604389D01*
X81827217Y-95642018D01*
X81824065Y-95650426D01*
X81782429Y-95761494D01*
X81777119Y-95775658D01*
X81776266Y-95783510D01*
X81774438Y-95791198D01*
X81772493Y-95790735D01*
X81749297Y-95846559D01*
X81690934Y-95886985D01*
X81619980Y-95889440D01*
X81582747Y-95873123D01*
X81573790Y-95867317D01*
X81530934Y-95854500D01*
X81443938Y-95828482D01*
X81443936Y-95828482D01*
X81435337Y-95825910D01*
X81426363Y-95825855D01*
X81426361Y-95825855D01*
X81363082Y-95825469D01*
X81290827Y-95825028D01*
X81282196Y-95827495D01*
X81282194Y-95827495D01*
X81160509Y-95862272D01*
X81160505Y-95862274D01*
X81151879Y-95864739D01*
X81144292Y-95869526D01*
X81144290Y-95869527D01*
X81032254Y-95940217D01*
X81029661Y-95941853D01*
X81028629Y-95940217D01*
X80974117Y-95964528D01*
X80903936Y-95953799D01*
X80850696Y-95906831D01*
X80831301Y-95838535D01*
X80837033Y-95805796D01*
X80836720Y-95805729D01*
X80838388Y-95797981D01*
X80841016Y-95790498D01*
X80841500Y-95784909D01*
X80841500Y-95782196D01*
X80841615Y-95779531D01*
X80841634Y-95779468D01*
X80841808Y-95779475D01*
X80841855Y-95778729D01*
X80843725Y-95772476D01*
X80841597Y-95718322D01*
X80841500Y-95713375D01*
X80841500Y-92087885D01*
X81502000Y-92087885D01*
X81506475Y-92103124D01*
X81507865Y-92104329D01*
X81515548Y-92106000D01*
X82187885Y-92106000D01*
X82203124Y-92101525D01*
X82204329Y-92100135D01*
X82206000Y-92092452D01*
X82206000Y-91470116D01*
X82201525Y-91454877D01*
X82200135Y-91453672D01*
X82192452Y-91452001D01*
X81965331Y-91452001D01*
X81958510Y-91452371D01*
X81907648Y-91457895D01*
X81892396Y-91461521D01*
X81771946Y-91506676D01*
X81756351Y-91515214D01*
X81654276Y-91591715D01*
X81641715Y-91604276D01*
X81565214Y-91706351D01*
X81556676Y-91721946D01*
X81511522Y-91842394D01*
X81507895Y-91857649D01*
X81502369Y-91908514D01*
X81502000Y-91915328D01*
X81502000Y-92087885D01*
X80841500Y-92087885D01*
X80841500Y-89780212D01*
X80861502Y-89712091D01*
X80878405Y-89691117D01*
X81574280Y-88995242D01*
X81636592Y-88961216D01*
X81707407Y-88966281D01*
X81764243Y-89008828D01*
X81785957Y-89055190D01*
X81786266Y-89056489D01*
X81787119Y-89064342D01*
X81837217Y-89197982D01*
X81842601Y-89205165D01*
X81842601Y-89205166D01*
X81901232Y-89283396D01*
X81922811Y-89312189D01*
X81929992Y-89317571D01*
X81978554Y-89353966D01*
X82037018Y-89397783D01*
X82045426Y-89400935D01*
X82163260Y-89445108D01*
X82163262Y-89445109D01*
X82170658Y-89447881D01*
X82231585Y-89454500D01*
X82522457Y-89454500D01*
X82813414Y-89454499D01*
X82816808Y-89454130D01*
X82816814Y-89454130D01*
X82866483Y-89448735D01*
X82866486Y-89448734D01*
X82874342Y-89447881D01*
X82898412Y-89438858D01*
X82999574Y-89400935D01*
X83007982Y-89397783D01*
X83066447Y-89353966D01*
X83115008Y-89317571D01*
X83122189Y-89312189D01*
X83143768Y-89283396D01*
X83202399Y-89205166D01*
X83202399Y-89205165D01*
X83207783Y-89197982D01*
X83217526Y-89171991D01*
X83255108Y-89071740D01*
X83255109Y-89071738D01*
X83257881Y-89064342D01*
X83264500Y-89003415D01*
X83264499Y-87996586D01*
X83259545Y-87950973D01*
X83258735Y-87943517D01*
X83258734Y-87943511D01*
X83257881Y-87935658D01*
X83235336Y-87875516D01*
X83210935Y-87810426D01*
X83207783Y-87802018D01*
X83199191Y-87790553D01*
X83127571Y-87694992D01*
X83122189Y-87687811D01*
X83102235Y-87672856D01*
X83015166Y-87607601D01*
X83015165Y-87607601D01*
X83007982Y-87602217D01*
X82996683Y-87597981D01*
X82994234Y-87596142D01*
X82991703Y-87594756D01*
X82991903Y-87594391D01*
X82939919Y-87555341D01*
X82915219Y-87488779D01*
X82930426Y-87419431D01*
X82980712Y-87369312D01*
X82996680Y-87362020D01*
X83007982Y-87357783D01*
X83085127Y-87299966D01*
X83115008Y-87277571D01*
X83122189Y-87272189D01*
X83207783Y-87157982D01*
X83257881Y-87024342D01*
X83264500Y-86963415D01*
X83264499Y-85956586D01*
X83263334Y-85945858D01*
X83258735Y-85903517D01*
X83258734Y-85903511D01*
X83257881Y-85895658D01*
X83243197Y-85856486D01*
X83210935Y-85770426D01*
X83207783Y-85762018D01*
X83141546Y-85673638D01*
X83127571Y-85654992D01*
X83122189Y-85647811D01*
X83106778Y-85636261D01*
X83015166Y-85567601D01*
X83015165Y-85567601D01*
X83007982Y-85562217D01*
X82938145Y-85536037D01*
X82881740Y-85514892D01*
X82881738Y-85514891D01*
X82874342Y-85512119D01*
X82813415Y-85505500D01*
X82796831Y-85505500D01*
X82348013Y-85505501D01*
X82279893Y-85485499D01*
X82233400Y-85431844D01*
X82223296Y-85361570D01*
X82252789Y-85296989D01*
X82258919Y-85290406D01*
X83772107Y-83777218D01*
X83834419Y-83743192D01*
X83885781Y-83742734D01*
X83944933Y-83754500D01*
X84469915Y-83754500D01*
X84995066Y-83754499D01*
X85069301Y-83739734D01*
X85075333Y-83735703D01*
X85142373Y-83728496D01*
X85162902Y-83734524D01*
G37*
G04 #@! TD.AperFunction*
M02*
