G04 #@! TF.GenerationSoftware,KiCad,Pcbnew,(6.0.1-0)*
G04 #@! TF.CreationDate,2022-03-09T23:32:45+00:00*
G04 #@! TF.ProjectId,x1key,78316b65-792e-46b6-9963-61645f706362,1.2*
G04 #@! TF.SameCoordinates,Original*
G04 #@! TF.FileFunction,Paste,Top*
G04 #@! TF.FilePolarity,Positive*
%FSLAX46Y46*%
G04 Gerber Fmt 4.6, Leading zero omitted, Abs format (unit mm)*
G04 Created by KiCad (PCBNEW (6.0.1-0)) date 2022-03-09 23:32:45*
%MOMM*%
%LPD*%
G01*
G04 APERTURE LIST*
G04 Aperture macros list*
%AMRoundRect*
0 Rectangle with rounded corners*
0 $1 Rounding radius*
0 $2 $3 $4 $5 $6 $7 $8 $9 X,Y pos of 4 corners*
0 Add a 4 corners polygon primitive as box body*
4,1,4,$2,$3,$4,$5,$6,$7,$8,$9,$2,$3,0*
0 Add four circle primitives for the rounded corners*
1,1,$1+$1,$2,$3*
1,1,$1+$1,$4,$5*
1,1,$1+$1,$6,$7*
1,1,$1+$1,$8,$9*
0 Add four rect primitives between the rounded corners*
20,1,$1+$1,$2,$3,$4,$5,0*
20,1,$1+$1,$4,$5,$6,$7,0*
20,1,$1+$1,$6,$7,$8,$9,0*
20,1,$1+$1,$8,$9,$2,$3,0*%
G04 Aperture macros list end*
%ADD10RoundRect,0.250000X-0.312500X-1.450000X0.312500X-1.450000X0.312500X1.450000X-0.312500X1.450000X0*%
%ADD11R,0.900000X0.800000*%
%ADD12RoundRect,0.243750X-0.243750X-0.456250X0.243750X-0.456250X0.243750X0.456250X-0.243750X0.456250X0*%
%ADD13RoundRect,0.243750X0.243750X0.456250X-0.243750X0.456250X-0.243750X-0.456250X0.243750X-0.456250X0*%
%ADD14R,1.450000X0.450000*%
%ADD15RoundRect,0.250000X0.312500X1.450000X-0.312500X1.450000X-0.312500X-1.450000X0.312500X-1.450000X0*%
%ADD16RoundRect,0.250000X-0.325000X-0.450000X0.325000X-0.450000X0.325000X0.450000X-0.325000X0.450000X0*%
%ADD17R,2.500000X1.800000*%
G04 APERTURE END LIST*
D10*
X65002500Y-82920000D03*
X69277500Y-82920000D03*
D11*
X82460000Y-90460000D03*
X82460000Y-92360000D03*
X84460000Y-91410000D03*
X82470000Y-98320000D03*
X82470000Y-100220000D03*
X84470000Y-99270000D03*
X66970000Y-99790000D03*
X66970000Y-101690000D03*
X68970000Y-100740000D03*
D12*
X58032500Y-93440000D03*
X59907500Y-93440000D03*
X67012500Y-91900000D03*
X68887500Y-91900000D03*
X66992500Y-94900000D03*
X68867500Y-94900000D03*
X82522500Y-88500000D03*
X84397500Y-88500000D03*
X82532500Y-94270000D03*
X84407500Y-94270000D03*
D13*
X78517500Y-98800000D03*
X76642500Y-98800000D03*
D12*
X82512500Y-96340000D03*
X84387500Y-96340000D03*
X82522500Y-86460000D03*
X84397500Y-86460000D03*
X71742500Y-98790000D03*
X73617500Y-98790000D03*
D13*
X68887500Y-97450000D03*
X67012500Y-97450000D03*
D12*
X76632500Y-101390000D03*
X78507500Y-101390000D03*
D14*
X72260000Y-91195000D03*
X72260000Y-91845000D03*
X72260000Y-92495000D03*
X72260000Y-93145000D03*
X72260000Y-93795000D03*
X72260000Y-94445000D03*
X72260000Y-95095000D03*
X72260000Y-95745000D03*
X72260000Y-96395000D03*
X72260000Y-97045000D03*
X78160000Y-97045000D03*
X78160000Y-96395000D03*
X78160000Y-95745000D03*
X78160000Y-95095000D03*
X78160000Y-94445000D03*
X78160000Y-93795000D03*
X78160000Y-93145000D03*
X78160000Y-92495000D03*
X78160000Y-91845000D03*
X78160000Y-91195000D03*
D15*
X69287500Y-87680000D03*
X65012500Y-87680000D03*
D16*
X73975000Y-88830000D03*
X76025000Y-88830000D03*
D17*
X61030000Y-82390000D03*
X57030000Y-82390000D03*
X61020000Y-86730000D03*
X57020000Y-86730000D03*
D13*
X73627500Y-101420000D03*
X71752500Y-101420000D03*
M02*
